<svg width="34" height="24" viewBox="0 0 34 24" fill="none" xmlns="http://www.w3.org/2000/svg">
<path d="M24.7318 23.8713C24.7318 23.8713 23.699 22.6376 22.8382 21.576C26.5968 20.5145 28.0313 18.1905 28.0313 18.1905C26.855 18.9651 25.736 19.5103 24.7318 19.8833C23.2973 20.4858 21.9201 20.8588 20.5716 21.117C17.8173 21.6334 15.2924 21.49 13.1406 21.0883C11.5052 20.7727 10.0993 20.3423 8.92297 19.8546C8.26307 19.5963 7.54579 19.2807 6.82851 18.8791C6.74244 18.8217 6.65636 18.793 6.57029 18.7356C6.51291 18.7069 6.48422 18.6782 6.45553 18.6782C5.93908 18.3913 5.65217 18.1905 5.65217 18.1905C5.65217 18.1905 7.02935 20.4571 10.6731 21.5473C9.8124 22.6376 8.75082 23.9 8.75082 23.9C2.41006 23.6992 0 19.5677 0 19.5677C0 10.4152 4.13154 2.98413 4.13154 2.98413C8.26307 -0.0858307 12.1651 0.000242667 12.1651 0.000242667L12.452 0.344537C7.28757 1.80779 4.93489 4.0744 4.93489 4.0744C4.93489 4.0744 5.5661 3.7301 6.62767 3.27104C9.69763 1.92255 12.1364 1.57826 13.1406 1.4635C13.3127 1.4348 13.4562 1.40611 13.6283 1.40611C15.3785 1.17658 17.3582 1.1192 19.424 1.34873C22.1496 1.66433 25.0761 2.46769 28.06 4.0744C28.06 4.0744 25.7934 1.92255 20.9159 0.459302L21.3176 0.000242667C21.3176 0.000242667 25.2483 -0.0858307 29.3511 2.98413C29.3511 2.98413 33.4827 10.4152 33.4827 19.5677C33.4827 19.539 31.0726 23.6705 24.7318 23.8713Z" fill="black"/>
<path d="M21.9774 8.90088C20.342 8.90088 19.0509 10.3067 19.0509 12.0569C19.0509 13.8071 20.3707 15.2129 21.9774 15.2129C23.6128 15.2129 24.9039 13.8071 24.9039 12.0569C24.9039 10.3067 23.5841 8.90088 21.9774 8.90088ZM11.5051 8.90088C9.86972 8.90088 8.57861 10.3067 8.57861 12.0569C8.57861 13.8071 9.89841 15.2129 11.5051 15.2129C13.1405 15.2129 14.4316 13.8071 14.4316 12.0569C14.4603 10.3067 13.1405 8.90088 11.5051 8.90088Z" fill="white"/>
</svg>
