<svg width="35" height="24" viewBox="0 0 35 24" fill="none" xmlns="http://www.w3.org/2000/svg">
<path d="M25.7318 23.8713C25.7318 23.8713 24.699 22.6376 23.8382 21.576C27.5968 20.5145 29.0313 18.1905 29.0313 18.1905C27.855 18.9651 26.736 19.5103 25.7318 19.8833C24.2973 20.4858 22.9201 20.8588 21.5716 21.117C18.8173 21.6334 16.2924 21.49 14.1406 21.0883C12.5052 20.7727 11.0993 20.3423 9.92297 19.8546C9.26307 19.5963 8.54579 19.2807 7.82851 18.8791C7.74244 18.8217 7.65636 18.793 7.57029 18.7356C7.51291 18.7069 7.48422 18.6782 7.45553 18.6782C6.93908 18.3913 6.65217 18.1905 6.65217 18.1905C6.65217 18.1905 8.02935 20.4571 11.6731 21.5473C10.8124 22.6376 9.75082 23.9 9.75082 23.9C3.41006 23.6992 1 19.5677 1 19.5677C1 10.4152 5.13154 2.98413 5.13154 2.98413C9.26307 -0.0858307 13.1651 0.000242667 13.1651 0.000242667L13.452 0.344537C8.28757 1.80779 5.93489 4.0744 5.93489 4.0744C5.93489 4.0744 6.5661 3.7301 7.62767 3.27104C10.6976 1.92255 13.1364 1.57826 14.1406 1.4635C14.3127 1.4348 14.4562 1.40611 14.6283 1.40611C16.3785 1.17658 18.3582 1.1192 20.424 1.34873C23.1496 1.66433 26.0761 2.46769 29.06 4.0744C29.06 4.0744 26.7934 1.92255 21.9159 0.459302L22.3176 0.000242667C22.3176 0.000242667 26.2483 -0.0858307 30.3511 2.98413C30.3511 2.98413 34.4827 10.4152 34.4827 19.5677C34.4827 19.539 32.0726 23.6705 25.7318 23.8713Z" fill="white"/>
<path d="M22.9774 8.90094C21.342 8.90094 20.0509 10.3068 20.0509 12.057C20.0509 13.8071 21.3707 15.213 22.9774 15.213C24.6128 15.213 25.9039 13.8071 25.9039 12.057C25.9039 10.3068 24.5841 8.90094 22.9774 8.90094ZM12.5051 8.90094C10.8697 8.90094 9.57861 10.3068 9.57861 12.057C9.57861 13.8071 10.8984 15.213 12.5051 15.213C14.1405 15.213 15.4316 13.8071 15.4316 12.057C15.4603 10.3068 14.1405 8.90094 12.5051 8.90094Z" fill="white"/>
<path d="M24.7318 23.8713C24.7318 23.8713 23.699 22.6376 22.8382 21.576C26.5968 20.5145 28.0313 18.1905 28.0313 18.1905C26.855 18.9651 25.736 19.5103 24.7318 19.8833C23.2973 20.4858 21.9201 20.8588 20.5716 21.117C17.8173 21.6334 15.2924 21.49 13.1406 21.0883C11.5052 20.7727 10.0993 20.3423 8.92297 19.8546C8.26307 19.5963 7.54579 19.2807 6.82851 18.8791C6.74244 18.8217 6.65636 18.793 6.57029 18.7356C6.51291 18.7069 6.48422 18.6782 6.45553 18.6782C5.93908 18.3913 5.65217 18.1905 5.65217 18.1905C5.65217 18.1905 7.02935 20.4571 10.6731 21.5473C9.8124 22.6376 8.75082 23.9 8.75082 23.9C2.41006 23.6992 0 19.5677 0 19.5677C0 10.4152 4.13154 2.98413 4.13154 2.98413C8.26307 -0.0858307 12.1651 0.000242667 12.1651 0.000242667L12.452 0.344537C7.28757 1.80779 4.93489 4.0744 4.93489 4.0744C4.93489 4.0744 5.5661 3.7301 6.62767 3.27104C9.69763 1.92255 12.1364 1.57826 13.1406 1.4635C13.3127 1.4348 13.4562 1.40611 13.6283 1.40611C15.3785 1.17658 17.3582 1.1192 19.424 1.34873C22.1496 1.66433 25.0761 2.46769 28.06 4.0744C28.06 4.0744 25.7934 1.92255 20.9159 0.459302L21.3176 0.000242667C21.3176 0.000242667 25.2483 -0.0858307 29.3511 2.98413C29.3511 2.98413 33.4827 10.4152 33.4827 19.5677C33.4827 19.539 31.0726 23.6705 24.7318 23.8713Z" fill="#150035"/>
<path d="M21.9774 8.90094C20.342 8.90094 19.0509 10.3068 19.0509 12.057C19.0509 13.8071 20.3707 15.213 21.9774 15.213C23.6128 15.213 24.9039 13.8071 24.9039 12.057C24.9039 10.3068 23.5841 8.90094 21.9774 8.90094ZM11.5051 8.90094C9.86972 8.90094 8.57861 10.3068 8.57861 12.057C8.57861 13.8071 9.89841 15.213 11.5051 15.213C13.1405 15.213 14.4316 13.8071 14.4316 12.057C14.4603 10.3068 13.1405 8.90094 11.5051 8.90094Z" fill="white"/>
</svg>
