<svg width="784" height="294" viewBox="0 0 784 294" fill="none" xmlns="http://www.w3.org/2000/svg">
<path d="M13.7462 281.93H12.7462V282.813L13.6222 282.922L13.7462 281.93ZM30.2312 279.025L29.5597 278.284L29.558 278.286L30.2312 279.025ZM30.2312 260.965L29.5886 261.731L29.5993 261.74L30.2312 260.965ZM13.7462 258.725L13.5818 257.739L12.7462 257.878V258.725H13.7462ZM18.0512 261.84L17.8222 260.867L17.0512 261.048V261.84H18.0512ZM29.3562 269.785L28.3562 269.778V269.785H29.3562ZM20.4312 278.815L20.4375 277.815H20.4312V278.815ZM18.0512 278.71H17.0512V279.549L17.8774 279.695L18.0512 278.71ZM13.6222 282.922C15.0674 283.103 16.9991 283.245 19.5562 283.245V281.245C17.0734 281.245 15.225 281.107 13.8703 280.938L13.6222 282.922ZM19.5562 283.245C24.2656 283.245 28.3003 282.135 30.9045 279.764L29.558 278.286C27.4722 280.185 24.0168 281.245 19.5562 281.245V283.245ZM30.9028 279.766C33.3833 277.518 34.9062 274.082 34.9062 269.645H32.9062C32.9062 273.608 31.5592 276.472 29.5597 278.284L30.9028 279.766ZM34.9062 269.645C34.9062 265.361 33.4012 262.259 30.8632 260.19L29.5993 261.74C31.6112 263.381 32.9062 265.879 32.9062 269.645H34.9062ZM30.8738 260.199C28.4558 258.171 25.1438 257.235 20.6062 257.235V259.235C24.8886 259.235 27.6667 260.119 29.5886 261.731L30.8738 260.199ZM20.6062 257.235C18.0118 257.235 15.5397 257.412 13.5818 257.739L13.9106 259.711C15.7327 259.408 18.0906 259.235 20.6062 259.235V257.235ZM12.7462 258.725V281.93H14.7462V258.725H12.7462ZM18.2803 262.813C18.7695 262.698 19.6637 262.595 20.9912 262.595V260.595C19.5887 260.595 18.5229 260.702 17.8222 260.867L18.2803 262.813ZM20.9912 262.595C23.5077 262.595 25.3248 263.287 26.5076 264.448C27.6867 265.605 28.3725 267.363 28.3563 269.778L30.3562 269.792C30.375 266.992 29.5732 264.655 27.9086 263.021C26.2476 261.39 23.8648 260.595 20.9912 260.595V262.595ZM28.3562 269.785C28.3562 272.596 27.5783 274.573 26.2907 275.846C25.0018 277.121 23.0584 277.831 20.4375 277.815L20.425 279.815C23.4041 279.834 25.9232 279.022 27.6968 277.269C29.4716 275.514 30.3562 272.959 30.3562 269.785H28.3562ZM20.4312 277.815C19.5169 277.815 18.7127 277.811 18.225 277.725L17.8774 279.695C18.5797 279.819 19.5956 279.815 20.4312 279.815V277.815ZM19.0512 278.71V261.84H17.0512V278.71H19.0512ZM51.9178 274.685V275.685H52.7524L52.9017 274.864L51.9178 274.685ZM51.1128 281.3L51.488 282.227L52.2647 281.913L52.0911 281.093L51.1128 281.3ZM50.4828 278.325L51.4611 278.118L51.2196 276.977L50.1289 277.39L50.4828 278.325ZM40.5078 274.685V273.685H39.4732L39.5084 274.719L40.5078 274.685ZM40.5078 271.675L39.5128 271.575L39.4028 272.675H40.5078V271.675ZM47.9978 271.675V272.675H48.9759L48.9976 271.697L47.9978 271.675ZM52.9017 274.864C52.9835 274.414 53.0578 273.724 53.0578 272.865H51.0578C51.0578 273.616 50.9922 274.186 50.934 274.506L52.9017 274.864ZM53.0578 272.865C53.0578 270.854 52.5729 268.557 51.2705 266.732C49.9343 264.86 47.792 263.57 44.7078 263.57V265.57C47.1537 265.57 48.6864 266.555 49.6427 267.894C50.6328 269.281 51.0578 271.131 51.0578 272.865H53.0578ZM44.7078 263.57C41.6778 263.57 39.3124 264.816 37.7231 266.748C36.1521 268.658 35.3778 271.186 35.3778 273.74H37.3778C37.3778 271.569 38.0386 269.512 39.2676 268.018C40.4783 266.547 42.2779 265.57 44.7078 265.57V263.57ZM35.3778 273.74C35.3778 276.557 36.2612 278.984 37.9905 280.709C39.7203 282.433 42.1909 283.35 45.1628 283.35V281.35C42.6047 281.35 40.6829 280.569 39.4027 279.292C38.122 278.016 37.3778 276.138 37.3778 273.74H35.3778ZM45.1628 283.35C47.7333 283.35 49.8915 282.873 51.488 282.227L50.7376 280.373C49.3942 280.917 47.4924 281.35 45.1628 281.35V283.35ZM52.0911 281.093L51.4611 278.118L49.5045 278.532L50.1345 281.507L52.0911 281.093ZM50.1289 277.39C48.9618 277.831 47.6488 278.095 45.7578 278.095V280.095C47.8569 280.095 49.4139 279.799 50.8367 279.26L50.1289 277.39ZM45.7578 278.095C44.5396 278.095 43.4847 277.796 42.7479 277.245C42.0445 276.718 41.55 275.904 41.5073 274.651L39.5084 274.719C39.5707 276.546 40.3362 277.937 41.549 278.845C42.7285 279.729 44.246 280.095 45.7578 280.095V278.095ZM40.5078 275.685H51.9178V273.685H40.5078V275.685ZM41.5029 271.775C41.5762 271.041 41.8498 270.189 42.3453 269.547C42.8163 268.936 43.4831 268.51 44.4628 268.51V266.51C42.7826 266.51 41.5593 267.291 40.7616 268.326C39.9884 269.328 39.6144 270.559 39.5128 271.575L41.5029 271.775ZM44.4628 268.51C45.5338 268.51 46.1152 268.963 46.4725 269.533C46.867 270.162 47.0127 270.993 46.9981 271.653L48.9976 271.697C49.0179 270.782 48.8312 269.53 48.167 268.471C47.4655 267.352 46.2619 266.51 44.4628 266.51V268.51ZM47.9978 270.675H40.5078V272.675H47.9978V270.675ZM54.4597 281.16L53.4942 280.9L53.2906 281.654L53.9741 282.034L54.4597 281.16ZM66.5697 277.03H67.5698L67.5696 277.016L66.5697 277.03ZM62.0197 271.815L62.3615 270.875L62.3541 270.873L62.0197 271.815ZM65.0297 268.63L64.5336 269.498L65.6513 270.137L65.9937 268.896L65.0297 268.63ZM65.8697 265.585L66.8337 265.851L67.0462 265.081L66.3419 264.704L65.8697 265.585ZM54.9147 269.925L55.9146 269.943L55.9147 269.934V269.925H54.9147ZM59.6047 274.895L59.9351 273.951L59.9328 273.95L59.6047 274.895ZM55.2997 278.045L55.8187 277.19L54.6808 276.499L54.3342 277.785L55.2997 278.045ZM53.9741 282.034C55.4048 282.829 57.4321 283.35 59.6397 283.35V281.35C57.7173 281.35 56.0346 280.891 54.9454 280.286L53.9741 282.034ZM59.6397 283.35C62.0522 283.35 64.0306 282.752 65.4268 281.622C66.844 280.476 67.5697 278.853 67.5697 277.03H65.5697C65.5697 278.287 65.0879 279.324 64.1689 280.068C63.2288 280.828 61.7422 281.35 59.6397 281.35V283.35ZM67.5696 277.016C67.5492 275.549 67.1125 274.287 66.1868 273.236C65.2844 272.213 63.9824 271.465 62.3615 270.875L61.678 272.755C63.137 273.285 64.0925 273.885 64.6864 274.559C65.2569 275.206 65.5552 275.991 65.5698 277.044L67.5696 277.016ZM62.3541 270.873C61.2624 270.485 60.6598 270.205 60.3278 269.95C60.1795 269.836 60.1214 269.753 60.0947 269.701C60.0697 269.652 60.0447 269.577 60.0447 269.435H58.0447C58.0447 269.835 58.1203 270.233 58.3141 270.612C58.5061 270.987 58.7849 271.287 59.1091 271.536C59.7222 272.007 60.607 272.375 61.6853 272.757L62.3541 270.873ZM60.0447 269.435C60.0447 269.202 60.1249 269.053 60.2735 268.936C60.4478 268.8 60.8012 268.65 61.4247 268.65V266.65C60.5082 266.65 59.6716 266.868 59.0409 267.361C58.3845 267.875 58.0447 268.618 58.0447 269.435H60.0447ZM61.4247 268.65C62.7036 268.65 63.8969 269.134 64.5336 269.498L65.5258 267.762C64.6925 267.286 63.1558 266.65 61.4247 266.65V268.65ZM65.9937 268.896L66.8337 265.851L64.9057 265.319L64.0657 268.364L65.9937 268.896ZM66.3419 264.704C65.2092 264.097 63.4007 263.57 61.3547 263.57V265.57C63.0887 265.57 64.5702 266.023 65.3975 266.466L66.3419 264.704ZM61.3547 263.57C59.1815 263.57 57.3264 264.216 55.9983 265.362C54.6629 266.514 53.9147 268.129 53.9147 269.925H55.9147C55.9147 268.711 56.4091 267.649 57.3048 266.876C58.208 266.097 59.5729 265.57 61.3547 265.57V263.57ZM53.9149 269.907C53.8691 272.518 55.7478 274.614 59.2766 275.84L59.9328 273.95C56.8116 272.866 55.8903 271.322 55.9146 269.943L53.9149 269.907ZM59.2744 275.839C60.3136 276.203 60.851 276.484 61.1316 276.731C61.3322 276.907 61.4047 277.06 61.4047 277.38H63.4047C63.4047 276.545 63.1272 275.823 62.4528 275.229C61.8584 274.706 60.9958 274.322 59.9351 273.951L59.2744 275.839ZM61.4047 277.38C61.4047 277.662 61.3151 277.821 61.151 277.943C60.9438 278.097 60.5055 278.27 59.6747 278.27V280.27C60.734 280.27 61.6606 280.058 62.3459 279.547C63.0743 279.004 63.4047 278.218 63.4047 277.38H61.4047ZM59.6747 278.27C58.34 278.27 56.6624 277.702 55.8187 277.19L54.7807 278.9C55.897 279.578 57.9294 280.27 59.6747 280.27V278.27ZM54.3342 277.785L53.4942 280.9L55.4252 281.42L56.2652 278.305L54.3342 277.785ZM70.8394 261.105L70.6045 260.133L69.8394 260.318V261.105H70.8394ZM70.8394 264.955V265.955H71.8394V264.955H70.8394ZM68.3894 264.955V263.955H67.3894V264.955H68.3894ZM68.3894 268.175H67.3894V269.175H68.3894V268.175ZM70.8394 268.175H71.8394V267.175H70.8394V268.175ZM72.1694 280.95L72.9054 280.273L72.9022 280.27L72.1694 280.95ZM78.9944 281.93L79.3569 282.862L80.0091 282.608L79.9942 281.909L78.9944 281.93ZM78.9244 278.64L79.9242 278.619L79.897 277.338L78.6613 277.675L78.9244 278.64ZM75.0394 268.175V267.175H74.0394V268.175H75.0394ZM79.1344 268.175V269.175H80.1344V268.175H79.1344ZM79.1344 264.955H80.1344V263.955H79.1344V264.955ZM75.0394 264.955H74.0394V265.955H75.0394V264.955ZM75.0394 260.09H76.0394V258.82L74.8045 259.118L75.0394 260.09ZM69.8394 261.105V264.955H71.8394V261.105H69.8394ZM70.8394 263.955H68.3894V265.955H70.8394V263.955ZM67.3894 264.955V268.175H69.3894V264.955H67.3894ZM68.3894 269.175H70.8394V267.175H68.3894V269.175ZM69.8394 268.175V276.19H71.8394V268.175H69.8394ZM69.8394 276.19C69.8394 278.515 70.2677 280.372 71.4366 281.63L72.9022 280.27C72.2512 279.568 71.8394 278.345 71.8394 276.19H69.8394ZM71.4335 281.627C72.4732 282.757 74.0995 283.35 75.8794 283.35V281.35C74.5093 281.35 73.4757 280.893 72.9054 280.273L71.4335 281.627ZM75.8794 283.35C77.2986 283.35 78.5604 283.172 79.3569 282.862L78.632 280.998C78.1684 281.178 77.1902 281.35 75.8794 281.35V283.35ZM79.9942 281.909L79.9242 278.619L77.9247 278.661L77.9947 281.951L79.9942 281.909ZM78.6613 277.675C78.3533 277.759 77.8819 277.85 77.2444 277.85V279.85C78.077 279.85 78.7256 279.731 79.1876 279.605L78.6613 277.675ZM77.2444 277.85C76.6719 277.85 76.48 277.683 76.3624 277.503C76.1822 277.227 76.0394 276.687 76.0394 275.7H74.0394C74.0394 276.778 74.1767 277.813 74.6877 278.596C75.2614 279.475 76.172 279.85 77.2444 279.85V277.85ZM76.0394 275.7V268.175H74.0394V275.7H76.0394ZM75.0394 269.175H79.1344V267.175H75.0394V269.175ZM80.1344 268.175V264.955H78.1344V268.175H80.1344ZM79.1344 263.955H75.0394V265.955H79.1344V263.955ZM76.0394 264.955V260.09H74.0394V264.955H76.0394ZM74.8045 259.118L70.6045 260.133L71.0743 262.077L75.2743 261.062L74.8045 259.118ZM82.3749 282H81.3749V283H82.3749V282ZM86.6799 282V283H87.6799V282H86.6799ZM86.8199 271.85L85.8394 271.654L85.8376 271.662L85.8361 271.671L86.8199 271.85ZM91.9299 268.735L91.7338 269.716L92.9299 269.955V268.735H91.9299ZM91.9299 264.675H92.9299V263.855L92.1261 263.694L91.9299 264.675ZM86.2599 268.21V269.21H86.9709L87.2044 268.539L86.2599 268.21ZM86.1199 268.21L85.1209 268.253L85.162 269.21H86.1199V268.21ZM85.9799 264.955L86.979 264.912L86.9379 263.955H85.9799V264.955ZM82.2349 264.955V263.955H81.1644L81.2373 265.023L82.2349 264.955ZM82.3749 283H86.6799V281H82.3749V283ZM87.6799 282V273.18H85.6799V282H87.6799ZM87.6799 273.18C87.6799 272.781 87.7371 272.396 87.8038 272.029L85.8361 271.671C85.7628 272.074 85.6799 272.599 85.6799 273.18H87.6799ZM87.8005 272.046C88.1028 270.535 89.1344 269.595 90.6699 269.595V267.595C88.0755 267.595 86.3071 269.315 85.8394 271.654L87.8005 272.046ZM90.6699 269.595C91.0966 269.595 91.406 269.65 91.7338 269.716L92.1261 267.754C91.7539 267.68 91.2933 267.595 90.6699 267.595V269.595ZM92.9299 268.735V264.675H90.9299V268.735H92.9299ZM92.1261 263.694C91.7281 263.615 91.4158 263.57 90.9149 263.57V265.57C91.254 265.57 91.4317 265.595 91.7338 265.656L92.1261 263.694ZM90.9149 263.57C88.6473 263.57 86.2879 265.086 85.3154 267.881L87.2044 268.539C87.912 266.504 89.5426 265.57 90.9149 265.57V263.57ZM86.2599 267.21H86.1199V269.21H86.2599V267.21ZM87.119 268.167L86.979 264.912L84.9809 264.998L85.1209 268.253L87.119 268.167ZM85.9799 263.955H82.2349V265.955H85.9799V263.955ZM81.2373 265.023C81.34 266.529 81.3749 268.148 81.3749 270.45H83.3749C83.3749 268.132 83.3399 266.461 83.2326 264.887L81.2373 265.023ZM81.3749 270.45V282H83.3749V270.45H81.3749ZM102.278 263.57C99.4797 263.57 97.0077 264.507 95.2324 266.277C93.4552 268.049 92.4579 270.575 92.4579 273.6H94.4579C94.4579 271.025 95.2981 269.036 96.6447 267.693C97.9931 266.348 99.9311 265.57 102.278 265.57V263.57ZM92.4579 273.6C92.4579 276.565 93.4704 279.028 95.2136 280.751C96.953 282.471 99.3506 283.385 101.998 283.385V281.385C99.8152 281.385 97.9428 280.637 96.6197 279.329C95.3004 278.025 94.4579 276.095 94.4579 273.6H92.4579ZM101.998 283.385C104.373 283.385 106.812 282.619 108.67 280.945C110.547 279.253 111.748 276.706 111.748 273.32H109.748C109.748 276.199 108.744 278.185 107.331 279.459C105.898 280.751 103.963 281.385 101.998 281.385V283.385ZM111.748 273.32C111.748 270.509 110.823 268.061 109.136 266.309C107.446 264.553 105.059 263.57 102.278 263.57V265.57C104.572 265.57 106.42 266.372 107.696 267.696C108.975 269.024 109.748 270.951 109.748 273.32H111.748ZM102.173 268.72C103.228 268.72 103.965 269.238 104.486 270.095C105.03 270.989 105.303 272.221 105.303 273.425H107.303C107.303 271.969 106.981 270.348 106.195 269.055C105.386 267.724 104.058 266.72 102.173 266.72V268.72ZM105.303 273.425C105.303 274.985 104.912 276.229 104.324 277.054C103.75 277.86 102.996 278.27 102.138 278.27V280.27C103.73 280.27 105.058 279.472 105.954 278.214C106.837 276.974 107.303 275.295 107.303 273.425H105.303ZM102.138 278.27C101.184 278.27 100.416 277.835 99.8523 277.039C99.2706 276.216 98.9029 274.99 98.9029 273.495H96.9029C96.9029 275.29 97.3402 276.951 98.2197 278.194C99.1175 279.463 100.467 280.27 102.138 280.27V278.27ZM98.9029 273.495C98.9029 272.199 99.1864 270.959 99.7419 270.078C100.269 269.241 101.036 268.72 102.173 268.72V266.72C100.265 266.72 98.8966 267.669 98.0501 269.011C97.2319 270.309 96.9029 271.956 96.9029 273.495H98.9029ZM111.995 264.955V263.955H110.521L111.066 265.325L111.995 264.955ZM118.225 280.6L117.296 280.97L117.312 281.009L117.331 281.047L118.225 280.6ZM118.19 282.21L117.316 281.724L117.309 281.738L117.301 281.752L118.19 282.21ZM115.845 284.905L115.299 284.067L115.28 284.08L115.261 284.093L115.845 284.905ZM113.325 286.095L113.094 285.122L112.092 285.361L112.36 286.355L113.325 286.095ZM114.305 289.735L113.34 289.995L113.567 290.839L114.433 290.727L114.305 289.735ZM118.82 287.53L118.167 286.773L118.16 286.779L118.153 286.785L118.82 287.53ZM124.77 276.575L125.709 276.92L125.709 276.92L124.77 276.575ZM129.04 264.955L129.979 265.3L130.473 263.955H129.04V264.955ZM124.42 264.955V263.955H123.671L123.46 264.674L124.42 264.955ZM121.76 274.055L120.8 273.774L120.798 273.784L121.76 274.055ZM120.85 277.415V278.415H121.605L121.812 277.69L120.85 277.415ZM120.745 277.415L119.775 277.658L119.965 278.415H120.745V277.415ZM119.8 274.09L120.749 273.774L120.748 273.771L119.8 274.09ZM116.72 264.955L117.668 264.636L117.438 263.955H116.72V264.955ZM111.066 265.325L117.296 280.97L119.154 280.23L112.924 264.585L111.066 265.325ZM117.331 281.047C117.411 281.208 117.444 281.308 117.458 281.362C117.47 281.409 117.47 281.429 117.47 281.44H119.47C119.47 281.083 119.386 280.685 119.12 280.153L117.331 281.047ZM117.47 281.44C117.47 281.382 117.484 281.37 117.461 281.431C117.438 281.492 117.395 281.583 117.316 281.724L119.064 282.696C119.234 282.391 119.47 281.938 119.47 281.44H117.47ZM117.301 281.752C116.78 282.764 115.949 283.644 115.299 284.067L116.392 285.743C117.352 285.116 118.411 283.966 119.079 282.668L117.301 281.752ZM115.261 284.093C114.49 284.648 113.7 284.978 113.094 285.122L113.557 287.068C114.421 286.862 115.45 286.422 116.43 285.717L115.261 284.093ZM112.36 286.355L113.34 289.995L115.271 289.475L114.291 285.835L112.36 286.355ZM114.433 290.727C115.699 290.563 117.643 289.927 119.488 288.275L118.153 286.785C116.638 288.143 115.081 288.627 114.177 288.743L114.433 290.727ZM119.473 288.287C121.72 286.351 123.366 283.284 125.709 276.92L123.832 276.23C121.485 282.606 119.981 285.209 118.167 286.773L119.473 288.287ZM125.709 276.92L129.979 265.3L128.102 264.61L123.832 276.23L125.709 276.92ZM129.04 263.955H124.42V265.955H129.04V263.955ZM123.46 264.674L120.8 273.774L122.72 274.336L125.38 265.236L123.46 264.674ZM120.798 273.784C120.638 274.353 120.478 274.956 120.326 275.531C120.172 276.111 120.026 276.661 119.889 277.14L121.812 277.69C121.955 277.189 122.106 276.619 122.259 276.044C122.412 275.464 122.568 274.877 122.723 274.326L120.798 273.784ZM120.85 276.415H120.745V278.415H120.85V276.415ZM121.715 277.172C121.468 276.182 121.111 274.859 120.749 273.774L118.852 274.406C119.19 275.421 119.533 276.688 119.775 277.658L121.715 277.172ZM120.748 273.771L117.668 264.636L115.773 265.274L118.853 274.409L120.748 273.771ZM116.72 263.955H111.995V265.955H116.72V263.955ZM142.06 282H141.06V283H142.06V282ZM146.365 282V283H147.365V282H146.365ZM146.365 262.015V261.015H145.365V262.015H146.365ZM153.155 262.015V263.015H154.155V262.015H153.155ZM153.155 258.41H154.155V257.41H153.155V258.41ZM135.34 258.41V257.41H134.34V258.41H135.34ZM135.34 262.015H134.34V263.015H135.34V262.015ZM142.06 262.015H143.06V261.015H142.06V262.015ZM142.06 283H146.365V281H142.06V283ZM147.365 282V262.015H145.365V282H147.365ZM146.365 263.015H153.155V261.015H146.365V263.015ZM154.155 262.015V258.41H152.155V262.015H154.155ZM153.155 257.41H135.34V259.41H153.155V257.41ZM134.34 258.41V262.015H136.34V258.41H134.34ZM135.34 263.015H142.06V261.015H135.34V263.015ZM141.06 262.015V282H143.06V262.015H141.06ZM154.016 282H153.016V283H154.016V282ZM158.321 282V283H159.321V282H158.321ZM158.461 271.85L157.48 271.654L157.478 271.662L157.477 271.671L158.461 271.85ZM163.571 268.735L163.374 269.716L164.571 269.955V268.735H163.571ZM163.571 264.675H164.571V263.855L163.767 263.694L163.571 264.675ZM157.901 268.21V269.21H158.612L158.845 268.539L157.901 268.21ZM157.761 268.21L156.761 268.253L156.803 269.21H157.761V268.21ZM157.621 264.955L158.62 264.912L158.578 263.955H157.621V264.955ZM153.876 264.955V263.955H152.805L152.878 265.023L153.876 264.955ZM154.016 283H158.321V281H154.016V283ZM159.321 282V273.18H157.321V282H159.321ZM159.321 273.18C159.321 272.781 159.378 272.396 159.444 272.029L157.477 271.671C157.403 272.074 157.321 272.599 157.321 273.18H159.321ZM159.441 272.046C159.743 270.535 160.775 269.595 162.311 269.595V267.595C159.716 267.595 157.948 269.315 157.48 271.654L159.441 272.046ZM162.311 269.595C162.737 269.595 163.047 269.65 163.374 269.716L163.767 267.754C163.395 267.68 162.934 267.595 162.311 267.595V269.595ZM164.571 268.735V264.675H162.571V268.735H164.571ZM163.767 263.694C163.369 263.615 163.056 263.57 162.556 263.57V265.57C162.895 265.57 163.072 265.595 163.374 265.656L163.767 263.694ZM162.556 263.57C160.288 263.57 157.929 265.086 156.956 267.881L158.845 268.539C159.553 266.504 161.183 265.57 162.556 265.57V263.57ZM157.901 267.21H157.761V269.21H157.901V267.21ZM158.76 268.167L158.62 264.912L156.621 264.998L156.761 268.253L158.76 268.167ZM157.621 263.955H153.876V265.955H157.621V263.955ZM152.878 265.023C152.981 266.529 153.016 268.148 153.016 270.45H155.016C155.016 268.132 154.981 266.461 154.873 264.887L152.878 265.023ZM153.016 270.45V282H155.016V270.45H153.016ZM179.659 282V283H180.839L180.645 281.836L179.659 282ZM166.219 266.075L165.697 265.222L165.039 265.624L165.261 266.362L166.219 266.075ZM167.059 268.875L166.101 269.162L166.48 270.428L167.595 269.719L167.059 268.875ZM175.109 270.87L175.103 271.87L176.109 271.876V270.87H175.109ZM175.389 280.11V279.11H174.904L174.604 279.49L175.389 280.11ZM175.494 280.11L176.483 279.963L176.356 279.11H175.494V280.11ZM175.774 282L174.784 282.147L174.911 283H175.774V282ZM175.074 276.96L174.125 276.644L174.122 276.652L174.12 276.66L175.074 276.96ZM175.214 273.67H176.214V272.693L175.237 272.67L175.214 273.67ZM180.645 281.836C180.484 280.869 180.414 279.431 180.414 277.905H178.414C178.414 279.459 178.483 281.031 178.672 282.164L180.645 281.836ZM180.414 277.905V271.745H178.414V277.905H180.414ZM180.414 271.745C180.414 269.772 179.998 267.716 178.721 266.137C177.411 264.519 175.334 263.57 172.379 263.57V265.57C174.883 265.57 176.323 266.353 177.166 267.395C178.041 268.477 178.414 270.008 178.414 271.745H180.414ZM172.379 263.57C169.517 263.57 167.129 264.347 165.697 265.222L166.74 266.928C167.828 266.263 169.85 265.57 172.379 265.57V263.57ZM165.261 266.362L166.101 269.162L168.016 268.588L167.176 265.788L165.261 266.362ZM167.595 269.719C168.58 269.092 170.141 268.615 171.644 268.615V266.615C169.786 266.615 167.847 267.188 166.522 268.031L167.595 269.719ZM171.644 268.615C172.933 268.615 173.476 269.002 173.728 269.313C174.013 269.663 174.109 270.14 174.109 270.59H176.109C176.109 269.92 175.977 268.909 175.281 268.052C174.553 267.155 173.364 266.615 171.644 266.615V268.615ZM174.109 270.59V270.87H176.109V270.59H174.109ZM175.114 269.87C171.874 269.852 169.13 270.396 167.163 271.612C165.133 272.866 163.994 274.803 163.994 277.31H165.994C165.994 275.512 166.761 274.211 168.214 273.313C169.729 272.377 172.043 271.853 175.103 271.87L175.114 269.87ZM163.994 277.31C163.994 280.416 166.331 283.385 170.349 283.385V281.385C167.506 281.385 165.994 279.384 165.994 277.31H163.994ZM170.349 283.385C172.844 283.385 174.924 282.312 176.173 280.73L174.604 279.49C173.753 280.568 172.263 281.385 170.349 281.385V283.385ZM175.389 281.11H175.494V279.11H175.389V281.11ZM174.504 280.257L174.784 282.147L176.763 281.853L176.483 279.963L174.504 280.257ZM175.774 283H179.659V281H175.774V283ZM174.214 276.015C174.214 276.226 174.185 276.462 174.125 276.644L176.022 277.276C176.172 276.828 176.214 276.364 176.214 276.015H174.214ZM174.12 276.66C173.86 277.485 172.975 278.305 171.714 278.305V280.305C173.882 280.305 175.517 278.885 176.028 277.26L174.12 276.66ZM171.714 278.305C171.211 278.305 170.862 278.164 170.65 277.971C170.454 277.792 170.264 277.469 170.264 276.855H168.264C168.264 277.921 168.616 278.823 169.303 279.449C169.975 280.061 170.852 280.305 171.714 280.305V278.305ZM170.264 276.855C170.264 276.408 170.384 276.095 170.564 275.856C170.753 275.605 171.053 275.374 171.495 275.182C172.403 274.787 173.717 274.636 175.191 274.67L175.237 272.67C173.665 272.634 172.004 272.78 170.698 273.348C170.033 273.637 169.417 274.054 168.966 274.654C168.506 275.265 168.264 276.007 168.264 276.855H170.264ZM174.214 273.67V276.015H176.214V273.67H174.214ZM182.907 281.16L181.941 280.9L181.738 281.654L182.421 282.034L182.907 281.16ZM195.017 277.03H196.017L196.017 277.016L195.017 277.03ZM190.467 271.815L190.809 270.875L190.801 270.873L190.467 271.815ZM193.477 268.63L192.981 269.498L194.099 270.137L194.441 268.896L193.477 268.63ZM194.317 265.585L195.281 265.851L195.493 265.081L194.789 264.704L194.317 265.585ZM183.362 269.925L184.362 269.943L184.362 269.934V269.925H183.362ZM188.052 274.895L188.382 273.951L188.38 273.95L188.052 274.895ZM183.747 278.045L184.266 277.19L183.128 276.499L182.781 277.785L183.747 278.045ZM182.421 282.034C183.852 282.829 185.879 283.35 188.087 283.35V281.35C186.165 281.35 184.482 280.891 183.393 280.286L182.421 282.034ZM188.087 283.35C190.499 283.35 192.478 282.752 193.874 281.622C195.291 280.476 196.017 278.853 196.017 277.03H194.017C194.017 278.287 193.535 279.324 192.616 280.068C191.676 280.828 190.189 281.35 188.087 281.35V283.35ZM196.017 277.016C195.997 275.549 195.56 274.287 194.634 273.236C193.732 272.213 192.43 271.465 190.809 270.875L190.125 272.755C191.584 273.285 192.54 273.885 193.134 274.559C193.704 275.206 194.002 275.991 194.017 277.044L196.017 277.016ZM190.801 270.873C189.71 270.485 189.107 270.205 188.775 269.95C188.627 269.836 188.569 269.753 188.542 269.701C188.517 269.652 188.492 269.577 188.492 269.435H186.492C186.492 269.835 186.568 270.233 186.761 270.612C186.953 270.987 187.232 271.287 187.556 271.536C188.169 272.007 189.054 272.375 190.133 272.757L190.801 270.873ZM188.492 269.435C188.492 269.202 188.572 269.053 188.721 268.936C188.895 268.8 189.249 268.65 189.872 268.65V266.65C188.955 266.65 188.119 266.868 187.488 267.361C186.832 267.875 186.492 268.618 186.492 269.435H188.492ZM189.872 268.65C191.151 268.65 192.344 269.134 192.981 269.498L193.973 267.762C193.14 267.286 191.603 266.65 189.872 266.65V268.65ZM194.441 268.896L195.281 265.851L193.353 265.319L192.513 268.364L194.441 268.896ZM194.789 264.704C193.656 264.097 191.848 263.57 189.802 263.57V265.57C191.536 265.57 193.018 266.023 193.845 266.466L194.789 264.704ZM189.802 263.57C187.629 263.57 185.774 264.216 184.446 265.362C183.11 266.514 182.362 268.129 182.362 269.925H184.362C184.362 268.711 184.856 267.649 185.752 266.876C186.655 266.097 188.02 265.57 189.802 265.57V263.57ZM182.362 269.907C182.316 272.518 184.195 274.614 187.724 275.84L188.38 273.95C185.259 272.866 184.338 271.322 184.362 269.943L182.362 269.907ZM187.722 275.839C188.761 276.203 189.298 276.484 189.579 276.731C189.779 276.907 189.852 277.06 189.852 277.38H191.852C191.852 276.545 191.574 275.823 190.9 275.229C190.306 274.706 189.443 274.322 188.382 273.951L187.722 275.839ZM189.852 277.38C189.852 277.662 189.762 277.821 189.598 277.943C189.391 278.097 188.953 278.27 188.122 278.27V280.27C189.181 280.27 190.108 280.058 190.793 279.547C191.522 279.004 191.852 278.218 191.852 277.38H189.852ZM188.122 278.27C186.787 278.27 185.11 277.702 184.266 277.19L183.228 278.9C184.344 279.578 186.377 280.27 188.122 280.27V278.27ZM182.781 277.785L181.941 280.9L183.872 281.42L184.712 278.305L182.781 277.785ZM198.552 282H197.552V283H198.552V282ZM202.892 282V283H203.892V282H202.892ZM203.067 270.52L203.995 270.891L204.003 270.872L204.01 270.851L203.067 270.52ZM209.682 282H208.682V283H209.682V282ZM213.987 282V283H214.987V282H213.987ZM205.097 265.34L205.571 266.22L205.586 266.212L205.601 266.204L205.097 265.34ZM202.962 267.3V268.3H203.503L203.799 267.846L202.962 267.3ZM202.892 267.3H201.892V268.3H202.892V267.3ZM202.892 257.15H203.892V256.15H202.892V257.15ZM198.552 257.15V256.15H197.552V257.15H198.552ZM198.552 283H202.892V281H198.552V283ZM203.892 282V271.815H201.892V282H203.892ZM203.892 271.815C203.892 271.338 203.932 271.05 203.995 270.891L202.138 270.149C201.922 270.69 201.892 271.312 201.892 271.815H203.892ZM204.01 270.851C204.351 269.881 205.212 269.105 206.392 269.105V267.105C204.212 267.105 202.692 268.569 202.123 270.189L204.01 270.851ZM206.392 269.105C207.279 269.105 207.778 269.427 208.101 269.904C208.467 270.443 208.682 271.297 208.682 272.445H210.682C210.682 271.108 210.441 269.792 209.757 268.782C209.03 267.71 207.885 267.105 206.392 267.105V269.105ZM208.682 272.445V282H210.682V272.445H208.682ZM209.682 283H213.987V281H209.682V283ZM214.987 282V271.955H212.987V282H214.987ZM214.987 271.955C214.987 269.039 214.17 266.917 212.82 265.52C211.473 264.126 209.707 263.57 208.037 263.57V265.57C209.272 265.57 210.48 265.977 211.382 266.91C212.281 267.84 212.987 269.411 212.987 271.955H214.987ZM208.037 263.57C206.781 263.57 205.591 263.894 204.593 264.476L205.601 266.204C206.282 265.806 207.122 265.57 208.037 265.57V263.57ZM204.623 264.46C203.561 265.031 202.738 265.813 202.124 266.754L203.799 267.846C204.236 267.177 204.812 266.629 205.571 266.22L204.623 264.46ZM202.962 266.3H202.892V268.3H202.962V266.3ZM203.892 267.3V257.15H201.892V267.3H203.892ZM202.892 256.15H198.552V258.15H202.892V256.15ZM197.552 257.15V282H199.552V257.15H197.552ZM229.957 282V283H230.957V282H229.957ZM229.747 263.52L229.431 262.571L228.705 262.813L228.749 263.577L229.747 263.52ZM229.852 263.485L230.769 263.087L230.405 262.247L229.536 262.536L229.852 263.485ZM234.087 271.64L233.222 272.142L233.228 272.151L234.087 271.64ZM240.247 282L239.388 282.511L239.678 283H240.247V282ZM244.692 282V283H245.692V282H244.692ZM244.692 258.41H245.692V257.41H244.692V258.41ZM240.702 258.41V257.41H239.702V258.41H240.702ZM241.087 276.435V277.435H242.18L242.083 276.346L241.087 276.435ZM241.017 276.435L240.097 276.826L240.355 277.435H241.017V276.435ZM236.992 268.525L237.85 268.011L237.849 268.009L236.992 268.525ZM230.902 258.41L231.759 257.894L231.467 257.41H230.902V258.41ZM226.002 258.41V257.41H225.002V258.41H226.002ZM226.002 282H225.002V283H226.002V282ZM230.957 282V273.565H228.957V282H230.957ZM230.957 273.565C230.957 269.677 230.922 266.538 230.745 263.463L228.749 263.577C228.922 266.592 228.957 269.683 228.957 273.565H230.957ZM230.063 264.469L230.168 264.434L229.536 262.536L229.431 262.571L230.063 264.469ZM228.935 263.883C230.113 266.596 231.71 269.539 233.222 272.142L234.952 271.138C233.454 268.561 231.902 265.694 230.769 263.087L228.935 263.883ZM233.228 272.151L239.388 282.511L241.107 281.489L234.947 271.129L233.228 272.151ZM240.247 283H244.692V281H240.247V283ZM245.692 282V258.41H243.692V282H245.692ZM244.692 257.41H240.702V259.41H244.692V257.41ZM239.702 258.41V266.635H241.702V258.41H239.702ZM239.702 266.635C239.702 270.261 239.808 273.336 240.091 276.524L242.083 276.346C241.806 273.234 241.702 270.219 241.702 266.635H239.702ZM241.087 275.435H241.017V277.435H241.087V275.435ZM241.938 276.044C240.836 273.449 239.45 270.678 237.85 268.011L236.135 269.039C237.684 271.622 239.029 274.311 240.097 276.826L241.938 276.044ZM237.849 268.009L231.759 257.894L230.045 258.926L236.135 269.041L237.849 268.009ZM230.902 257.41H226.002V259.41H230.902V257.41ZM225.002 258.41V282H227.002V258.41H225.002ZM226.002 283H229.957V281H226.002V283ZM249.654 282H248.654V283H249.654V282ZM253.959 282V283H254.959V282H253.959ZM253.959 271.99V270.99H252.959V271.99H253.959ZM262.639 271.99V272.99H263.639V271.99H262.639ZM262.639 268.455H263.639V267.455H262.639V268.455ZM253.959 268.455H252.959V269.455H253.959V268.455ZM253.959 261.945V260.945H252.959V261.945H253.959ZM263.269 261.945V262.945H264.269V261.945H263.269ZM263.269 258.41H264.269V257.41H263.269V258.41ZM249.654 258.41V257.41H248.654V258.41H249.654ZM249.654 283H253.959V281H249.654V283ZM254.959 282V271.99H252.959V282H254.959ZM253.959 272.99H262.639V270.99H253.959V272.99ZM263.639 271.99V268.455H261.639V271.99H263.639ZM262.639 267.455H253.959V269.455H262.639V267.455ZM254.959 268.455V261.945H252.959V268.455H254.959ZM253.959 262.945H263.269V260.945H253.959V262.945ZM264.269 261.945V258.41H262.269V261.945H264.269ZM263.269 257.41H249.654V259.41H263.269V257.41ZM248.654 258.41V282H250.654V258.41H248.654ZM271.977 282H270.977V283H271.977V282ZM276.282 282V283H277.282V282H276.282ZM276.282 262.015V261.015H275.282V262.015H276.282ZM283.072 262.015V263.015H284.072V262.015H283.072ZM283.072 258.41H284.072V257.41H283.072V258.41ZM265.257 258.41V257.41H264.257V258.41H265.257ZM265.257 262.015H264.257V263.015H265.257V262.015ZM271.977 262.015H272.977V261.015H271.977V262.015ZM271.977 283H276.282V281H271.977V283ZM277.282 282V262.015H275.282V282H277.282ZM276.282 263.015H283.072V261.015H276.282V263.015ZM284.072 262.015V258.41H282.072V262.015H284.072ZM283.072 257.41H265.257V259.41H283.072V257.41ZM264.257 258.41V262.015H266.257V258.41H264.257ZM265.257 263.015H271.977V261.015H265.257V263.015ZM270.977 262.015V282H272.977V262.015H270.977ZM282.404 281.16L281.439 280.9L281.235 281.654L281.918 282.034L282.404 281.16ZM294.514 277.03H295.514L295.514 277.016L294.514 277.03ZM289.964 271.815L290.306 270.875L290.298 270.873L289.964 271.815ZM292.974 268.63L292.478 269.498L293.596 270.137L293.938 268.896L292.974 268.63ZM293.814 265.585L294.778 265.851L294.99 265.081L294.286 264.704L293.814 265.585ZM282.859 269.925L283.859 269.943L283.859 269.934V269.925H282.859ZM287.549 274.895L287.879 273.951L287.877 273.95L287.549 274.895ZM283.244 278.045L283.763 277.19L282.625 276.499L282.279 277.785L283.244 278.045ZM281.918 282.034C283.349 282.829 285.376 283.35 287.584 283.35V281.35C285.662 281.35 283.979 280.891 282.89 280.286L281.918 282.034ZM287.584 283.35C289.997 283.35 291.975 282.752 293.371 281.622C294.788 280.476 295.514 278.853 295.514 277.03H293.514C293.514 278.287 293.032 279.324 292.113 280.068C291.173 280.828 289.687 281.35 287.584 281.35V283.35ZM295.514 277.016C295.494 275.549 295.057 274.287 294.131 273.236C293.229 272.213 291.927 271.465 290.306 270.875L289.622 272.755C291.081 273.285 292.037 273.885 292.631 274.559C293.201 275.206 293.5 275.991 293.514 277.044L295.514 277.016ZM290.298 270.873C289.207 270.485 288.604 270.205 288.272 269.95C288.124 269.836 288.066 269.753 288.039 269.701C288.014 269.652 287.989 269.577 287.989 269.435H285.989C285.989 269.835 286.065 270.233 286.258 270.612C286.45 270.987 286.729 271.287 287.053 271.536C287.667 272.007 288.551 272.375 289.63 272.757L290.298 270.873ZM287.989 269.435C287.989 269.202 288.069 269.053 288.218 268.936C288.392 268.8 288.746 268.65 289.369 268.65V266.65C288.453 266.65 287.616 266.868 286.985 267.361C286.329 267.875 285.989 268.618 285.989 269.435H287.989ZM289.369 268.65C290.648 268.65 291.841 269.134 292.478 269.498L293.47 267.762C292.637 267.286 291.1 266.65 289.369 266.65V268.65ZM293.938 268.896L294.778 265.851L292.85 265.319L292.01 268.364L293.938 268.896ZM294.286 264.704C293.154 264.097 291.345 263.57 289.299 263.57V265.57C291.033 265.57 292.515 266.023 293.342 266.466L294.286 264.704ZM289.299 263.57C287.126 263.57 285.271 264.216 283.943 265.362C282.607 266.514 281.859 268.129 281.859 269.925H283.859C283.859 268.711 284.353 267.649 285.249 266.876C286.152 266.097 287.517 265.57 289.299 265.57V263.57ZM281.859 269.907C281.813 272.518 283.692 274.614 287.221 275.84L287.877 273.95C284.756 272.866 283.835 271.322 283.859 269.943L281.859 269.907ZM287.219 275.839C288.258 276.203 288.795 276.484 289.076 276.731C289.277 276.907 289.349 277.06 289.349 277.38H291.349C291.349 276.545 291.072 275.823 290.397 275.229C289.803 274.706 288.94 274.322 287.879 273.951L287.219 275.839ZM289.349 277.38C289.349 277.662 289.259 277.821 289.095 277.943C288.888 278.097 288.45 278.27 287.619 278.27V280.27C288.678 280.27 289.605 280.058 290.29 279.547C291.019 279.004 291.349 278.218 291.349 277.38H289.349ZM287.619 278.27C286.284 278.27 284.607 277.702 283.763 277.19L282.725 278.9C283.841 279.578 285.874 280.27 287.619 280.27V278.27ZM282.279 277.785L281.439 280.9L283.37 281.42L284.21 278.305L282.279 277.785Z" fill="white"/>
<path d="M43.7477 192.838L45.7137 192.471L45.2598 190.041L42.9785 190.992L43.7477 192.838ZM24.8057 182.212H26.8057V182.201L26.8056 182.19L24.8057 182.212ZM43.4397 171.509L42.619 173.333L44.8228 174.325L45.3848 171.974L43.4397 171.509ZM45.1337 164.425L47.0788 164.89L47.4592 163.3L45.9759 162.611L45.1337 164.425ZM45.0567 199.845L45.8948 201.661L47.3086 201.008L47.0227 199.478L45.0567 199.845ZM42.9785 190.992C41.3226 191.682 39.2749 192.301 36.2787 192.301V196.301C39.9044 196.301 42.4768 195.534 44.5169 194.684L42.9785 190.992ZM36.2787 192.301C33.502 192.301 31.1669 191.366 29.5309 189.73C27.9017 188.101 26.8057 185.615 26.8057 182.212H22.8057C22.8057 186.509 24.2122 190.068 26.7025 192.558C29.186 195.042 32.5873 196.301 36.2787 196.301V192.301ZM26.8056 182.19C26.7718 179.183 27.6993 176.654 29.2834 174.9C30.8475 173.168 33.1795 172.046 36.2787 172.046V168.046C32.1399 168.046 28.6969 169.581 26.3148 172.219C23.9525 174.834 22.7626 178.388 22.8058 182.234L26.8056 182.19ZM36.2787 172.046C39.3269 172.046 41.2796 172.73 42.619 173.333L44.2604 169.685C42.5198 168.902 40.0064 168.046 36.2787 168.046V172.046ZM45.3848 171.974L47.0788 164.89L43.1885 163.96L41.4945 171.044L45.3848 171.974ZM45.9759 162.611C43.5089 161.466 39.6697 160.654 35.9707 160.654V164.654C39.2017 164.654 42.4465 165.382 44.2915 166.239L45.9759 162.611ZM35.9707 160.654C28.927 160.654 23.1746 163.013 19.1797 167.04C15.1929 171.059 13.1037 176.592 13.1037 182.674H17.1037C17.1037 177.514 18.8644 173.037 22.0195 169.857C25.1663 166.684 29.8474 164.654 35.9707 164.654V160.654ZM13.1037 182.674C13.1037 188.935 15.1658 194.252 18.9742 198.006C22.7794 201.757 28.1477 203.77 34.4307 203.77V199.77C29.0097 199.77 24.7145 198.048 21.7822 195.158C18.8531 192.271 17.1037 188.04 17.1037 182.674H13.1037ZM34.4307 203.77C39.3666 203.77 43.5877 202.726 45.8948 201.661L44.2186 198.029C42.5217 198.812 38.8888 199.77 34.4307 199.77V203.77ZM47.0227 199.478L45.7137 192.471L41.7817 193.205L43.0907 200.212L47.0227 199.478ZM68.4208 160.654C62.3099 160.654 56.9249 162.699 53.0619 166.551C49.1951 170.407 47.0168 175.911 47.0168 182.52H51.0168C51.0168 176.809 52.8809 172.38 55.8864 169.383C58.8957 166.382 63.2127 164.654 68.4208 164.654V160.654ZM47.0168 182.52C47.0168 188.995 49.2273 194.361 53.02 198.11C56.8049 201.852 62.0272 203.847 67.8048 203.847V199.847C62.9563 199.847 58.7846 198.184 55.8321 195.266C52.8872 192.354 51.0168 188.057 51.0168 182.52H47.0168ZM67.8048 203.847C72.9895 203.847 78.3052 202.176 82.3495 198.53C86.4319 194.849 89.0548 189.302 89.0548 181.904H85.0548C85.0548 188.289 82.8266 192.714 79.671 195.559C76.4774 198.438 72.1681 199.847 67.8048 199.847V203.847ZM89.0548 181.904C89.0548 175.764 87.0361 170.43 83.3652 166.618C79.6876 162.799 74.4898 160.654 68.4208 160.654V164.654C73.5168 164.654 77.636 166.436 80.4841 169.393C83.3389 172.357 85.0548 176.648 85.0548 181.904H89.0548ZM68.1898 171.584C70.5938 171.584 72.2751 172.773 73.4494 174.704C74.6701 176.712 75.2758 179.461 75.2758 182.135H79.2758C79.2758 178.957 78.5724 175.431 76.8672 172.626C75.1155 169.745 72.2538 167.584 68.1898 167.584V171.584ZM75.2758 182.135C75.2758 185.597 74.4076 188.378 73.0862 190.234C71.7909 192.054 70.0736 192.994 68.1128 192.994V196.994C71.542 196.994 74.4062 195.277 76.3449 192.554C78.2574 189.867 79.2758 186.219 79.2758 182.135H75.2758ZM68.1128 192.994C65.9415 192.994 64.1943 192 62.9212 190.2C61.6116 188.35 60.7958 185.609 60.7958 182.289H56.7958C56.7958 186.207 57.751 189.819 59.6561 192.511C61.5978 195.255 64.509 196.994 68.1128 196.994V192.994ZM60.7958 182.289C60.7958 179.414 61.424 176.644 62.6724 174.664C63.8644 172.774 65.6109 171.584 68.1898 171.584V167.584C64.0696 167.584 61.1192 169.628 59.2889 172.531C57.5151 175.344 56.7958 178.927 56.7958 182.289H60.7958ZM94.8667 201H92.8667V203H94.8667V201ZM104.107 201V203H106.107V201H104.107ZM104.646 175.744L106.492 176.513L106.523 176.438L106.549 176.36L104.646 175.744ZM117.89 201H115.89V203H117.89V201ZM127.13 201V203H129.13V201H127.13ZM127.592 175.359L125.717 174.663L125.678 174.766L125.651 174.874L127.592 175.359ZM140.913 201H138.913V203H140.913V201ZM150.153 201V203H152.153V201H150.153ZM130.056 164.887L131.096 166.595L131.152 166.561L131.207 166.523L130.056 164.887ZM125.436 169.584V171.584H126.54L127.128 170.65L125.436 169.584ZM125.282 169.584L123.418 170.309L123.914 171.584H125.282V169.584ZM103.337 169.045V171.045H104.439L105.028 170.113L103.337 169.045ZM103.106 169.045L101.11 169.184L101.24 171.045H103.106V169.045ZM102.721 163.501L104.716 163.362L104.587 161.501H102.721V163.501ZM94.5587 163.501V161.501H92.4107L92.5638 163.643L94.5587 163.501ZM94.8667 203H104.107V199H94.8667V203ZM106.107 201V178.824H102.107V201H106.107ZM106.107 178.824C106.107 177.915 106.239 177.119 106.492 176.513L102.8 174.975C102.282 176.217 102.107 177.577 102.107 178.824H106.107ZM106.549 176.36C107.235 174.237 109.05 172.354 111.422 172.354V168.354C106.709 168.354 103.75 172.015 102.743 175.128L106.549 176.36ZM111.422 172.354C112.96 172.354 113.953 172.955 114.645 173.978C115.407 175.102 115.89 176.888 115.89 179.286H119.89C119.89 176.448 119.333 173.768 117.958 171.735C116.513 169.601 114.272 168.354 111.422 168.354V172.354ZM115.89 179.286V201H119.89V179.286H115.89ZM117.89 203H127.13V199H117.89V203ZM129.13 201V178.516H125.13V201H129.13ZM129.13 178.516C129.13 177.686 129.313 176.72 129.532 175.844L125.651 174.874C125.408 175.846 125.13 177.19 125.13 178.516H129.13ZM129.467 176.055C130.265 173.906 132.044 172.354 134.214 172.354V168.354C129.915 168.354 126.92 171.422 125.717 174.663L129.467 176.055ZM134.214 172.354C135.844 172.354 136.871 172.965 137.59 174.071C138.394 175.309 138.913 177.343 138.913 180.287H142.913C142.913 176.994 142.353 174.061 140.944 171.892C139.449 169.591 137.127 168.354 134.214 168.354V172.354ZM138.913 180.287V201H142.913V180.287H138.913ZM140.913 203H150.153V199H140.913V203ZM152.153 201V178.901H148.153V201H152.153ZM152.153 178.901C152.153 172.555 150.481 167.952 147.687 164.918C144.885 161.876 141.175 160.654 137.602 160.654V164.654C140.265 164.654 142.831 165.55 144.745 167.628C146.667 169.715 148.153 173.235 148.153 178.901H152.153ZM137.602 160.654C134.147 160.654 131.35 161.531 128.905 163.251L131.207 166.523C132.92 165.317 134.897 164.654 137.602 164.654V160.654ZM129.016 163.179C126.949 164.437 125.196 166.21 123.743 168.518L127.128 170.65C128.293 168.8 129.62 167.493 131.096 166.595L129.016 163.179ZM125.436 167.584H125.282V171.584H125.436V167.584ZM127.146 168.859C125.227 163.926 120.633 160.654 114.887 160.654V164.654C118.996 164.654 122.102 166.926 123.418 170.309L127.146 168.859ZM114.887 160.654C107.662 160.654 103.722 164.69 101.646 167.977L105.028 170.113C106.648 167.548 109.483 164.654 114.887 164.654V160.654ZM103.337 167.045H103.106V171.045H103.337V167.045ZM105.101 168.906L104.716 163.362L100.725 163.64L101.11 169.184L105.101 168.906ZM102.721 161.501H94.5587V165.501H102.721V161.501ZM92.5638 163.643C92.7898 166.808 92.8667 170.372 92.8667 174.666H96.8667C96.8667 170.336 96.7896 166.662 96.5536 163.359L92.5638 163.643ZM92.8667 174.666V201H96.8667V174.666H92.8667ZM169.684 201V203H171.684V201H169.684ZM169.684 163.501H171.684V161.501H169.684V163.501ZM160.136 163.501V161.501H158.136V163.501H160.136ZM160.136 201H158.136V203H160.136V201ZM170.223 153.029H172.223V153.003L172.223 152.976L170.223 153.029ZM171.684 201V163.501H167.684V201H171.684ZM169.684 161.501H160.136V165.501H169.684V161.501ZM158.136 163.501V201H162.136V163.501H158.136ZM160.136 203H169.684V199H160.136V203ZM164.91 145.87C160.668 145.87 157.597 148.979 157.597 153.029H161.597C161.597 151.227 162.838 149.87 164.91 149.87V145.87ZM157.597 153.029C157.597 156.983 160.572 160.111 164.833 160.111V156.111C162.781 156.111 161.597 154.773 161.597 153.029H157.597ZM164.833 160.111C166.951 160.111 168.821 159.388 170.169 158.067C171.515 156.749 172.223 154.951 172.223 153.029H168.223C168.223 153.956 167.892 154.699 167.37 155.21C166.852 155.717 166.026 156.111 164.833 156.111V160.111ZM172.223 152.976C172.172 151.069 171.487 149.274 170.172 147.945C168.846 146.606 167.008 145.87 164.91 145.87V149.87C166.046 149.87 166.826 150.251 167.329 150.759C167.843 151.278 168.197 152.063 168.224 153.082L172.223 152.976ZM179.837 201H177.837V203H179.837V201ZM189.385 201V203H191.385V201H189.385ZM189.77 175.898L191.65 176.581L191.654 176.571L191.657 176.561L189.77 175.898ZM204.323 201H202.323V203H204.323V201ZM213.794 201V203H215.794V201H213.794ZM188.538 169.122V171.122H189.718L190.289 170.089L188.538 169.122ZM188.307 169.122L186.314 169.286L186.465 171.122H188.307V169.122ZM187.845 163.501L189.839 163.337L189.688 161.501H187.845V163.501ZM179.529 163.501V161.501H177.381L177.534 163.643L179.529 163.501ZM179.837 203H189.385V199H179.837V203ZM191.385 201V178.978H187.385V201H191.385ZM191.385 178.978C191.385 177.922 191.471 177.073 191.65 176.581L187.891 175.215C187.454 176.417 187.385 177.878 187.385 178.978H191.385ZM191.657 176.561C192.459 174.279 194.462 172.354 197.162 172.354V168.354C192.317 168.354 189.084 171.819 187.883 175.235L191.657 176.561ZM197.162 172.354C199.125 172.354 200.273 173.083 201.021 174.188C201.85 175.415 202.323 177.325 202.323 179.825H206.323C206.323 176.935 205.796 174.109 204.334 171.948C202.791 169.666 200.358 168.354 197.162 168.354V172.354ZM202.323 179.825V201H206.323V179.825H202.323ZM204.323 203H213.794V199H204.323V203ZM215.794 201V178.747H211.794V201H215.794ZM215.794 178.747C215.794 172.434 213.982 167.853 211.011 164.848C208.05 161.853 204.167 160.654 200.473 160.654V164.654C203.324 164.654 206.102 165.572 208.166 167.66C210.219 169.736 211.794 173.202 211.794 178.747H215.794ZM200.473 160.654C193.431 160.654 188.718 164.662 186.788 168.155L190.289 170.089C191.593 167.73 195.042 164.654 200.473 164.654V160.654ZM188.538 167.122H188.307V171.122H188.538V167.122ZM190.301 168.958L189.839 163.337L185.852 163.665L186.314 169.286L190.301 168.958ZM187.845 161.501H179.529V165.501H187.845V161.501ZM177.534 163.643C177.76 166.808 177.837 170.372 177.837 174.666H181.837C181.837 170.336 181.76 166.662 181.524 163.359L177.534 163.643ZM177.837 174.666V201H181.837V174.666H177.837ZM249.928 163.501V161.501H248.076L247.934 163.348L249.928 163.501ZM249.543 168.506V170.506H251.395L251.537 168.659L249.543 168.506ZM249.389 168.506L247.655 169.503L248.232 170.506H249.389V168.506ZM248.388 195.225V193.225H247.304L246.712 194.134L248.388 195.225ZM248.542 195.225H250.542V193.225H248.542V195.225ZM226.828 206.929L227.832 205.199L225.62 203.915L224.907 206.371L226.828 206.929ZM224.749 214.09L222.828 213.532L222.405 214.991L223.696 215.791L224.749 214.09ZM252.315 212.55L253.638 214.05L253.646 214.042L253.654 214.035L252.315 212.55ZM258.167 163.501L260.163 163.622L260.292 161.501H258.167V163.501ZM248.003 187.987L249.909 188.593L249.933 188.516L249.952 188.437L248.003 187.987ZM248.08 175.975L246.158 176.53L246.161 176.54L246.164 176.55L248.08 175.975ZM247.934 163.348L247.549 168.353L251.537 168.659L251.922 163.654L247.934 163.348ZM249.543 166.506H249.389V170.506H249.543V166.506ZM251.123 167.509C249.026 163.863 245.006 160.654 238.532 160.654V164.654C243.454 164.654 246.21 166.989 247.655 169.503L251.123 167.509ZM238.532 160.654C228.261 160.654 219.515 169.183 219.515 182.443H223.515C223.515 171.063 230.785 164.654 238.532 164.654V160.654ZM219.515 182.443C219.515 193.896 226.774 202.769 237.454 202.769V198.769C229.5 198.769 223.515 192.242 223.515 182.443H219.515ZM237.454 202.769C243.02 202.769 247.518 200.226 250.064 196.316L246.712 194.134C244.945 196.846 241.744 198.769 237.454 198.769V202.769ZM248.388 197.225H248.542V193.225H248.388V197.225ZM246.542 195.225V198.459H250.542V195.225H246.542ZM246.542 198.459C246.542 202.12 245.506 204.357 244.088 205.697C242.649 207.057 240.514 207.778 237.762 207.778V211.778C241.17 211.778 244.425 210.882 246.835 208.604C249.268 206.305 250.542 202.883 250.542 198.459H246.542ZM237.762 207.778C233.62 207.778 229.958 206.434 227.832 205.199L225.824 208.659C228.471 210.196 232.818 211.778 237.762 211.778V207.778ZM224.907 206.371L222.828 213.532L226.67 214.648L228.749 207.487L224.907 206.371ZM223.696 215.791C227.373 218.067 232.878 219.093 237.839 219.093V215.093C233.252 215.093 228.592 214.117 225.802 212.389L223.696 215.791ZM237.839 219.093C243.213 219.093 249.183 217.98 253.638 214.05L250.992 211.05C247.592 214.05 242.782 215.093 237.839 215.093V219.093ZM253.654 214.035C258.214 209.923 259.859 203.586 259.859 195.533H255.859C255.859 203.188 254.27 208.093 250.975 211.065L253.654 214.035ZM259.859 195.533V174.281H255.859V195.533H259.859ZM259.859 174.281C259.859 169.17 260.011 166.131 260.163 163.622L256.17 163.38C256.015 165.953 255.859 169.074 255.859 174.281H259.859ZM258.167 161.501H249.928V165.501H258.167V161.501ZM246.388 184.599C246.388 185.523 246.252 186.682 246.054 187.537L249.952 188.437C250.216 187.29 250.388 185.831 250.388 184.599H246.388ZM246.097 187.381C245.275 189.963 242.949 191.685 240.303 191.685V195.685C244.741 195.685 248.574 192.787 249.909 188.593L246.097 187.381ZM240.303 191.685C237.995 191.685 236.291 190.714 235.104 189.115C233.874 187.456 233.14 185.021 233.14 182.135H229.14C229.14 185.64 230.023 188.98 231.892 191.498C233.804 194.076 236.682 195.685 240.303 195.685V191.685ZM233.14 182.135C233.14 178.649 234.038 176.058 235.344 174.386C236.621 172.75 238.356 171.892 240.38 171.892V167.892C237.09 167.892 234.205 169.344 232.191 171.924C230.205 174.468 229.14 177.998 229.14 182.135H233.14ZM240.38 171.892C243.325 171.892 245.355 173.748 246.158 176.53L250.001 175.42C248.803 171.272 245.442 167.892 240.38 167.892V171.892ZM246.164 176.55C246.315 177.054 246.388 177.758 246.388 178.516H250.388C250.388 177.58 250.306 176.436 249.995 175.4L246.164 176.55ZM246.388 178.516V184.599H250.388V178.516H246.388ZM281.673 199.152L279.742 198.631L279.335 200.141L280.702 200.9L281.673 199.152ZM308.315 190.066H310.315V190.052L310.315 190.038L308.315 190.066ZM298.305 178.593L298.988 176.713L298.981 176.711L298.974 176.708L298.305 178.593ZM304.927 171.586L303.935 173.322L306.17 174.6L306.855 172.118L304.927 171.586ZM306.775 164.887L308.703 165.419L309.128 163.879L307.719 163.124L306.775 164.887ZM282.674 174.435L284.674 174.47L284.674 174.453V174.435H282.674ZM292.992 185.369L293.653 183.481L293.648 183.48L292.992 185.369ZM283.521 192.299L284.559 190.589L282.283 189.208L281.59 191.778L283.521 192.299ZM280.702 200.9C283.815 202.63 288.241 203.77 293.069 203.77V199.77C288.811 199.77 285.075 198.754 282.644 197.404L280.702 200.9ZM293.069 203.77C298.345 203.77 302.649 202.462 305.675 200.014C308.743 197.532 310.315 194.02 310.315 190.066H306.315C306.315 192.888 305.23 195.228 303.159 196.904C301.045 198.614 297.725 199.77 293.069 199.77V203.77ZM310.315 190.038C310.27 186.852 309.323 184.122 307.322 181.852C305.368 179.635 302.538 178.004 298.988 176.713L297.621 180.473C300.848 181.646 302.984 182.98 304.322 184.497C305.612 185.961 306.282 187.736 306.315 190.094L310.315 190.038ZM298.974 176.708C296.573 175.856 295.219 175.232 294.461 174.649C294.117 174.385 293.967 174.181 293.892 174.033C293.82 173.893 293.76 173.696 293.76 173.357H289.76C289.76 174.212 289.921 175.054 290.331 175.855C290.736 176.648 291.328 177.286 292.023 177.821C293.344 178.836 295.262 179.636 297.636 180.478L298.974 176.708ZM293.76 173.357C293.76 172.787 293.962 172.398 294.34 172.102C294.769 171.766 295.595 171.43 296.996 171.43V167.43C295.009 167.43 293.217 167.902 291.875 168.952C290.481 170.043 289.76 171.617 289.76 173.357H293.76ZM296.996 171.43C299.855 171.43 302.514 172.511 303.935 173.322L305.919 169.85C304.105 168.813 300.759 167.43 296.996 167.43V171.43ZM306.855 172.118L308.703 165.419L304.847 164.355L302.999 171.054L306.855 172.118ZM307.719 163.124C305.258 161.805 301.312 160.654 296.842 160.654V164.654C300.688 164.654 303.98 165.659 305.83 166.65L307.719 163.124ZM296.842 160.654C292.1 160.654 288.068 162.063 285.189 164.547C282.294 167.044 280.674 170.542 280.674 174.435H284.674C284.674 171.706 285.787 169.314 287.801 167.576C289.831 165.825 292.883 164.654 296.842 164.654V160.654ZM280.674 174.4C280.576 180.019 284.613 184.576 292.336 187.258L293.648 183.48C286.741 181.08 284.618 177.629 284.674 174.47L280.674 174.4ZM292.331 187.257C294.62 188.058 295.835 188.687 296.483 189.257C296.972 189.688 297.152 190.081 297.152 190.836H301.152C301.152 189.05 300.562 187.518 299.126 186.255C297.849 185.131 295.984 184.297 293.653 183.481L292.331 187.257ZM297.152 190.836C297.152 191.512 296.931 191.924 296.513 192.235C296.01 192.61 294.996 192.994 293.146 192.994V196.994C295.453 196.994 297.443 196.531 298.903 195.443C300.449 194.291 301.152 192.624 301.152 190.836H297.152ZM293.146 192.994C290.168 192.994 286.442 191.733 284.559 190.589L282.483 194.009C284.911 195.483 289.347 196.994 293.146 196.994V192.994ZM281.59 191.778L279.742 198.631L283.604 199.673L285.452 192.82L281.59 191.778ZM333.108 160.654C326.997 160.654 321.612 162.699 317.749 166.551C313.883 170.407 311.704 175.911 311.704 182.52H315.704C315.704 176.809 317.568 172.38 320.574 169.383C323.583 166.382 327.9 164.654 333.108 164.654V160.654ZM311.704 182.52C311.704 188.995 313.915 194.361 317.707 198.11C321.492 201.852 326.715 203.847 332.492 203.847V199.847C327.644 199.847 323.472 198.184 320.52 195.266C317.575 192.354 315.704 188.057 315.704 182.52H311.704ZM332.492 203.847C337.677 203.847 342.993 202.176 347.037 198.53C351.119 194.849 353.742 189.302 353.742 181.904H349.742C349.742 188.289 347.514 192.714 344.359 195.559C341.165 198.438 336.856 199.847 332.492 199.847V203.847ZM353.742 181.904C353.742 175.764 351.724 170.43 348.053 166.618C344.375 162.799 339.177 160.654 333.108 160.654V164.654C338.204 164.654 342.323 166.436 345.172 169.393C348.026 172.357 349.742 176.648 349.742 181.904H353.742ZM332.877 171.584C335.281 171.584 336.963 172.773 338.137 174.704C339.358 176.712 339.963 179.461 339.963 182.135H343.963C343.963 178.957 343.26 175.431 341.555 172.626C339.803 169.745 336.941 167.584 332.877 167.584V171.584ZM339.963 182.135C339.963 185.597 339.095 188.378 337.774 190.234C336.478 192.054 334.761 192.994 332.8 192.994V196.994C336.229 196.994 339.094 195.277 341.032 192.554C342.945 189.867 343.963 186.219 343.963 182.135H339.963ZM332.8 192.994C330.629 192.994 328.882 192 327.609 190.2C326.299 188.35 325.483 185.609 325.483 182.289H321.483C321.483 186.207 322.438 189.819 324.344 192.511C326.285 195.255 329.197 196.994 332.8 196.994V192.994ZM325.483 182.289C325.483 179.414 326.111 176.644 327.36 174.664C328.552 172.774 330.298 171.584 332.877 171.584V167.584C328.757 167.584 325.807 169.628 323.976 172.531C322.203 175.344 321.483 178.927 321.483 182.289H325.483ZM376.571 160.654C370.46 160.654 365.075 162.699 361.212 166.551C357.346 170.407 355.167 175.911 355.167 182.52H359.167C359.167 176.809 361.031 172.38 364.037 169.383C367.046 166.382 371.363 164.654 376.571 164.654V160.654ZM355.167 182.52C355.167 188.995 357.378 194.361 361.17 198.11C364.955 201.852 370.178 203.847 375.955 203.847V199.847C371.107 199.847 366.935 198.184 363.982 195.266C361.038 192.354 359.167 188.057 359.167 182.52H355.167ZM375.955 203.847C381.14 203.847 386.456 202.176 390.5 198.53C394.582 194.849 397.205 189.302 397.205 181.904H393.205C393.205 188.289 390.977 192.714 387.821 195.559C384.628 198.438 380.318 199.847 375.955 199.847V203.847ZM397.205 181.904C397.205 175.764 395.187 170.43 391.516 166.618C387.838 162.799 382.64 160.654 376.571 160.654V164.654C381.667 164.654 385.786 166.436 388.634 169.393C391.489 172.357 393.205 176.648 393.205 181.904H397.205ZM376.34 171.584C378.744 171.584 380.425 172.773 381.6 174.704C382.82 176.712 383.426 179.461 383.426 182.135H387.426C387.426 178.957 386.723 175.431 385.018 172.626C383.266 169.745 380.404 167.584 376.34 167.584V171.584ZM383.426 182.135C383.426 185.597 382.558 188.378 381.237 190.234C379.941 192.054 378.224 192.994 376.263 192.994V196.994C379.692 196.994 382.557 195.277 384.495 192.554C386.408 189.867 387.426 186.219 387.426 182.135H383.426ZM376.263 192.994C374.092 192.994 372.345 192 371.072 190.2C369.762 188.35 368.946 185.609 368.946 182.289H364.946C364.946 186.207 365.901 189.819 367.806 192.511C369.748 195.255 372.659 196.994 376.263 196.994V192.994ZM368.946 182.289C368.946 179.414 369.574 176.644 370.823 174.664C372.015 172.774 373.761 171.584 376.34 171.584V167.584C372.22 167.584 369.27 169.628 367.439 172.531C365.665 175.344 364.946 178.927 364.946 182.289H368.946ZM403.017 201H401.017V203H403.017V201ZM412.565 201V203H414.565V201H412.565ZM412.95 175.898L414.83 176.581L414.833 176.571L414.837 176.561L412.95 175.898ZM427.503 201H425.503V203H427.503V201ZM436.974 201V203H438.974V201H436.974ZM411.718 169.122V171.122H412.898L413.469 170.089L411.718 169.122ZM411.487 169.122L409.494 169.286L409.645 171.122H411.487V169.122ZM411.025 163.501L413.018 163.337L412.867 161.501H411.025V163.501ZM402.709 163.501V161.501H400.561L400.714 163.643L402.709 163.501ZM403.017 203H412.565V199H403.017V203ZM414.565 201V178.978H410.565V201H414.565ZM414.565 178.978C414.565 177.922 414.651 177.073 414.83 176.581L411.07 175.215C410.633 176.417 410.565 177.878 410.565 178.978H414.565ZM414.837 176.561C415.639 174.279 417.642 172.354 420.342 172.354V168.354C415.496 168.354 412.263 171.819 411.063 175.235L414.837 176.561ZM420.342 172.354C422.305 172.354 423.453 173.083 424.2 174.188C425.03 175.415 425.503 177.325 425.503 179.825H429.503C429.503 176.935 428.975 174.109 427.514 171.948C425.971 169.666 423.538 168.354 420.342 168.354V172.354ZM425.503 179.825V201H429.503V179.825H425.503ZM427.503 203H436.974V199H427.503V203ZM438.974 201V178.747H434.974V201H438.974ZM438.974 178.747C438.974 172.434 437.162 167.853 434.19 164.848C431.23 161.853 427.347 160.654 423.653 160.654V164.654C426.504 164.654 429.282 165.572 431.346 167.66C433.398 169.736 434.974 173.202 434.974 178.747H438.974ZM423.653 160.654C416.611 160.654 411.897 164.662 409.968 168.155L413.469 170.089C414.773 167.73 418.222 164.654 423.653 164.654V160.654ZM411.718 167.122H411.487V171.122H411.718V167.122ZM413.48 168.958L413.018 163.337L409.032 163.665L409.494 169.286L413.48 168.958ZM411.025 161.501H402.709V165.501H411.025V161.501ZM400.714 163.643C400.94 166.808 401.017 170.372 401.017 174.666H405.017C405.017 170.336 404.94 166.662 404.704 163.359L400.714 163.643ZM401.017 174.666V201H405.017V174.666H401.017ZM451.779 203.847C454.068 203.847 456.07 202.988 457.491 201.473C458.9 199.971 459.631 197.942 459.631 195.764H455.631C455.631 197.051 455.206 198.063 454.574 198.737C453.955 199.397 453.031 199.847 451.779 199.847V203.847ZM459.631 195.764C459.631 193.509 458.88 191.467 457.444 189.977C456.002 188.482 454.002 187.681 451.779 187.681V191.681C453.02 191.681 453.946 192.112 454.564 192.753C455.188 193.4 455.631 194.4 455.631 195.764H459.631ZM451.779 187.681C447.218 187.681 443.927 191.187 443.927 195.764H447.927C447.927 193.257 449.563 191.681 451.779 191.681V187.681ZM443.927 195.764C443.927 200.229 447.108 203.847 451.779 203.847V199.847C449.52 199.847 447.927 198.229 447.927 195.764H443.927ZM469.976 203.847C472.265 203.847 474.267 202.988 475.689 201.473C477.098 199.971 477.828 197.942 477.828 195.764H473.828C473.828 197.051 473.403 198.063 472.771 198.737C472.152 199.397 471.229 199.847 469.976 199.847V203.847ZM477.828 195.764C477.828 193.509 477.077 191.467 475.641 189.977C474.2 188.482 472.199 187.681 469.976 187.681V191.681C471.217 191.681 472.143 192.112 472.761 192.753C473.385 193.4 473.828 194.4 473.828 195.764H477.828ZM469.976 187.681C465.415 187.681 462.124 191.187 462.124 195.764H466.124C466.124 193.257 467.76 191.681 469.976 191.681V187.681ZM462.124 195.764C462.124 200.229 465.305 203.847 469.976 203.847V199.847C467.717 199.847 466.124 198.229 466.124 195.764H462.124ZM488.173 203.847C490.462 203.847 492.465 202.988 493.886 201.473C495.295 199.971 496.025 197.942 496.025 195.764H492.025C492.025 197.051 491.6 198.063 490.969 198.737C490.349 199.397 489.426 199.847 488.173 199.847V203.847ZM496.025 195.764C496.025 193.509 495.274 191.467 493.838 189.977C492.397 188.482 490.397 187.681 488.173 187.681V191.681C489.414 191.681 490.34 192.112 490.958 192.753C491.582 193.4 492.025 194.4 492.025 195.764H496.025ZM488.173 187.681C483.613 187.681 480.321 191.187 480.321 195.764H484.321C484.321 193.257 485.958 191.681 488.173 191.681V187.681ZM480.321 195.764C480.321 200.229 483.502 203.847 488.173 203.847V199.847C485.914 199.847 484.321 198.229 484.321 195.764H480.321Z" fill="white"/>
<path d="M15.2191 108.631H12.2191V111.262L14.8277 111.605L15.2191 108.631ZM74.7511 99.16L76.6684 101.467L76.6787 101.459L76.6889 101.45L74.7511 99.16ZM74.5051 34.339L72.6992 36.7346L72.7076 36.7409L72.7161 36.7472L74.5051 34.339ZM15.2191 27.205L14.743 24.243L12.2191 24.6486V27.205H15.2191ZM34.0381 40.612L33.3635 37.6888L31.0381 38.2254V40.612H34.0381ZM68.6011 66.196L65.6012 66.1746L65.6011 66.1853V66.196H68.6011ZM40.5571 95.224L40.5788 92.2241L40.5679 92.224H40.5571V95.224ZM34.0381 94.855H31.0381V97.2415L33.3635 97.7782L34.0381 94.855ZM14.8277 111.605C19.6315 112.237 26.6502 112.861 36.4981 112.861V106.861C26.9119 106.861 20.1547 106.255 15.6104 105.657L14.8277 111.605ZM36.4981 112.861C53.0631 112.861 67.1673 109.363 76.6684 101.467L72.8337 96.8527C64.8688 103.471 52.4051 106.861 36.4981 106.861V112.861ZM76.6889 101.45C85.4247 94.0583 91.5271 82.2385 91.5271 65.581H85.5271C85.5271 80.6575 80.0674 90.7317 72.8132 96.8698L76.6889 101.45ZM91.5271 65.581C91.5271 50.1215 85.7622 38.9642 76.2941 31.9308L72.7161 36.7472C80.468 42.5058 85.5271 51.7665 85.5271 65.581H91.5271ZM76.311 31.9434C67.6 25.3767 56.6557 22.483 40.5571 22.483V28.483C55.9464 28.483 65.4201 31.2473 72.6992 36.7346L76.311 31.9434ZM40.5571 22.483C30.9769 22.483 21.8313 23.1038 14.743 24.243L15.6951 30.167C22.3828 29.0922 31.1952 28.483 40.5571 28.483V22.483ZM12.2191 27.205V108.631H18.2191V27.205H12.2191ZM34.7126 43.5352C36.0361 43.2298 38.5066 42.874 42.5251 42.874V36.874C38.1796 36.874 35.2381 37.2562 33.3635 37.6888L34.7126 43.5352ZM42.5251 42.874C50.0313 42.874 55.7406 44.9867 59.5522 48.7206C63.3494 52.4403 65.6584 58.156 65.6012 66.1746L71.601 66.2174C71.6667 57.016 68.9942 49.5707 63.7509 44.4344C58.5221 39.3123 51.1318 36.874 42.5251 36.874V42.874ZM65.6011 66.196C65.6011 75.5479 62.9975 81.965 58.8433 86.0408C54.6802 90.1254 48.5288 92.2817 40.5788 92.2241L40.5353 98.2239C49.5594 98.2893 57.43 95.8331 63.0453 90.3237C68.6697 84.8055 71.6011 76.6471 71.6011 66.196H65.6011ZM40.5571 92.224C38.0601 92.224 35.8962 92.205 34.7127 91.9318L33.3635 97.7782C35.3779 98.243 38.38 98.224 40.5571 98.224V92.224ZM37.0381 94.855V40.612H31.0381V94.855H37.0381ZM150.186 58.693H153.186V55.693H150.186V58.693ZM119.682 58.693H116.682V61.693H119.682V58.693ZM119.682 41.473V38.473H116.682V41.473H119.682ZM152.031 41.473V44.473H155.031V41.473H152.031ZM152.031 26.098H155.031V23.098H152.031V26.098ZM100.863 26.098V23.098H97.8626V26.098H100.863ZM100.863 109H97.8626V112H100.863V109ZM153.753 109V112H156.753V109H153.753ZM153.753 93.625H156.753V90.625H153.753V93.625ZM119.682 93.625H116.682V96.625H119.682V93.625ZM119.682 73.945V70.945H116.682V73.945H119.682ZM150.186 73.945V76.945H153.186V73.945H150.186ZM150.186 55.693H119.682V61.693H150.186V55.693ZM122.682 58.693V41.473H116.682V58.693H122.682ZM119.682 44.473H152.031V38.473H119.682V44.473ZM155.031 41.473V26.098H149.031V41.473H155.031ZM152.031 23.098H100.863V29.098H152.031V23.098ZM97.8626 26.098V109H103.863V26.098H97.8626ZM100.863 112H153.753V106H100.863V112ZM156.753 109V93.625H150.753V109H156.753ZM153.753 90.625H119.682V96.625H153.753V90.625ZM122.682 93.625V73.945H116.682V93.625H122.682ZM119.682 76.945H150.186V70.945H119.682V76.945ZM153.186 73.945V58.693H147.186V73.945H153.186ZM163.369 105.187L160.456 104.47L159.907 106.701L161.918 107.813L163.369 105.187ZM198.793 59.8L197.729 62.605L197.741 62.6095L197.752 62.6138L198.793 59.8ZM212.815 44.056L211.513 46.759L214.749 48.3171L215.706 44.8553L212.815 44.056ZM216.997 28.927L219.888 29.7263L220.574 27.2469L218.228 26.1912L216.997 28.927ZM187.231 74.191L188.242 71.3666L188.23 71.3622L188.217 71.3578L187.231 74.191ZM167.182 89.689L168.549 87.0189L165.174 85.2903L164.269 88.9723L167.182 89.689ZM161.918 107.813C167.131 110.694 177.004 113.23 186.862 113.23V107.23C177.777 107.23 168.954 104.846 164.82 102.561L161.918 107.813ZM186.862 113.23C198.738 113.23 207.861 110.146 214.065 104.875C220.307 99.5719 223.318 92.2831 223.318 84.523H217.318C217.318 90.6619 214.978 96.2266 210.18 100.302C205.346 104.41 197.74 107.23 186.862 107.23V113.23ZM223.318 84.523C223.318 78.0243 221.376 72.4725 217.298 67.8294C213.291 63.2668 207.398 59.7832 199.833 56.9862L197.752 62.6138C204.825 65.2288 209.694 68.2642 212.79 71.7889C215.815 75.233 217.318 79.3367 217.318 84.523H223.318ZM199.857 56.995C194.433 54.9378 190.957 53.4607 188.812 51.9603C187.788 51.2446 187.222 50.6239 186.899 50.077C186.596 49.5635 186.418 48.9635 186.418 48.115H180.418C180.418 49.9109 180.823 51.5865 181.731 53.1255C182.62 54.6312 183.89 55.8402 185.373 56.8772C188.24 58.8823 192.451 60.6032 197.729 62.605L199.857 56.995ZM186.418 48.115C186.418 46.967 186.906 45.8494 188.171 44.9253C189.503 43.9516 191.83 43.12 195.472 43.12V37.12C190.996 37.12 187.296 38.1334 184.63 40.0809C181.898 42.0781 180.418 44.958 180.418 48.115H186.418ZM195.472 43.12C202.992 43.12 208.441 45.2797 211.513 46.759L214.116 41.353C210.546 39.6343 204.187 37.12 195.472 37.12V43.12ZM215.706 44.8553L219.888 29.7263L214.105 28.1277L209.923 43.2567L215.706 44.8553ZM218.228 26.1912C212.938 23.8106 205.631 21.745 195.841 21.745V27.745C204.746 27.745 211.216 29.6154 215.766 31.6628L218.228 26.1912ZM195.841 21.745C185.524 21.745 176.957 24.6023 170.91 29.6156C164.826 34.6589 161.476 41.7473 161.476 49.714H167.476C167.476 43.5357 170.029 38.1396 174.739 34.2346C179.485 30.2997 186.6 27.745 195.841 27.745V21.745ZM161.476 49.714C161.476 63.7448 172.094 72.0969 186.244 77.0241L188.217 71.3578C174.815 66.6911 167.476 59.7912 167.476 49.714H161.476ZM186.22 77.0154C191.165 78.7859 194.213 80.2754 196.013 81.7529C197.612 83.0648 198.13 84.2703 198.13 85.876H204.13C204.13 82.3157 202.68 79.4622 199.82 77.1149C197.161 74.9331 193.26 73.1631 188.242 71.3666L186.22 77.0154ZM198.13 85.876C198.13 87.6263 197.45 88.951 196.044 89.9469C194.516 91.029 191.916 91.855 187.969 91.855V97.855C192.631 97.855 196.612 96.8975 199.512 94.8431C202.534 92.7025 204.13 89.5377 204.13 85.876H198.13ZM187.969 91.855C180.56 91.855 173.28 89.4416 168.549 87.0189L165.814 92.3591C171.17 95.1024 179.388 97.855 187.969 97.855V91.855ZM164.269 88.9723L160.456 104.47L166.282 105.904L170.095 90.4057L164.269 88.9723ZM248.982 109H245.982V112H248.982V109ZM267.801 109V112H270.801V109H267.801ZM267.801 41.842V38.842H264.801V41.842H267.801ZM290.433 41.842V44.842H293.433V41.842H290.433ZM290.433 26.098H293.433V23.098H290.433V26.098ZM226.719 26.098V23.098H223.719V26.098H226.719ZM226.719 41.842H223.719V44.842H226.719V41.842ZM248.982 41.842H251.982V38.842H248.982V41.842ZM248.982 112H267.801V106H248.982V112ZM270.801 109V41.842H264.801V109H270.801ZM267.801 44.842H290.433V38.842H267.801V44.842ZM293.433 41.842V26.098H287.433V41.842H293.433ZM290.433 23.098H226.719V29.098H290.433V23.098ZM223.719 26.098V41.842H229.719V26.098H223.719ZM226.719 44.842H248.982V38.842H226.719V44.842ZM245.982 41.842V109H251.982V41.842H245.982ZM300.377 109H297.377V112H300.377V109ZM318.95 109V112H321.95V109H318.95ZM318.95 76.405V73.405H315.95V76.405H318.95ZM324.608 76.405L324.657 73.4054L324.632 73.405H324.608V76.405ZM338.015 89.689L335.082 90.3176L335.09 90.3548L335.099 90.3918L338.015 89.689ZM343.796 109L341.2 110.503L342.067 112H343.796V109ZM362.984 109V112H367.838L365.668 107.658L362.984 109ZM356.219 85.63L353.326 86.4233L353.328 86.429L356.219 85.63ZM345.149 70.132H342.149V72.1551L344.025 72.9133L345.149 70.132ZM345.149 69.763L344.128 66.9422L342.149 67.6586V69.763H345.149ZM352.16 32.002L354.034 29.6594L354.028 29.6546L354.022 29.6499L352.16 32.002ZM300.377 27.205L299.894 24.2442L297.377 24.6551V27.205H300.377ZM318.95 39.997L318.414 37.0454L315.95 37.4933V39.997H318.95ZM327.437 39.382L327.48 36.3823L327.459 36.382H327.437V39.382ZM318.95 62.875H315.95V65.875H318.95V62.875ZM300.377 112H318.95V106H300.377V112ZM321.95 109V76.405H315.95V109H321.95ZM318.95 79.405H324.608V73.405H318.95V79.405ZM324.56 79.4046C328.046 79.4608 329.945 80.1306 331.276 81.3944C332.72 82.765 334.008 85.3066 335.082 90.3176L340.949 89.0604C339.808 83.7394 338.206 79.7005 335.407 77.0428C332.495 74.2784 328.797 73.4722 324.657 73.4054L324.56 79.4046ZM335.099 90.3918C336.334 95.5186 337.455 99.8194 338.445 103.151C339.405 106.381 340.321 108.985 341.2 110.503L346.393 107.497C345.919 106.678 345.174 104.731 344.197 101.442C343.249 98.2546 342.156 94.0684 340.932 88.9862L335.099 90.3918ZM343.796 112H362.984V106H343.796V112ZM365.668 107.658C365.031 106.386 364.064 103.218 362.865 98.8301C361.738 94.7094 360.38 89.4228 359.111 84.831L353.328 86.429C354.642 91.1852 355.866 95.9846 357.077 100.412C358.214 104.573 359.338 108.416 360.301 110.342L365.668 107.658ZM359.112 84.8367C356.949 76.9456 353.391 70.2279 346.274 67.3507L344.025 72.9133C348.47 74.7101 351.308 79.0624 353.326 86.4233L359.112 84.8367ZM348.149 70.132V69.763H342.149V70.132H348.149ZM346.171 72.5838C354.19 69.6803 362.786 61.48 362.786 49.345H356.786C356.786 58.366 350.377 64.6797 344.128 66.9422L346.171 72.5838ZM362.786 49.345C362.786 40.9347 359.76 34.2396 354.034 29.6594L350.286 34.3446C354.401 37.6364 356.786 42.5033 356.786 49.345H362.786ZM354.022 29.6499C347.298 24.3261 337.823 22.483 325.346 22.483V28.483C337.47 28.483 345.215 30.3299 350.298 34.3541L354.022 29.6499ZM325.346 22.483C315.258 22.483 306.113 23.2288 299.894 24.2442L300.861 30.1658C306.696 29.2131 315.509 28.483 325.346 28.483V22.483ZM297.377 27.205V109H303.377V27.205H297.377ZM319.487 42.9486C320.658 42.7357 323.061 42.382 327.437 42.382V36.382C322.711 36.382 319.949 36.7663 318.414 37.0454L319.487 42.9486ZM327.394 42.3817C331.324 42.4378 334.011 43.3374 335.663 44.6786C337.209 45.9328 338.213 47.8669 338.213 50.944H344.213C344.213 46.3951 342.635 42.6097 339.445 40.0201C336.362 37.5176 332.161 36.4492 327.48 36.3823L327.394 42.3817ZM338.213 50.944C338.213 53.743 337.181 55.8422 335.384 57.3034C333.518 58.8215 330.538 59.875 326.33 59.875V65.875C331.471 65.875 335.932 64.5915 339.17 61.9584C342.478 59.2683 344.213 55.402 344.213 50.944H338.213ZM326.33 59.875H318.95V65.875H326.33V59.875ZM321.95 62.875V39.997H315.95V62.875H321.95ZM409.339 21.745C396.295 21.745 385.388 26.7159 377.766 35.1221C370.169 43.5004 365.995 55.1076 365.995 68.164H371.995C371.995 56.3744 375.755 46.2721 382.21 39.1524C388.641 32.0606 397.906 27.745 409.339 27.745V21.745ZM365.995 68.164C365.995 80.5652 369.775 91.8579 377.012 100.095C384.287 108.375 394.874 113.353 407.986 113.353V107.353C396.498 107.353 387.59 103.044 381.519 96.1345C375.41 89.1806 371.995 79.3788 371.995 68.164H365.995ZM407.986 113.353C420.803 113.353 431.81 108.977 439.603 100.781C447.385 92.5981 451.699 80.8871 451.699 66.688H445.699C445.699 79.6719 441.772 89.7934 435.255 96.6468C428.75 103.488 419.399 107.353 407.986 107.353V113.353ZM451.699 66.688C451.699 54.6625 448.045 43.4332 440.827 35.1643C433.563 26.8442 422.879 21.745 409.339 21.745V27.745C421.26 27.745 430.255 32.1783 436.307 39.1102C442.403 46.0933 445.699 55.8355 445.699 66.688H451.699ZM408.847 42.628C414.16 42.628 418.297 45.2001 421.224 49.5572C424.208 53.9997 425.896 60.2922 425.896 67.303H431.896C431.896 59.4308 430.016 51.8858 426.205 46.2115C422.336 40.4519 416.449 36.628 408.847 36.628V42.628ZM425.896 67.303C425.896 74.9584 424.165 81.3592 421.198 85.749C418.298 90.0402 414.205 92.47 408.97 92.47V98.47C416.404 98.47 422.274 94.8728 426.169 89.1087C429.998 83.4433 431.896 75.7606 431.896 67.303H425.896ZM408.97 92.47C403.734 92.47 399.575 90.1353 396.625 85.9831C393.61 81.7412 391.798 75.4868 391.798 67.795H385.798C385.798 76.3391 387.799 83.9223 391.734 89.4589C395.732 95.0852 401.66 98.47 408.97 98.47V92.47ZM391.798 67.795C391.798 60.1491 393.556 53.7505 396.55 49.3594C399.481 45.0621 403.608 42.628 408.847 42.628V36.628C401.417 36.628 395.52 40.2209 391.593 45.9789C387.73 51.643 385.798 59.3279 385.798 67.795H391.798ZM494.294 109V112H497.294V109H494.294ZM494.294 74.437L491.681 72.9615L491.294 73.6482V74.437H494.294ZM521.599 26.098L524.212 27.5735L526.74 23.098H521.599V26.098ZM500.566 26.098V23.098H498.572L497.8 24.9369L500.566 26.098ZM492.203 46.024L489.436 44.8629L489.433 44.8702L492.203 46.024ZM485.93 61.891V64.891H488.044L488.755 62.9L485.93 61.891ZM485.684 61.891L482.885 62.9722L483.626 64.891H485.684V61.891ZM479.288 46.024L476.527 47.1996L476.53 47.2058L479.288 46.024ZM470.801 26.098L473.561 24.9224L472.784 23.098H470.801V26.098ZM449.398 26.098V23.098H444.39L446.753 27.5136L449.398 26.098ZM475.598 75.052H478.598V74.2997L478.243 73.6364L475.598 75.052ZM475.598 109H472.598V112H475.598V109ZM497.294 109V74.437H491.294V109H497.294ZM496.906 75.9125L524.212 27.5735L518.987 24.6225L491.681 72.9615L496.906 75.9125ZM521.599 23.098H500.566V29.098H521.599V23.098ZM497.8 24.9369L489.436 44.8629L494.969 47.1851L503.333 27.2591L497.8 24.9369ZM489.433 44.8702C486.973 50.7749 484.978 55.6355 483.104 60.882L488.755 62.9C490.571 57.8145 492.512 53.0811 494.972 47.1778L489.433 44.8702ZM485.93 58.891H485.684V64.891H485.93V58.891ZM488.482 60.8098C486.388 55.3916 484.65 50.9216 482.045 44.8422L476.53 47.2058C479.091 53.1804 480.797 57.5664 482.885 62.9722L488.482 60.8098ZM482.048 44.8484L473.561 24.9224L468.04 27.2736L476.527 47.1996L482.048 44.8484ZM470.801 23.098H449.398V29.098H470.801V23.098ZM446.753 27.5136L472.952 76.4676L478.243 73.6364L452.044 24.6824L446.753 27.5136ZM472.598 75.052V109H478.598V75.052H472.598ZM475.598 112H494.294V106H475.598V112ZM524.967 113.353C529.04 113.353 532.609 111.866 535.155 109.219C537.688 106.586 539.037 102.983 539.037 99.037H533.037C533.037 101.61 532.171 103.665 530.83 105.06C529.501 106.442 527.535 107.353 524.967 107.353V113.353ZM539.037 99.037C539.037 94.9933 537.704 91.3566 535.178 88.7096C532.641 86.0506 529.095 84.598 525.09 84.598V90.598C527.603 90.598 529.531 91.4824 530.837 92.8517C532.155 94.2329 533.037 96.3157 533.037 99.037H539.037ZM525.09 84.598C516.806 84.598 511.02 90.8484 511.02 99.037H517.02C517.02 93.9416 520.336 90.598 525.09 90.598V84.598ZM511.02 99.037C511.02 107.102 516.805 113.353 524.967 113.353V107.353C520.336 107.353 517.02 104.01 517.02 99.037H511.02ZM581.887 109V112H584.297L584.816 109.647L581.887 109ZM589.759 73.33L586.839 72.6429L586.834 72.6631L586.829 72.6835L589.759 73.33ZM594.556 47.746V44.746H591.992L591.593 47.2781L594.556 47.746ZM594.802 47.746L597.786 47.436L597.506 44.746H594.802V47.746ZM598.738 73.33L595.791 73.8933L595.793 73.901L595.794 73.9086L598.738 73.33ZM605.749 109L602.805 109.579L603.281 112H605.749V109ZM626.044 109V112H628.368L628.949 109.75L626.044 109ZM647.446 26.098L650.351 26.8479L651.319 23.098H647.446V26.098ZM628.381 26.098V23.098H625.92L625.439 25.5117L628.381 26.098ZM621.616 60.046L618.674 59.4597L618.667 59.4942L618.661 59.5289L621.616 60.046ZM616.819 88.828V91.828H619.445L619.792 89.2245L616.819 88.828ZM616.573 88.828L613.599 89.2245L613.946 91.828H616.573V88.828ZM612.145 61.03L615.092 60.4704L615.092 60.4696L612.145 61.03ZM605.503 26.098L608.45 25.5376L607.986 23.098H605.503V26.098ZM585.577 26.098V23.098H583.133L582.639 25.4912L585.577 26.098ZM578.566 60.046L575.628 59.4392L575.627 59.444L578.566 60.046ZM573.154 89.197V92.197H575.736L576.12 89.644L573.154 89.197ZM572.908 89.197L569.946 89.6761L570.354 92.197H572.908V89.197ZM567.988 60.292L565.037 60.8333L565.039 60.8449L567.988 60.292ZM561.715 26.098L564.666 25.5567L564.214 23.098H561.715V26.098ZM541.666 26.098V23.098H537.87L538.747 26.7909L541.666 26.098ZM561.346 109L558.427 109.693L558.975 112H561.346V109ZM584.816 109.647L592.688 73.9765L586.829 72.6835L578.957 108.353L584.816 109.647ZM592.679 74.0171C594.673 65.5412 596.04 57.5801 597.519 48.2139L591.593 47.2781C590.119 56.6079 588.78 64.3908 586.839 72.6429L592.679 74.0171ZM594.556 50.746H594.802V44.746H594.556V50.746ZM591.818 48.056C592.815 57.6505 594.186 65.495 595.791 73.8933L601.684 72.7667C600.092 64.437 598.757 56.7834 597.786 47.436L591.818 48.056ZM595.794 73.9086L602.805 109.579L608.693 108.421L601.681 72.7514L595.794 73.9086ZM605.749 112H626.044V106H605.749V112ZM628.949 109.75L650.351 26.8479L644.541 25.3481L623.139 108.25L628.949 109.75ZM647.446 23.098H628.381V29.098H647.446V23.098ZM625.439 25.5117L618.674 59.4597L624.558 60.6323L631.323 26.6843L625.439 25.5117ZM618.661 59.5289C616.95 69.3071 615.086 79.1264 613.845 88.4315L619.792 89.2245C621.012 80.0796 622.838 70.4649 624.571 60.5631L618.661 59.5289ZM616.819 85.828H616.573V91.828H616.819V85.828ZM619.547 88.4315C618.311 79.1674 616.95 70.255 615.092 60.4704L609.197 61.5896C611.03 71.239 612.374 80.0386 613.599 89.2245L619.547 88.4315ZM615.092 60.4696L608.45 25.5376L602.556 26.6584L609.198 61.5904L615.092 60.4696ZM605.503 23.098H585.577V29.098H605.503V23.098ZM582.639 25.4912L575.628 59.4392L581.504 60.6528L588.515 26.7048L582.639 25.4912ZM575.627 59.444C573.536 69.654 571.553 79.6854 570.187 88.75L576.12 89.644C577.46 80.7506 579.414 70.856 581.505 60.648L575.627 59.444ZM573.154 86.197H572.908V92.197H573.154V86.197ZM575.869 88.7179C574.518 80.3629 572.79 69.623 570.936 59.7391L565.039 60.8449C566.876 70.641 568.592 81.3031 569.946 89.6761L575.869 88.7179ZM570.939 59.7507L564.666 25.5567L558.764 26.6393L565.037 60.8333L570.939 59.7507ZM561.715 23.098H541.666V29.098H561.715V23.098ZM538.747 26.7909L558.427 109.693L564.265 108.307L544.585 25.4051L538.747 26.7909ZM561.346 112H581.887V106H561.346V112ZM675.758 109H672.758V112H675.758V109ZM694.577 109V112H697.577V109H694.577ZM694.577 41.842V38.842H691.577V41.842H694.577ZM717.209 41.842V44.842H720.209V41.842H717.209ZM717.209 26.098H720.209V23.098H717.209V26.098ZM653.495 26.098V23.098H650.495V26.098H653.495ZM653.495 41.842H650.495V44.842H653.495V41.842ZM675.758 41.842H678.758V38.842H675.758V41.842ZM675.758 112H694.577V106H675.758V112ZM697.577 109V41.842H691.577V109H697.577ZM694.577 44.842H717.209V38.842H694.577V44.842ZM720.209 41.842V26.098H714.209V41.842H720.209ZM717.209 23.098H653.495V29.098H717.209V23.098ZM650.495 26.098V41.842H656.495V26.098H650.495ZM653.495 44.842H675.758V38.842H653.495V44.842ZM672.758 41.842V109H678.758V41.842H672.758ZM727.154 109H724.154V112H727.154V109ZM745.973 109V112H748.973V109H745.973ZM745.973 75.667V72.667H742.973V75.667H745.973ZM775.739 75.667V78.667H778.739V75.667H775.739ZM775.739 60.415H778.739V57.415H775.739V60.415ZM745.973 60.415H742.973V63.415H745.973V60.415ZM745.973 41.473V38.473H742.973V41.473H745.973ZM777.83 41.473V44.473H780.83V41.473H777.83ZM777.83 26.098H780.83V23.098H777.83V26.098ZM727.154 26.098V23.098H724.154V26.098H727.154ZM727.154 112H745.973V106H727.154V112ZM748.973 109V75.667H742.973V109H748.973ZM745.973 78.667H775.739V72.667H745.973V78.667ZM778.739 75.667V60.415H772.739V75.667H778.739ZM775.739 57.415H745.973V63.415H775.739V57.415ZM748.973 60.415V41.473H742.973V60.415H748.973ZM745.973 44.473H777.83V38.473H745.973V44.473ZM780.83 41.473V26.098H774.83V41.473H780.83ZM777.83 23.098H727.154V29.098H777.83V23.098ZM724.154 26.098V109H730.154V26.098H724.154Z" fill="white"/>
<path d="M8.21907 104.631C12.8931 105.246 19.7811 105.861 29.4981 105.861C45.7341 105.861 59.0181 102.417 67.7511 95.16C75.7461 88.395 81.5271 77.448 81.5271 61.581C81.5271 46.944 76.1151 36.735 67.5051 30.339C59.5101 24.312 49.3011 21.483 33.5571 21.483C24.0861 21.483 15.1071 22.098 8.21907 23.205V104.631ZM27.0381 36.612C28.6371 36.243 31.3431 35.874 35.5251 35.874C51.6381 35.874 61.7241 44.976 61.6011 62.196C61.6011 81.999 50.5311 91.347 33.5571 91.224C31.2201 91.224 28.6371 91.224 27.0381 90.855V36.612ZM143.186 54.693H112.682V37.473H145.031V22.098H93.8626V105H146.753V89.625H112.682V69.945H143.186V54.693ZM156.369 101.187C161.043 103.77 170.391 106.23 179.862 106.23C202.617 106.23 213.318 94.422 213.318 80.523C213.318 68.838 206.43 61.212 191.793 55.8C181.092 51.741 176.418 49.404 176.418 44.115C176.418 39.81 180.354 36.12 188.472 36.12C196.59 36.12 202.494 38.457 205.815 40.056L209.997 24.927C205.077 22.713 198.189 20.745 188.841 20.745C169.284 20.745 157.476 31.569 157.476 45.714C157.476 57.768 166.455 65.394 180.231 70.191C190.194 73.758 194.13 76.71 194.13 81.876C194.13 87.288 189.579 90.855 180.969 90.855C172.974 90.855 165.225 88.272 160.182 85.689L156.369 101.187ZM241.982 105H260.801V37.842H283.433V22.098H219.719V37.842H241.982V105ZM293.377 105H311.95V72.405H317.608C325.234 72.528 328.801 75.357 331.015 85.689C333.475 95.898 335.443 102.663 336.796 105H355.984C354.385 101.802 351.802 90.978 349.219 81.63C347.128 74.004 343.93 68.469 338.149 66.132V65.763C345.283 63.18 352.786 55.923 352.786 45.345C352.786 37.719 350.08 31.938 345.16 28.002C339.256 23.328 330.646 21.483 318.346 21.483C308.383 21.483 299.404 22.221 293.377 23.205V105ZM311.95 35.997C313.303 35.751 315.886 35.382 320.437 35.382C329.047 35.505 334.213 39.318 334.213 46.944C334.213 54.201 328.678 58.875 319.33 58.875H311.95V35.997ZM402.339 20.745C377.862 20.745 361.995 39.318 361.995 64.164C361.995 87.78 376.386 106.353 400.986 106.353C425.217 106.353 441.699 89.871 441.699 62.688C441.699 39.81 427.8 20.745 402.339 20.745ZM401.847 35.628C414.762 35.628 421.896 48.42 421.896 63.303C421.896 79.416 414.639 91.47 401.97 91.47C389.424 91.47 381.798 80.031 381.798 63.795C381.798 47.682 389.178 35.628 401.847 35.628ZM487.294 105V70.437L514.6 22.098H493.567L485.203 42.024C482.743 47.928 480.775 52.725 478.93 57.891H478.684C476.593 52.479 474.871 48.051 472.288 42.024L463.801 22.098H442.399L468.598 71.052V105H487.294ZM517.967 106.353C524.609 106.353 529.037 101.556 529.037 95.037C529.037 88.272 524.609 83.598 518.09 83.598C511.571 83.598 507.02 88.395 507.02 95.037C507.02 101.556 511.571 106.353 517.967 106.353ZM574.887 105L582.759 69.33C584.727 60.966 586.08 53.094 587.556 43.746H587.802C588.786 53.217 590.139 60.966 591.738 69.33L598.749 105H619.044L640.446 22.098H621.381L614.616 56.046C612.894 65.886 611.049 75.603 609.819 84.828H609.573C608.343 75.603 606.99 66.747 605.145 57.03L598.503 22.098H578.577L571.566 56.046C569.475 66.255 567.507 76.218 566.154 85.197H565.908C564.555 76.833 562.833 66.132 560.988 56.292L554.715 22.098H534.666L554.346 105H574.887ZM668.758 105H687.577V37.842H710.209V22.098H646.495V37.842H668.758V105ZM720.154 105H738.973V71.667H768.739V56.415H738.973V37.473H770.83V22.098H720.154V105Z" fill="#150035"/>
<path d="M40.7477 190.838C38.8997 191.608 36.5897 192.301 33.2787 192.301C26.8107 192.301 21.8057 187.912 21.8057 180.212C21.7287 173.359 26.0407 168.046 33.2787 168.046C36.6667 168.046 38.8997 168.816 40.4397 169.509L42.1337 162.425C39.9777 161.424 36.4357 160.654 32.9707 160.654C19.8037 160.654 12.1037 169.432 12.1037 180.674C12.1037 192.301 19.7267 199.77 31.4307 199.77C36.1277 199.77 40.0547 198.769 42.0567 197.845L40.7477 190.838ZM65.4208 160.654C54.1018 160.654 46.0168 168.2 46.0168 180.52C46.0168 192.532 54.1788 199.847 64.8048 199.847C74.3528 199.847 84.0548 193.687 84.0548 179.904C84.0548 168.508 76.5858 160.654 65.4208 160.654ZM65.1898 167.584C71.6578 167.584 74.2758 174.283 74.2758 180.135C74.2758 187.681 70.5028 192.994 65.1128 192.994C59.3378 192.994 55.7958 187.527 55.7958 180.289C55.7958 174.052 58.4908 167.584 65.1898 167.584ZM91.8667 199H101.107V176.824C101.107 175.746 101.261 174.668 101.646 173.744C102.493 171.126 104.88 168.354 108.422 168.354C112.811 168.354 114.89 172.05 114.89 177.286V199H124.13V176.516C124.13 175.438 124.361 174.283 124.592 173.359C125.593 170.664 127.98 168.354 131.214 168.354C135.757 168.354 137.913 172.05 137.913 178.287V199H147.153V176.901C147.153 164.889 140.839 160.654 134.602 160.654C131.522 160.654 129.135 161.424 127.056 162.887C125.285 163.965 123.745 165.505 122.436 167.584H122.282C120.665 163.426 116.815 160.654 111.887 160.654C105.573 160.654 102.185 164.119 100.337 167.045H100.106L99.7207 161.501H91.5587C91.7897 164.735 91.8667 168.354 91.8667 172.666V199ZM166.684 199V161.501H157.136V199H166.684ZM161.91 145.87C158.753 145.87 156.597 148.103 156.597 151.029C156.597 153.878 158.676 156.111 161.833 156.111C165.144 156.111 167.223 153.878 167.223 151.029C167.146 148.103 165.144 145.87 161.91 145.87ZM176.837 199H186.385V176.978C186.385 175.9 186.462 174.745 186.77 173.898C187.771 171.049 190.389 168.354 194.162 168.354C199.321 168.354 201.323 172.435 201.323 177.825V199H210.794V176.747C210.794 164.889 204.018 160.654 197.473 160.654C191.236 160.654 187.155 164.196 185.538 167.122H185.307L184.845 161.501H176.529C176.76 164.735 176.837 168.354 176.837 172.666V199ZM246.928 161.501L246.543 166.506H246.389C244.618 163.426 241.23 160.654 235.532 160.654C226.523 160.654 218.515 168.123 218.515 180.443C218.515 191.069 225.137 198.769 234.454 198.769C239.382 198.769 243.232 196.536 245.388 193.225H245.542V196.459C245.542 204.544 240.922 207.778 234.762 207.778C230.219 207.778 226.215 206.315 223.828 204.929L221.749 212.09C224.983 214.092 230.065 215.093 234.839 215.093C239.998 215.093 245.388 214.015 249.315 210.55C253.242 207.008 254.859 201.387 254.859 193.533V172.281C254.859 167.122 255.013 164.042 255.167 161.501H246.928ZM245.388 182.599C245.388 183.677 245.234 184.986 245.003 185.987C243.925 189.375 240.845 191.685 237.303 191.685C231.374 191.685 228.14 186.526 228.14 180.135C228.14 172.512 232.067 167.892 237.38 167.892C241.384 167.892 244.079 170.51 245.08 173.975C245.311 174.745 245.388 175.669 245.388 176.516V182.599ZM278.673 197.152C281.445 198.692 285.526 199.77 290.069 199.77C300.002 199.77 305.315 194.842 305.315 188.066C305.238 182.522 302.081 179.057 295.305 176.593C290.531 174.899 288.76 173.744 288.76 171.357C288.76 169.047 290.608 167.43 293.996 167.43C297.307 167.43 300.31 168.662 301.927 169.586L303.775 162.887C301.619 161.732 298 160.654 293.842 160.654C285.141 160.654 279.674 165.813 279.674 172.435C279.597 176.824 282.677 180.828 289.992 183.369C294.612 184.986 296.152 186.295 296.152 188.836C296.152 191.3 294.304 192.994 290.146 192.994C286.758 192.994 282.677 191.608 280.521 190.299L278.673 197.152ZM330.108 160.654C318.789 160.654 310.704 168.2 310.704 180.52C310.704 192.532 318.866 199.847 329.492 199.847C339.04 199.847 348.742 193.687 348.742 179.904C348.742 168.508 341.273 160.654 330.108 160.654ZM329.877 167.584C336.345 167.584 338.963 174.283 338.963 180.135C338.963 187.681 335.19 192.994 329.8 192.994C324.025 192.994 320.483 187.527 320.483 180.289C320.483 174.052 323.178 167.584 329.877 167.584ZM373.571 160.654C362.252 160.654 354.167 168.2 354.167 180.52C354.167 192.532 362.329 199.847 372.955 199.847C382.503 199.847 392.205 193.687 392.205 179.904C392.205 168.508 384.736 160.654 373.571 160.654ZM373.34 167.584C379.808 167.584 382.426 174.283 382.426 180.135C382.426 187.681 378.653 192.994 373.263 192.994C367.488 192.994 363.946 187.527 363.946 180.289C363.946 174.052 366.641 167.584 373.34 167.584ZM400.017 199H409.565V176.978C409.565 175.9 409.642 174.745 409.95 173.898C410.951 171.049 413.569 168.354 417.342 168.354C422.501 168.354 424.503 172.435 424.503 177.825V199H433.974V176.747C433.974 164.889 427.198 160.654 420.653 160.654C414.416 160.654 410.335 164.196 408.718 167.122H408.487L408.025 161.501H399.709C399.94 164.735 400.017 168.354 400.017 172.666V199ZM448.779 199.847C452.321 199.847 454.631 197.229 454.631 193.764C454.631 190.145 452.244 187.681 448.779 187.681C445.391 187.681 442.927 190.222 442.927 193.764C442.927 197.229 445.314 199.847 448.779 199.847ZM466.976 199.847C470.518 199.847 472.828 197.229 472.828 193.764C472.828 190.145 470.441 187.681 466.976 187.681C463.588 187.681 461.124 190.222 461.124 193.764C461.124 197.229 463.511 199.847 466.976 199.847ZM485.173 199.847C488.715 199.847 491.025 197.229 491.025 193.764C491.025 190.145 488.638 187.681 485.173 187.681C481.785 187.681 479.321 190.222 479.321 193.764C479.321 197.229 481.708 199.847 485.173 199.847Z" fill="#150035"/>
<path d="M11.7462 280.93C13.1462 281.105 15.0362 281.245 17.5562 281.245C22.1412 281.245 25.8862 280.16 28.2312 278.025C30.4712 275.995 31.9062 272.845 31.9062 268.645C31.9062 264.62 30.5062 261.82 28.2312 259.965C26.0612 258.145 23.0162 257.235 18.6062 257.235C16.0512 257.235 13.6362 257.41 11.7462 257.725V280.93ZM16.0512 260.84C16.6462 260.7 17.6262 260.595 18.9912 260.595C24.3812 260.595 27.3912 263.57 27.3562 268.785C27.3562 274.77 24.0312 277.85 18.4312 277.815C17.5562 277.815 16.6462 277.815 16.0512 277.71V260.84ZM49.9178 273.685C49.9878 273.3 50.0578 272.67 50.0578 271.865C50.0578 268.12 48.2378 263.57 42.7078 263.57C37.2478 263.57 34.3778 268.015 34.3778 272.74C34.3778 277.955 37.6328 281.35 43.1628 281.35C45.6128 281.35 47.6428 280.895 49.1128 280.3L48.4828 277.325C47.1878 277.815 45.7528 278.095 43.7578 278.095C41.0278 278.095 38.6128 276.765 38.5078 273.685H49.9178ZM38.5078 270.675C38.6828 268.925 39.8028 266.51 42.4628 266.51C45.3328 266.51 46.0328 269.1 45.9978 270.675H38.5078ZM52.4597 280.16C53.7197 280.86 55.5747 281.35 57.6397 281.35C62.1547 281.35 64.5697 279.11 64.5697 276.03C64.5347 273.51 63.0997 271.935 60.0197 270.815C57.8497 270.045 57.0447 269.52 57.0447 268.435C57.0447 267.385 57.8847 266.65 59.4247 266.65C60.9297 266.65 62.2947 267.21 63.0297 267.63L63.8697 264.585C62.8897 264.06 61.2447 263.57 59.3547 263.57C55.3997 263.57 52.9147 265.915 52.9147 268.925C52.8797 270.92 54.2797 272.74 57.6047 273.895C59.7047 274.63 60.4047 275.225 60.4047 276.38C60.4047 277.5 59.5647 278.27 57.6747 278.27C56.1347 278.27 54.2797 277.64 53.2997 277.045L52.4597 280.16ZM68.8394 260.105V263.955H66.3894V267.175H68.8394V275.19C68.8394 277.43 69.2594 278.97 70.1694 279.95C70.9744 280.825 72.3044 281.35 73.8794 281.35C75.2444 281.35 76.3644 281.175 76.9944 280.93L76.9244 277.64C76.5394 277.745 75.9794 277.85 75.2444 277.85C73.5994 277.85 73.0394 276.765 73.0394 274.7V267.175H77.1344V263.955H73.0394V259.09L68.8394 260.105ZM80.3749 281H84.6799V272.18C84.6799 271.69 84.7499 271.235 84.8199 270.85C85.2049 268.925 86.6049 267.595 88.6699 267.595C89.1949 267.595 89.5799 267.665 89.9299 267.735V263.675C89.5799 263.605 89.3349 263.57 88.9149 263.57C87.0949 263.57 85.0999 264.795 84.2599 267.21H84.1199L83.9799 263.955H80.2349C80.3399 265.495 80.3749 267.14 80.3749 269.45V281ZM100.278 263.57C95.1329 263.57 91.4579 267 91.4579 272.6C91.4579 278.06 95.1679 281.385 99.9979 281.385C104.338 281.385 108.748 278.585 108.748 272.32C108.748 267.14 105.353 263.57 100.278 263.57ZM100.173 266.72C103.113 266.72 104.303 269.765 104.303 272.425C104.303 275.855 102.588 278.27 100.138 278.27C97.5129 278.27 95.9029 275.785 95.9029 272.495C95.9029 269.66 97.1279 266.72 100.173 266.72ZM109.995 263.955L116.225 279.6C116.435 280.02 116.47 280.265 116.47 280.44C116.47 280.65 116.365 280.895 116.19 281.21C115.595 282.365 114.65 283.38 113.845 283.905C112.97 284.535 112.06 284.92 111.325 285.095L112.305 288.735C113.39 288.595 115.14 288.035 116.82 286.53C118.85 284.78 120.425 281.945 122.77 275.575L127.04 263.955H122.42L119.76 273.055C119.445 274.175 119.13 275.435 118.85 276.415H118.745C118.5 275.435 118.15 274.14 117.8 273.09L114.72 263.955H109.995ZM140.06 281H144.365V261.015H151.155V257.41H133.34V261.015H140.06V281ZM152.016 281H156.321V272.18C156.321 271.69 156.391 271.235 156.461 270.85C156.846 268.925 158.246 267.595 160.311 267.595C160.836 267.595 161.221 267.665 161.571 267.735V263.675C161.221 263.605 160.976 263.57 160.556 263.57C158.736 263.57 156.741 264.795 155.901 267.21H155.761L155.621 263.955H151.876C151.981 265.495 152.016 267.14 152.016 269.45V281ZM177.659 281C177.484 279.95 177.414 278.445 177.414 276.905V270.745C177.414 267.035 175.839 263.57 170.379 263.57C167.684 263.57 165.479 264.305 164.219 265.075L165.059 267.875C166.214 267.14 167.964 266.615 169.644 266.615C172.654 266.615 173.109 268.47 173.109 269.59V269.87C166.809 269.835 162.994 272.005 162.994 276.31C162.994 278.9 164.919 281.385 168.349 281.385C170.554 281.385 172.339 280.44 173.389 279.11H173.494L173.774 281H177.659ZM173.214 275.015C173.214 275.295 173.179 275.645 173.074 275.96C172.689 277.185 171.429 278.305 169.714 278.305C168.349 278.305 167.264 277.535 167.264 275.855C167.264 273.265 170.169 272.6 173.214 272.67V275.015ZM180.907 280.16C182.167 280.86 184.022 281.35 186.087 281.35C190.602 281.35 193.017 279.11 193.017 276.03C192.982 273.51 191.547 271.935 188.467 270.815C186.297 270.045 185.492 269.52 185.492 268.435C185.492 267.385 186.332 266.65 187.872 266.65C189.377 266.65 190.742 267.21 191.477 267.63L192.317 264.585C191.337 264.06 189.692 263.57 187.802 263.57C183.847 263.57 181.362 265.915 181.362 268.925C181.327 270.92 182.727 272.74 186.052 273.895C188.152 274.63 188.852 275.225 188.852 276.38C188.852 277.5 188.012 278.27 186.122 278.27C184.582 278.27 182.727 277.64 181.747 277.045L180.907 280.16ZM196.552 281H200.892V270.815C200.892 270.325 200.927 269.87 201.067 269.52C201.522 268.225 202.712 267.105 204.392 267.105C206.772 267.105 207.682 268.96 207.682 271.445V281H211.987V270.955C211.987 265.495 208.942 263.57 206.037 263.57C204.952 263.57 203.937 263.85 203.097 264.34C202.187 264.83 201.487 265.495 200.962 266.3H200.892V256.15H196.552V281ZM227.957 281V272.565C227.957 268.68 227.922 265.565 227.747 262.52L227.852 262.485C229.007 265.145 230.582 268.05 232.087 270.64L238.247 281H242.692V257.41H238.702V265.635C238.702 269.24 238.807 272.285 239.087 275.435H239.017C237.932 272.88 236.567 270.15 234.992 267.525L228.902 257.41H224.002V281H227.957ZM247.654 281H251.959V270.99H260.639V267.455H251.959V260.945H261.269V257.41H247.654V281ZM269.977 281H274.282V261.015H281.072V257.41H263.257V261.015H269.977V281ZM280.404 280.16C281.664 280.86 283.519 281.35 285.584 281.35C290.099 281.35 292.514 279.11 292.514 276.03C292.479 273.51 291.044 271.935 287.964 270.815C285.794 270.045 284.989 269.52 284.989 268.435C284.989 267.385 285.829 266.65 287.369 266.65C288.874 266.65 290.239 267.21 290.974 267.63L291.814 264.585C290.834 264.06 289.189 263.57 287.299 263.57C283.344 263.57 280.859 265.915 280.859 268.925C280.824 270.92 282.224 272.74 285.549 273.895C287.649 274.63 288.349 275.225 288.349 276.38C288.349 277.5 287.509 278.27 285.619 278.27C284.079 278.27 282.224 277.64 281.244 277.045L280.404 280.16Z" fill="#150035"/>
</svg>
