<svg width="230" height="116" viewBox="0 0 230 116" fill="none" xmlns="http://www.w3.org/2000/svg">
<path d="M4.69827 31.892H3.69827V32.769L4.56781 32.8835L4.69827 31.892ZM22.1223 29.12L22.7614 29.8891L22.7682 29.8834L22.1223 29.12ZM22.0503 10.148L21.4483 10.9465L21.4539 10.9507L22.0503 10.148ZM4.69827 8.06L4.53959 7.07267L3.69827 7.20788V8.06H4.69827ZM10.2063 11.984L9.98141 11.0096L9.20627 11.1885V11.984H10.2063ZM20.3223 19.472L19.3223 19.4649V19.472H20.3223ZM12.1143 27.968L12.1215 26.968H12.1143V27.968ZM10.2063 27.86H9.20627V28.6555L9.98141 28.8344L10.2063 27.86ZM4.56781 32.8835C5.97907 33.0691 8.03865 33.252 10.9263 33.252V31.252C8.12588 31.252 6.15346 31.0749 4.82872 30.9005L4.56781 32.8835ZM10.9263 33.252C15.7879 33.252 19.9494 32.2259 22.7614 29.8891L21.4831 28.3509C19.1832 30.2621 15.5686 31.252 10.9263 31.252V33.252ZM22.7682 29.8834C25.3552 27.6944 27.1543 24.1995 27.1543 19.292H25.1543C25.1543 23.6725 23.5694 26.5856 21.4763 28.3566L22.7682 29.8834ZM27.1543 19.292C27.1543 14.7338 25.4526 11.4297 22.6466 9.34525L21.4539 10.9507C23.6879 12.6103 25.1543 15.2822 25.1543 19.292H27.1543ZM22.6522 9.34947C20.0736 7.40557 16.8405 6.556 12.1143 6.556V8.556C16.6041 8.556 19.3469 9.36242 21.4483 10.9465L22.6522 9.34947ZM12.1143 6.556C9.30589 6.556 6.62236 6.73794 4.53959 7.07267L4.85694 9.04733C6.80618 8.73406 9.37865 8.556 12.1143 8.556V6.556ZM3.69827 8.06V31.892H5.69827V8.06H3.69827ZM10.4311 12.9584C10.8073 12.8716 11.5208 12.768 12.6903 12.768V10.768C11.4118 10.768 10.5413 10.8804 9.98141 11.0096L10.4311 12.9584ZM12.6903 12.768C14.8648 12.768 16.5017 13.3797 17.5885 14.4444C18.6705 15.5043 19.3389 17.142 19.3223 19.4649L21.3222 19.4791C21.3417 16.762 20.5521 14.5477 18.988 13.0156C17.4288 11.4883 15.2317 10.768 12.6903 10.768V12.768ZM19.3223 19.472C19.3223 22.1868 18.5669 24.0296 17.3809 25.1932C16.192 26.3597 14.4265 26.9847 12.1215 26.968L12.107 28.968C14.77 28.9873 17.1086 28.2623 18.7816 26.6208C20.4576 24.9764 21.3223 22.5532 21.3223 19.472H19.3223ZM12.1143 26.968C11.377 26.968 10.7606 26.9617 10.4311 26.8856L9.98141 28.8344C10.5879 28.9743 11.4836 28.968 12.1143 28.968V26.968ZM11.2063 27.86V11.984H9.20627V27.86H11.2063ZM44.2007 17.276H45.2007V16.276H44.2007V17.276ZM35.2727 17.276H34.2727V18.276H35.2727V17.276ZM35.2727 12.236V11.236H34.2727V12.236H35.2727ZM44.7407 12.236V13.236H45.7407V12.236H44.7407ZM44.7407 7.736H45.7407V6.736H44.7407V7.736ZM29.7647 7.736V6.736H28.7647V7.736H29.7647ZM29.7647 32H28.7647V33H29.7647V32ZM45.2447 32V33H46.2447V32H45.2447ZM45.2447 27.5H46.2447V26.5H45.2447V27.5ZM35.2727 27.5H34.2727V28.5H35.2727V27.5ZM35.2727 21.74V20.74H34.2727V21.74H35.2727ZM44.2007 21.74V22.74H45.2007V21.74H44.2007ZM44.2007 16.276H35.2727V18.276H44.2007V16.276ZM36.2727 17.276V12.236H34.2727V17.276H36.2727ZM35.2727 13.236H44.7407V11.236H35.2727V13.236ZM45.7407 12.236V7.736H43.7407V12.236H45.7407ZM44.7407 6.736H29.7647V8.736H44.7407V6.736ZM28.7647 7.736V32H30.7647V7.736H28.7647ZM29.7647 33H45.2447V31H29.7647V33ZM46.2447 32V27.5H44.2447V32H46.2447ZM45.2447 26.5H35.2727V28.5H45.2447V26.5ZM36.2727 27.5V21.74H34.2727V27.5H36.2727ZM35.2727 22.74H44.2007V20.74H35.2727V22.74ZM45.2007 21.74V17.276H43.2007V21.74H45.2007ZM48.0591 30.884L47.0881 30.6451L46.9051 31.3888L47.5755 31.7592L48.0591 30.884ZM58.4271 17.6L58.0725 18.535L58.0803 18.5379L58.4271 17.6ZM62.5311 12.992L62.0973 13.893L63.176 14.4124L63.495 13.2584L62.5311 12.992ZM63.7551 8.564L64.719 8.83043L64.9475 8.00395L64.1655 7.65208L63.7551 8.564ZM55.0431 21.812L55.3802 20.8705L55.372 20.8676L55.0431 21.812ZM49.1751 26.348L49.631 25.458L48.5061 24.8818L48.2041 26.1091L49.1751 26.348ZM47.5755 31.7592C49.1232 32.6146 52.0343 33.36 54.9351 33.36V31.36C52.292 31.36 49.731 30.6654 48.5428 30.0088L47.5755 31.7592ZM54.9351 33.36C58.4315 33.36 61.1323 32.4521 62.9761 30.8856C64.8324 29.3085 65.7271 27.1402 65.7271 24.836H63.7271C63.7271 26.5998 63.0559 28.1935 61.6812 29.3614C60.294 30.5399 58.0988 31.36 54.9351 31.36V33.36ZM65.7271 24.836C65.7271 22.9073 65.15 21.2529 63.935 19.8696C62.7435 18.5131 60.998 17.4844 58.7739 16.6621L58.0803 18.5379C60.1403 19.2996 61.5447 20.1789 62.4323 21.1894C63.2963 22.1731 63.7271 23.3447 63.7271 24.836H65.7271ZM58.7818 16.665C57.1914 16.0618 56.189 15.6344 55.5758 15.2055C55.2856 15.0026 55.1341 14.8329 55.0511 14.6923C54.9748 14.5628 54.9271 14.4091 54.9271 14.18H52.9271C52.9271 14.7249 53.0505 15.2372 53.3285 15.7085C53.6 16.1686 53.9862 16.5344 54.4295 16.8445C55.2833 17.4416 56.5308 17.9502 58.0725 18.535L58.7818 16.665ZM54.9271 14.18C54.9271 13.8848 55.0499 13.5936 55.3902 13.3449C55.753 13.0797 56.4062 12.84 57.4551 12.84V10.84C56.1281 10.84 55.0172 11.1403 54.2101 11.7301C53.3804 12.3364 52.9271 13.2152 52.9271 14.18H54.9271ZM57.4551 12.84C59.6319 12.84 61.2082 13.4649 62.0973 13.893L62.965 12.091C61.9101 11.5831 60.0303 10.84 57.4551 10.84V12.84ZM63.495 13.2584L64.719 8.83043L62.7913 8.29757L61.5673 12.7256L63.495 13.2584ZM64.1655 7.65208C62.6021 6.94854 60.4466 6.34 57.5631 6.34V8.34C60.1517 8.34 62.0282 8.88346 63.3448 9.47592L64.1655 7.65208ZM57.5631 6.34C54.5217 6.34 51.9847 7.18243 50.1884 8.67166C48.3801 10.1709 47.3831 12.2799 47.3831 14.648H49.3831C49.3831 12.8761 50.1142 11.3311 51.4649 10.2113C52.8276 9.08157 54.8806 8.34 57.5631 8.34V6.34ZM47.3831 14.648C47.3831 18.8349 50.5576 21.309 54.7143 22.7564L55.372 20.8676C51.4647 19.507 49.3831 17.5171 49.3831 14.648H47.3831ZM54.7061 22.7535C56.152 23.2711 57.0268 23.7014 57.5362 24.1195C57.9785 24.4824 58.1111 24.8018 58.1111 25.232H60.1111C60.1111 24.1502 59.6678 23.2816 58.805 22.5735C58.0095 21.9206 56.8503 21.3969 55.3802 20.8705L54.7061 22.7535ZM58.1111 25.232C58.1111 25.7054 57.9308 26.0558 57.5521 26.324C57.1329 26.6209 56.4 26.86 55.2591 26.86V28.86C56.6383 28.86 57.8313 28.5771 58.7082 27.956C59.6255 27.3062 60.1111 26.3426 60.1111 25.232H58.1111ZM55.2591 26.86C53.1144 26.86 51.0027 26.1605 49.631 25.458L48.7193 27.238C50.2995 28.0475 52.7239 28.86 55.2591 28.86V26.86ZM48.2041 26.1091L47.0881 30.6451L49.0302 31.1229L50.1462 26.5869L48.2041 26.1091ZM73.1165 32H72.1165V33H73.1165V32ZM78.6245 32V33H79.6245V32H78.6245ZM78.6245 12.344V11.344H77.6245V12.344H78.6245ZM85.2486 12.344V13.344H86.2486V12.344H85.2486ZM85.2486 7.736H86.2486V6.736H85.2486V7.736ZM66.6005 7.736V6.736H65.6005V7.736H66.6005ZM66.6005 12.344H65.6005V13.344H66.6005V12.344ZM73.1165 12.344H74.1165V11.344H73.1165V12.344ZM73.1165 33H78.6245V31H73.1165V33ZM79.6245 32V12.344H77.6245V32H79.6245ZM78.6245 13.344H85.2486V11.344H78.6245V13.344ZM86.2486 12.344V7.736H84.2486V12.344H86.2486ZM85.2486 6.736H66.6005V8.736H85.2486V6.736ZM65.6005 7.736V12.344H67.6005V7.736H65.6005ZM66.6005 13.344H73.1165V11.344H66.6005V13.344ZM72.1165 12.344V32H74.1165V12.344H72.1165ZM88.1592 32H87.1592V33H88.1592V32ZM93.5952 32V33H94.5952V32H93.5952ZM93.5952 22.46V21.46H92.5952V22.46H93.5952ZM95.2512 22.46L95.2673 21.4601L95.2593 21.46H95.2512V22.46ZM99.1752 26.348L98.1974 26.5575L98.2001 26.5699L98.203 26.5823L99.1752 26.348ZM100.867 32L100.002 32.501L100.291 33H100.867V32ZM106.483 32V33H108.101L107.378 31.5528L106.483 32ZM104.503 25.16L103.539 25.4244L103.539 25.4263L104.503 25.16ZM101.263 20.624H100.263V21.2984L100.888 21.5511L101.263 20.624ZM101.263 20.516L100.923 19.5757L100.263 19.8145V20.516H101.263ZM103.315 9.464L103.94 8.68312L103.936 8.67995L103.315 9.464ZM88.1592 8.06L87.9981 7.07307L87.1592 7.21002V8.06H88.1592ZM93.5952 11.804L93.4163 10.8201L92.5952 10.9694V11.804H93.5952ZM96.0792 11.624L96.0935 10.6241L96.0863 10.624H96.0792V11.624ZM93.5952 18.5H92.5952V19.5H93.5952V18.5ZM88.1592 33H93.5952V31H88.1592V33ZM94.5952 32V22.46H92.5952V32H94.5952ZM93.5952 23.46H95.2512V21.46H93.5952V23.46ZM95.2351 23.4599C96.2421 23.4761 96.7612 23.6694 97.1187 24.0088C97.5138 24.3837 97.8845 25.0972 98.1974 26.5575L100.153 26.1385C99.8179 24.5748 99.3427 23.3623 98.4957 22.5582C97.6112 21.7186 96.4923 21.4799 95.2673 21.4601L95.2351 23.4599ZM98.203 26.5823C98.5648 28.0837 98.8935 29.3448 99.1841 30.3229C99.4647 31.2669 99.7363 32.0424 100.002 32.501L101.733 31.499C101.602 31.2736 101.388 30.7171 101.101 29.7531C100.825 28.8232 100.506 27.6003 100.147 26.1137L98.203 26.5823ZM100.867 33H106.483V31H100.867V33ZM107.378 31.5528C107.198 31.1935 106.918 30.2802 106.566 28.9913C106.238 27.7915 105.838 26.2343 105.467 24.8937L103.539 25.4263C103.925 26.8217 104.281 28.2165 104.637 29.5187C104.968 30.7318 105.3 31.8705 105.589 32.4472L107.378 31.5528ZM105.468 24.8956C104.831 22.5752 103.775 20.561 101.638 19.6969L100.888 21.5511C102.135 22.055 102.951 23.2808 103.539 25.4244L105.468 24.8956ZM102.263 20.624V20.516H100.263V20.624H102.263ZM101.604 21.4563C103.987 20.5934 106.547 18.155 106.547 14.54H104.547C104.547 17.117 102.716 18.9266 100.923 19.5757L101.604 21.4563ZM106.547 14.54C106.547 12.0466 105.648 10.0499 103.94 8.68313L102.691 10.2449C103.862 11.1821 104.547 12.5694 104.547 14.54H106.547ZM103.936 8.67995C101.934 7.09538 99.126 6.556 95.4672 6.556V8.556C99.0085 8.556 101.24 9.09662 102.695 10.248L103.936 8.67995ZM95.4672 6.556C92.5093 6.556 89.8261 6.77462 87.9981 7.07307L88.3203 9.04693C90.0203 8.76938 92.5931 8.556 95.4672 8.556V6.556ZM87.1592 8.06V32H89.1592V8.06H87.1592ZM93.7741 12.7879C94.1094 12.7269 94.8055 12.624 96.0792 12.624V10.624C94.6889 10.624 93.873 10.7371 93.4163 10.8201L93.7741 12.7879ZM96.0649 12.6239C97.1998 12.6401 97.9555 12.9 98.41 13.2689C98.8288 13.6089 99.1112 14.1373 99.1112 15.008H101.111C101.111 13.6467 100.638 12.5011 99.6704 11.7161C98.739 10.96 97.4786 10.6439 96.0935 10.6241L96.0649 12.6239ZM99.1112 15.008C99.1112 15.7935 98.8234 16.372 98.3283 16.7747C97.8098 17.1963 96.9677 17.5 95.7552 17.5V19.5C97.2787 19.5 98.6146 19.1197 99.5901 18.3263C100.589 17.514 101.111 16.3465 101.111 15.008H99.1112ZM95.7552 17.5H93.5952V19.5H95.7552V17.5ZM94.5952 18.5V11.804H92.5952V18.5H94.5952ZM120.05 6.34C116.2 6.34 112.974 7.80821 110.719 10.2953C108.472 12.773 107.242 16.2009 107.242 20.048H109.242C109.242 16.6231 110.334 13.697 112.201 11.6387C114.059 9.58979 116.737 8.34 120.05 8.34V6.34ZM107.242 20.048C107.242 23.7017 108.356 27.0372 110.497 29.474C112.651 31.9255 115.784 33.396 119.654 33.396V31.396C116.325 31.396 113.752 30.1485 112 28.154C110.235 26.1448 109.242 23.3063 109.242 20.048H107.242ZM119.654 33.396C123.434 33.396 126.689 32.1048 128.997 29.6786C131.3 27.2565 132.57 23.7965 132.57 19.616H130.57C130.57 23.3915 129.429 26.3215 127.547 28.3004C125.669 30.2752 122.966 31.396 119.654 31.396V33.396ZM132.57 19.616C132.57 16.0725 131.494 12.7556 129.358 10.3094C127.208 7.84598 124.046 6.34 120.05 6.34V8.34C123.507 8.34 126.105 9.62401 127.852 11.6246C129.613 13.6424 130.57 16.4635 130.57 19.616H132.57ZM119.906 12.696C121.415 12.696 122.59 13.4234 123.428 14.6701C124.284 15.9453 124.774 17.7616 124.774 19.796H126.774C126.774 17.4744 126.22 15.2407 125.088 13.5549C123.937 11.8406 122.178 10.696 119.906 10.696V12.696ZM124.774 19.796C124.774 22.0203 124.271 23.8677 123.42 25.1265C122.592 26.3526 121.43 27.04 119.942 27.04V29.04C122.163 29.04 123.917 27.9634 125.077 26.2465C126.216 24.5623 126.774 22.2877 126.774 19.796H124.774ZM119.942 27.04C118.452 27.04 117.271 26.378 116.429 25.1927C115.565 23.9775 115.038 22.174 115.038 19.94H113.038C113.038 22.458 113.628 24.7045 114.798 26.3513C115.99 28.028 117.761 29.04 119.942 29.04V27.04ZM115.038 19.94C115.038 17.7189 115.549 15.8723 116.408 14.6129C117.246 13.3849 118.417 12.696 119.906 12.696V10.696C117.687 10.696 115.925 11.7711 114.756 13.4861C113.608 15.1697 113.038 17.4451 113.038 19.94H115.038ZM144.915 32V33H145.915V32H144.915ZM144.915 21.884L144.044 21.3922L143.915 21.6211V21.884H144.915ZM152.907 7.736L153.778 8.22784L154.621 6.736H152.907V7.736ZM146.751 7.736V6.736H146.086L145.829 7.34896L146.751 7.736ZM144.303 13.568L143.381 13.181L143.38 13.1834L144.303 13.568ZM142.467 18.212V19.212H143.172L143.409 18.5483L142.467 18.212ZM142.395 18.212L141.462 18.5724L141.709 19.212H142.395V18.212ZM140.523 13.568L139.603 13.9599L139.604 13.9619L140.523 13.568ZM138.039 7.736L138.959 7.34414L138.7 6.736H138.039V7.736ZM131.775 7.736V6.736H130.106L130.893 8.20785L131.775 7.736ZM139.443 22.064H140.443V21.8132L140.325 21.5921L139.443 22.064ZM139.443 32H138.443V33H139.443V32ZM145.915 32V21.884H143.915V32H145.915ZM145.786 22.3758L153.778 8.22784L152.036 7.24416L144.044 21.3922L145.786 22.3758ZM152.907 6.736H146.751V8.736H152.907V6.736ZM145.829 7.34896L143.381 13.181L145.225 13.955L147.673 8.12304L145.829 7.34896ZM143.38 13.1834C142.66 14.9116 142.075 16.3368 141.525 17.8757L143.409 18.5483C143.939 17.0632 144.506 15.6804 145.226 13.9526L143.38 13.1834ZM142.467 17.212H142.395V19.212H142.467V17.212ZM143.328 17.8516C142.715 16.2655 142.206 14.9555 141.442 13.1741L139.604 13.9619C140.353 15.7085 140.851 16.9905 141.462 18.5724L143.328 17.8516ZM141.443 13.1761L138.959 7.34414L137.119 8.12786L139.603 13.9599L141.443 13.1761ZM138.039 6.736H131.775V8.736H138.039V6.736ZM130.893 8.20785L138.561 22.5359L140.325 21.5921L132.657 7.26415L130.893 8.20785ZM138.443 22.064V32H140.443V22.064H138.443ZM139.443 33H144.915V31H139.443V33ZM153.893 33.396C155.116 33.396 156.193 32.9489 156.962 32.1487C157.728 31.3527 158.133 30.267 158.133 29.084H156.133C156.133 29.809 155.889 30.3793 155.521 30.7623C155.157 31.1411 154.614 31.396 153.893 31.396V33.396ZM158.133 29.084C158.133 27.8736 157.733 26.7776 156.97 25.9772C156.202 25.1727 155.131 24.736 153.929 24.736V26.736C154.634 26.736 155.165 26.9833 155.523 27.3578C155.884 27.7364 156.133 28.3144 156.133 29.084H158.133ZM153.929 24.736C151.432 24.736 149.689 26.6245 149.689 29.084H151.689C151.689 27.6555 152.609 26.736 153.929 26.736V24.736ZM149.689 29.084C149.689 31.5072 151.432 33.396 153.893 33.396V31.396C152.609 31.396 151.689 30.4767 151.689 29.084H149.689ZM170.552 32V33H171.356L171.529 32.2155L170.552 32ZM172.856 21.56L171.883 21.3309L171.88 21.3445L172.856 21.56ZM174.26 14.072V13.072H173.406L173.272 13.916L174.26 14.072ZM174.332 14.072L175.327 13.9687L175.234 13.072H174.332V14.072ZM175.484 21.56L174.502 21.7478L174.503 21.7529L175.484 21.56ZM177.536 32L176.555 32.1929L176.714 33H177.536V32ZM183.476 32V33H184.251L184.444 32.25L183.476 32ZM189.74 7.736L190.708 7.98596L191.031 6.736H189.74V7.736ZM184.16 7.736V6.736H183.34L183.18 7.54057L184.16 7.736ZM182.18 17.672L181.2 17.4766L181.197 17.4881L181.195 17.4996L182.18 17.672ZM180.776 26.096V27.096H181.652L181.767 26.2282L180.776 26.096ZM180.704 26.096L179.713 26.2282L179.829 27.096H180.704V26.096ZM179.408 17.96L180.391 17.7735L180.391 17.7732L179.408 17.96ZM177.464 7.736L178.447 7.5492L178.292 6.736H177.464V7.736ZM171.632 7.736V6.736H170.818L170.653 7.53375L171.632 7.736ZM169.58 17.672L168.601 17.4697L168.601 17.4713L169.58 17.672ZM167.996 26.204V27.204H168.857L168.985 26.353L167.996 26.204ZM167.924 26.204L166.937 26.3637L167.073 27.204H167.924V26.204ZM166.484 17.744L165.501 17.9244L165.501 17.9283L166.484 17.744ZM164.648 7.736L165.632 7.55556L165.481 6.736H164.648V7.736ZM158.78 7.736V6.736H157.515L157.807 7.96697L158.78 7.736ZM164.54 32L163.567 32.231L163.75 33H164.54V32ZM171.529 32.2155L173.833 21.7755L171.88 21.3445L169.576 31.7845L171.529 32.2155ZM173.83 21.789C174.414 19.3037 174.815 16.97 175.248 14.228L173.272 13.916C172.841 16.646 172.45 18.9203 171.883 21.331L173.83 21.789ZM174.26 15.072H174.332V13.072H174.26V15.072ZM173.338 14.1753C173.63 16.9885 174.032 19.2883 174.502 21.7478L176.466 21.3722C176.001 18.9357 175.611 16.6995 175.327 13.9687L173.338 14.1753ZM174.503 21.7529L176.555 32.1929L178.517 31.8071L176.465 21.3671L174.503 21.7529ZM177.536 33H183.476V31H177.536V33ZM184.444 32.25L190.708 7.98596L188.772 7.48603L182.508 31.75L184.444 32.25ZM189.74 6.736H184.16V8.736H189.74V6.736ZM183.18 7.54057L181.2 17.4766L183.161 17.8674L185.141 7.93143L183.18 7.54057ZM181.195 17.4996C180.695 20.359 180.149 23.2371 179.785 25.9638L181.767 26.2282C182.124 23.5549 182.658 20.745 183.165 17.8444L181.195 17.4996ZM180.776 25.096H180.704V27.096H180.776V25.096ZM181.695 25.9638C181.334 23.2508 180.935 20.64 180.391 17.7735L178.426 18.1465C178.962 20.968 179.355 23.5412 179.713 26.2282L181.695 25.9638ZM180.391 17.7732L178.447 7.5492L176.482 7.92279L178.426 18.1468L180.391 17.7732ZM177.464 6.736H171.632V8.736H177.464V6.736ZM170.653 7.53375L168.601 17.4697L170.56 17.8743L172.612 7.93825L170.653 7.53375ZM168.601 17.4713C167.989 20.4597 167.408 23.3985 167.007 26.055L168.985 26.353C169.377 23.7535 169.948 20.8603 170.56 17.8727L168.601 17.4713ZM167.996 25.204H167.924V27.204H167.996V25.204ZM168.911 26.0443C168.516 23.5993 168.01 20.4543 167.467 17.5597L165.501 17.9283C166.039 20.7937 166.541 23.9127 166.937 26.3637L168.911 26.0443ZM167.468 17.5636L165.632 7.55556L163.665 7.91644L165.501 17.9244L167.468 17.5636ZM164.648 6.736H158.78V8.736H164.648V6.736ZM157.807 7.96697L163.567 32.231L165.513 31.769L159.753 7.50503L157.807 7.96697ZM164.54 33H170.552V31H164.54V33ZM198.027 32H197.027V33H198.027V32ZM203.535 32V33H204.535V32H203.535ZM203.535 12.344V11.344H202.535V12.344H203.535ZM210.159 12.344V13.344H211.159V12.344H210.159ZM210.159 7.736H211.159V6.736H210.159V7.736ZM191.511 7.736V6.736H190.511V7.736H191.511ZM191.511 12.344H190.511V13.344H191.511V12.344ZM198.027 12.344H199.027V11.344H198.027V12.344ZM198.027 33H203.535V31H198.027V33ZM204.535 32V12.344H202.535V32H204.535ZM203.535 13.344H210.159V11.344H203.535V13.344ZM211.159 12.344V7.736H209.159V12.344H211.159ZM210.159 6.736H191.511V8.736H210.159V6.736ZM190.511 7.736V12.344H192.511V7.736H190.511ZM191.511 13.344H198.027V11.344H191.511V13.344ZM197.027 12.344V32H199.027V12.344H197.027ZM213.069 32H212.069V33H213.069V32ZM218.577 32V33H219.577V32H218.577ZM218.577 22.244V21.244H217.577V22.244H218.577ZM227.289 22.244V23.244H228.289V22.244H227.289ZM227.289 17.78H228.289V16.78H227.289V17.78ZM218.577 17.78H217.577V18.78H218.577V17.78ZM218.577 12.236V11.236H217.577V12.236H218.577ZM227.901 12.236V13.236H228.901V12.236H227.901ZM227.901 7.736H228.901V6.736H227.901V7.736ZM213.069 7.736V6.736H212.069V7.736H213.069ZM213.069 33H218.577V31H213.069V33ZM219.577 32V22.244H217.577V32H219.577ZM218.577 23.244H227.289V21.244H218.577V23.244ZM228.289 22.244V17.78H226.289V22.244H228.289ZM227.289 16.78H218.577V18.78H227.289V16.78ZM219.577 17.78V12.236H217.577V17.78H219.577ZM218.577 13.236H227.901V11.236H218.577V13.236ZM228.901 12.236V7.736H226.901V12.236H228.901ZM227.901 6.736H213.069V8.736H227.901V6.736ZM212.069 7.736V32H214.069V7.736H212.069Z" fill="white"/>
<path d="M2.69827 30.892C4.06627 31.072 6.08227 31.252 8.92627 31.252C13.6783 31.252 17.5663 30.244 20.1223 28.12C22.4623 26.14 24.1543 22.936 24.1543 18.292C24.1543 14.008 22.5703 11.02 20.0503 9.148C17.7103 7.384 14.7223 6.556 10.1143 6.556C7.34227 6.556 4.71427 6.736 2.69827 7.06V30.892ZM8.20627 10.984C8.67427 10.876 9.46627 10.768 10.6903 10.768C15.4063 10.768 18.3583 13.432 18.3223 18.472C18.3223 24.268 15.0823 27.004 10.1143 26.968C9.43027 26.968 8.67427 26.968 8.20627 26.86V10.984ZM42.2007 16.276H33.2727V11.236H42.7407V6.736H27.7647V31H43.2447V26.5H33.2727V20.74H42.2007V16.276ZM46.0591 29.884C47.4271 30.64 50.1631 31.36 52.9351 31.36C59.5951 31.36 62.7271 27.904 62.7271 23.836C62.7271 20.416 60.7111 18.184 56.4271 16.6C53.2951 15.412 51.9271 14.728 51.9271 13.18C51.9271 11.92 53.0791 10.84 55.4551 10.84C57.8311 10.84 59.5591 11.524 60.5311 11.992L61.7551 7.564C60.3151 6.916 58.2991 6.34 55.5631 6.34C49.8391 6.34 46.3831 9.508 46.3831 13.648C46.3831 17.176 49.0111 19.408 53.0431 20.812C55.9591 21.856 57.1111 22.72 57.1111 24.232C57.1111 25.816 55.7791 26.86 53.2591 26.86C50.9191 26.86 48.6511 26.104 47.1751 25.348L46.0591 29.884ZM71.1165 31H76.6245V11.344H83.2485V6.736H64.6005V11.344H71.1165V31ZM86.1592 31H91.5952V21.46H93.2512C95.4832 21.496 96.5272 22.324 97.1752 25.348C97.8952 28.336 98.4712 30.316 98.8672 31H104.483C104.015 30.064 103.259 26.896 102.503 24.16C101.891 21.928 100.955 20.308 99.2632 19.624V19.516C101.351 18.76 103.547 16.636 103.547 13.54C103.547 11.308 102.755 9.616 101.315 8.464C99.5872 7.096 97.0672 6.556 93.4672 6.556C90.5512 6.556 87.9232 6.772 86.1592 7.06V31ZM91.5952 10.804C91.9912 10.732 92.7472 10.624 94.0792 10.624C96.5992 10.66 98.1112 11.776 98.1112 14.008C98.1112 16.132 96.4912 17.5 93.7552 17.5H91.5952V10.804ZM118.05 6.34C110.886 6.34 106.242 11.776 106.242 19.048C106.242 25.96 110.454 31.396 117.654 31.396C124.746 31.396 129.57 26.572 129.57 18.616C129.57 11.92 125.502 6.34 118.05 6.34ZM117.906 10.696C121.686 10.696 123.774 14.44 123.774 18.796C123.774 23.512 121.65 27.04 117.942 27.04C114.27 27.04 112.038 23.692 112.038 18.94C112.038 14.224 114.198 10.696 117.906 10.696ZM142.915 31V20.884L150.907 6.736H144.751L142.303 12.568C141.583 14.296 141.007 15.7 140.467 17.212H140.395C139.783 15.628 139.279 14.332 138.523 12.568L136.039 6.736H129.775L137.443 21.064V31H142.915ZM151.893 31.396C153.837 31.396 155.133 29.992 155.133 28.084C155.133 26.104 153.837 24.736 151.929 24.736C150.021 24.736 148.689 26.14 148.689 28.084C148.689 29.992 150.021 31.396 151.893 31.396ZM168.552 31L170.856 20.56C171.432 18.112 171.828 15.808 172.26 13.072H172.332C172.62 15.844 173.016 18.112 173.484 20.56L175.536 31H181.476L187.74 6.736H182.16L180.18 16.672C179.676 19.552 179.136 22.396 178.776 25.096H178.704C178.344 22.396 177.948 19.804 177.408 16.96L175.464 6.736H169.632L167.58 16.672C166.968 19.66 166.392 22.576 165.996 25.204H165.924C165.528 22.756 165.024 19.624 164.484 16.744L162.648 6.736H156.78L162.54 31H168.552ZM196.027 31H201.535V11.344H208.159V6.736H189.511V11.344H196.027V31ZM211.069 31H216.577V21.244H225.289V16.78H216.577V11.236H225.901V6.736H211.069V31Z" fill="#150035"/>
<path d="M34.3887 67.82L35.3717 67.6364L35.1448 66.4216L34.0041 66.8969L34.3887 67.82ZM27.0087 63.68H28.0088L28.0086 63.6688L27.0087 63.68ZM34.2687 59.51L33.8583 60.4219L34.9603 60.9178L35.2413 59.7426L34.2687 59.51ZM34.9287 56.75L35.9013 56.9826L36.0915 56.1873L35.3498 55.843L34.9287 56.75ZM34.8987 70.55L35.3178 71.458L36.0247 71.1317L35.8817 70.3664L34.8987 70.55ZM34.0041 66.8969C33.3802 67.1569 32.6113 67.39 31.4787 67.39V69.39C32.9261 69.39 33.9573 69.0831 34.7733 68.7431L34.0041 66.8969ZM31.4787 67.39C30.4474 67.39 29.5964 67.0435 29.0058 66.4529C28.4186 65.8656 28.0087 64.9567 28.0087 63.68H26.0087C26.0087 65.4033 26.5739 66.8494 27.5916 67.8671C28.606 68.8815 29.99 69.39 31.4787 69.39V67.39ZM28.0086 63.6688C27.996 62.5436 28.3429 61.6148 28.9171 60.979C29.4814 60.3542 30.3286 59.94 31.4787 59.94V57.94C29.8088 57.94 28.4061 58.5608 27.4328 59.6385C26.4695 60.7052 25.9914 62.1464 26.0088 63.6912L28.0086 63.6688ZM31.4787 59.94C32.6288 59.94 33.3587 60.1971 33.8583 60.4219L34.6791 58.5981C33.9787 58.2829 32.9686 57.94 31.4787 57.94V59.94ZM35.2413 59.7426L35.9013 56.9826L33.9561 56.5174L33.2961 59.2774L35.2413 59.7426ZM35.3498 55.843C34.3543 55.3808 32.8257 55.06 31.3587 55.06V57.06C32.5917 57.06 33.8231 57.3392 34.5076 57.657L35.3498 55.843ZM31.3587 55.06C28.5636 55.06 26.2633 55.997 24.66 57.6132C23.0608 59.2254 22.2287 61.4394 22.2287 63.86H24.2287C24.2287 61.9006 24.8966 60.2146 26.0799 59.0218C27.2591 57.833 29.0238 57.06 31.3587 57.06V55.06ZM22.2287 63.86C22.2287 66.3488 23.0494 68.4805 24.5817 69.9909C26.1125 71.4998 28.2632 72.3 30.7587 72.3V70.3C28.6942 70.3 27.08 69.6452 25.9857 68.5666C24.893 67.4895 24.2287 65.9012 24.2287 63.86H22.2287ZM30.7587 72.3C32.7081 72.3 34.3852 71.8884 35.3178 71.458L34.4797 69.642C33.8522 69.9316 32.4693 70.3 30.7587 70.3V72.3ZM35.8817 70.3664L35.3717 67.6364L33.4057 68.0036L33.9157 70.7336L35.8817 70.3664ZM44.0016 55.06C41.5709 55.06 39.4139 55.8741 37.8617 57.4219C36.3077 58.9716 35.4416 61.1753 35.4416 63.8H37.4416C37.4416 61.6247 38.1506 59.9584 39.274 58.8381C40.3993 57.7159 42.0223 57.06 44.0016 57.06V55.06ZM35.4416 63.8C35.4416 66.3747 36.3216 68.5241 37.8461 70.0312C39.3667 71.5344 41.4593 72.33 43.7616 72.33V70.33C41.9239 70.33 40.3565 69.7006 39.2521 68.6088C38.1516 67.5209 37.4416 65.9053 37.4416 63.8H35.4416ZM43.7616 72.33C45.8269 72.33 47.9535 71.6645 49.5762 70.2015C51.2179 68.7213 52.2616 66.498 52.2616 63.56H50.2616C50.2616 65.992 49.4153 67.6537 48.237 68.716C47.0397 69.7955 45.4163 70.33 43.7616 70.33V72.33ZM52.2616 63.56C52.2616 61.119 51.4584 58.9832 49.9831 57.4513C48.5045 55.916 46.4199 55.06 44.0016 55.06V57.06C45.9333 57.06 47.4787 57.734 48.5426 58.8387C49.6098 59.9468 50.2616 61.561 50.2616 63.56H52.2616ZM43.9116 59.76C44.7566 59.76 45.3465 60.1694 45.7721 60.8695C46.221 61.6078 46.4516 62.6359 46.4516 63.65H48.4516C48.4516 62.3841 48.1722 60.9672 47.4811 59.8305C46.7667 58.6556 45.5866 57.76 43.9116 57.76V59.76ZM46.4516 63.65C46.4516 64.9646 46.1217 66.0002 45.6394 66.6776C45.1703 67.3366 44.5645 67.66 43.8816 67.66V69.66C45.2987 69.66 46.4779 68.9484 47.2688 67.8374C48.0465 66.7448 48.4516 65.2754 48.4516 63.65H46.4516ZM43.8816 67.66C43.1147 67.66 42.4982 67.3136 42.0391 66.6649C41.5618 65.9902 41.2516 64.9705 41.2516 63.71H39.2516C39.2516 65.2695 39.6314 66.7248 40.4066 67.8201C41.2 68.9414 42.3985 69.66 43.8816 69.66V67.66ZM41.2516 63.71C41.2516 62.6166 41.4913 61.5826 41.9487 60.8571C42.3779 60.1765 42.9919 59.76 43.9116 59.76V57.76C42.2213 57.76 41.0053 58.6035 40.257 59.7904C39.5369 60.9324 39.2516 62.3734 39.2516 63.71H41.2516ZM54.3052 71H53.3052V72H54.3052V71ZM57.9052 71V72H58.9052V71H57.9052ZM58.1152 61.16L59.0383 61.5446L59.054 61.5068L59.0666 61.4678L58.1152 61.16ZM63.2752 71H62.2752V72H63.2752V71ZM66.8752 71V72H67.8752V71H66.8752ZM67.0552 61.01L66.1178 60.6618L66.0985 60.7137L66.0851 60.7675L67.0552 61.01ZM72.2452 71H71.2452V72H72.2452V71ZM75.8452 71V72H76.8452V71H75.8452ZM68.0152 56.93L68.5351 57.7842L68.5635 57.7669L68.5907 57.7478L68.0152 56.93ZM66.2152 58.76V59.76H66.7673L67.0614 59.2928L66.2152 58.76ZM66.1552 58.76L65.2232 59.1224L65.4711 59.76H66.1552V58.76ZM57.6052 58.55V59.55H58.1564L58.4507 59.084L57.6052 58.55ZM57.5152 58.55L56.5176 58.6193L56.5822 59.55H57.5152V58.55ZM57.3652 56.39L58.3628 56.3207L58.2982 55.39H57.3652V56.39ZM54.1852 56.39V55.39H53.1112L53.1877 56.4612L54.1852 56.39ZM54.3052 72H57.9052V70H54.3052V72ZM58.9052 71V62.36H56.9052V71H58.9052ZM58.9052 62.36C58.9052 62.0247 58.9546 61.7455 59.0383 61.5446L57.1921 60.7754C56.9758 61.2945 56.9052 61.8553 56.9052 62.36H58.9052ZM59.0666 61.4678C59.3166 60.6953 59.9604 60.06 60.7552 60.06V58.06C58.79 58.06 57.5738 59.5847 57.1637 60.8522L59.0666 61.4678ZM60.7552 60.06C61.2822 60.06 61.6002 60.2585 61.8283 60.5955C62.091 60.9837 62.2752 61.63 62.2752 62.54H64.2752C64.2752 61.41 64.0544 60.3163 63.4846 59.4745C62.8802 58.5815 61.9382 58.06 60.7552 58.06V60.06ZM62.2752 62.54V71H64.2752V62.54H62.2752ZM63.2752 72H66.8752V70H63.2752V72ZM67.8752 71V62.24H65.8752V71H67.8752ZM67.8752 62.24C67.8752 61.9439 67.9414 61.5884 68.0253 61.2525L66.0851 60.7675C65.989 61.1516 65.8752 61.6961 65.8752 62.24H67.8752ZM67.9926 61.3582C68.2814 60.5808 68.9075 60.06 69.6352 60.06V58.06C67.8429 58.06 66.609 59.3392 66.1178 60.6618L67.9926 61.3582ZM69.6352 60.06C70.1994 60.06 70.5281 60.2633 70.7654 60.6286C71.0454 61.0596 71.2452 61.8022 71.2452 62.93H73.2452C73.2452 61.6278 73.025 60.4354 72.4425 59.5389C71.8173 58.5767 70.841 58.06 69.6352 58.06V60.06ZM71.2452 62.93V71H73.2452V62.93H71.2452ZM72.2452 72H75.8452V70H72.2452V72ZM76.8452 71V62.39H74.8452V71H76.8452ZM76.8452 62.39C76.8452 59.88 76.1837 58.0266 75.047 56.7925C73.9063 55.554 72.3976 55.06 70.9552 55.06V57.06C71.9428 57.06 72.8791 57.391 73.5759 58.1475C74.2767 58.9084 74.8452 60.22 74.8452 62.39H76.8452ZM70.9552 55.06C69.5678 55.06 68.4328 55.4134 67.4397 56.1122L68.5907 57.7478C69.2176 57.3066 69.9426 57.06 70.9552 57.06V55.06ZM67.4952 56.0758C66.6574 56.5858 65.951 57.3027 65.369 58.2272L67.0614 59.2928C67.4993 58.5973 67.993 58.1142 68.5351 57.7842L67.4952 56.0758ZM66.2152 57.76H66.1552V59.76H66.2152V57.76ZM67.0872 58.3976C66.3065 56.3901 64.4343 55.06 62.1052 55.06V57.06C63.6161 57.06 64.7439 57.8899 65.2232 59.1224L67.0872 58.3976ZM62.1052 55.06C59.1899 55.06 57.5937 56.6955 56.7597 58.016L58.4507 59.084C59.0567 58.1245 60.1005 57.06 62.1052 57.06V55.06ZM57.6052 57.55H57.5152V59.55H57.6052V57.55ZM58.5128 58.4807L58.3628 56.3207L56.3676 56.4593L56.5176 58.6193L58.5128 58.4807ZM57.3652 55.39H54.1852V57.39H57.3652V55.39ZM53.1877 56.4612C53.2753 57.6865 53.3052 59.0692 53.3052 60.74H55.3052C55.3052 59.0508 55.2751 57.6135 55.1827 56.3188L53.1877 56.4612ZM53.3052 60.74V71H55.3052V60.74H53.3052ZM83.4549 71V72H84.4549V71H83.4549ZM83.4549 56.39H84.4549V55.39H83.4549V56.39ZM79.7349 56.39V55.39H78.7349V56.39H79.7349ZM79.7349 71H78.7349V72H79.7349V71ZM83.6649 52.31H84.6649V52.2968L84.6645 52.2837L83.6649 52.31ZM84.4549 71V56.39H82.4549V71H84.4549ZM83.4549 55.39H79.7349V57.39H83.4549V55.39ZM78.7349 56.39V71H80.7349V56.39H78.7349ZM79.7349 72H83.4549V70H79.7349V72ZM81.5949 49.3C79.8224 49.3 78.5249 50.608 78.5249 52.31H80.5249C80.5249 51.732 80.9074 51.3 81.5949 51.3V49.3ZM78.5249 52.31C78.5249 53.9723 79.7826 55.29 81.5649 55.29V53.29C80.8872 53.29 80.5249 52.8677 80.5249 52.31H78.5249ZM81.5649 55.29C82.4411 55.29 83.2271 54.9902 83.7983 54.4307C84.368 53.8727 84.6649 53.1137 84.6649 52.31H82.6649C82.6649 52.6163 82.5567 52.8473 82.3989 53.0018C82.2427 53.1548 81.9786 53.29 81.5649 53.29V55.29ZM84.6645 52.2837C84.6437 51.4915 84.3584 50.7364 83.8019 50.1741C83.2399 49.6062 82.4653 49.3 81.5949 49.3V51.3C81.9845 51.3 82.2298 51.4288 82.3803 51.5809C82.5364 51.7386 82.6561 51.9885 82.6652 52.3363L84.6645 52.2837ZM87.4107 71H86.4107V72H87.4107V71ZM91.1307 71V72H92.1307V71H91.1307ZM91.2807 61.22L92.2205 61.5618L92.2241 61.5515L91.2807 61.22ZM96.9507 71H95.9507V72H96.9507V71ZM100.641 71V72H101.641V71H100.641ZM90.8007 58.58V59.58H91.3906L91.6759 59.0637L90.8007 58.58ZM90.7107 58.58L89.714 58.6619L89.7895 59.58H90.7107V58.58ZM90.5307 56.39L91.5273 56.3081L91.4518 55.39H90.5307V56.39ZM87.2907 56.39V55.39H86.2167L86.2932 56.4612L87.2907 56.39ZM87.4107 72H91.1307V70H87.4107V72ZM92.1307 71V62.42H90.1307V71H92.1307ZM92.1307 62.42C92.1307 62.011 92.165 61.7142 92.2205 61.5617L90.3409 60.8783C90.1563 61.3858 90.1307 61.989 90.1307 62.42H92.1307ZM92.2241 61.5515C92.5145 60.7251 93.227 60.06 94.1607 60.06V58.06C92.1543 58.06 90.8269 59.4949 90.3372 60.8885L92.2241 61.5515ZM94.1607 60.06C94.8575 60.06 95.2337 60.3119 95.481 60.6776C95.7693 61.104 95.9507 61.7974 95.9507 62.75H97.9507C97.9507 61.6026 97.742 60.451 97.1378 59.5574C96.4926 58.6031 95.4739 58.06 94.1607 58.06V60.06ZM95.9507 62.75V71H97.9507V62.75H95.9507ZM96.9507 72H100.641V70H96.9507V72ZM101.641 71V62.33H99.6407V71H101.641ZM101.641 62.33C101.641 59.828 100.922 57.9818 99.7131 56.7594C98.5102 55.5428 96.9364 55.06 95.4507 55.06V57.06C96.5149 57.06 97.5361 57.4022 98.2908 58.1656C99.0398 58.9232 99.6407 60.212 99.6407 62.33H101.641ZM95.4507 55.06C92.6179 55.06 90.7119 56.6732 89.9254 58.0963L91.6759 59.0637C92.1495 58.2068 93.4234 57.06 95.4507 57.06V55.06ZM90.8007 57.58H90.7107V59.58H90.8007V57.58ZM91.7073 58.4981L91.5273 56.3081L89.534 56.4719L89.714 58.6619L91.7073 58.4981ZM90.5307 55.39H87.2907V57.39H90.5307V55.39ZM86.2932 56.4612C86.3807 57.6865 86.4107 59.0692 86.4107 60.74H88.4107C88.4107 59.0508 88.3806 57.6135 88.2881 56.3188L86.2932 56.4612ZM86.4107 60.74V71H88.4107V60.74H86.4107ZM114.719 56.39V55.39H113.793L113.722 56.3133L114.719 56.39ZM114.569 58.34V59.34H115.495L115.566 58.4167L114.569 58.34ZM114.509 58.34L113.642 58.8385L113.93 59.34H114.509V58.34ZM114.119 68.75V67.75H113.576L113.281 68.2043L114.119 68.75ZM114.179 68.75H115.179V67.75H114.179V68.75ZM105.719 73.31L106.221 72.4452L105.115 71.8031L104.758 73.0312L105.719 73.31ZM104.909 76.1L103.948 75.8212L103.737 76.5505L104.382 76.9503L104.909 76.1ZM115.649 75.5L116.31 76.2499L116.318 76.2426L115.649 75.5ZM117.929 56.39L118.927 56.4505L118.991 55.39H117.929V56.39ZM113.969 65.93L114.922 66.2332L114.934 66.1945L114.943 66.1549L113.969 65.93ZM113.999 61.25L113.038 61.5276L113.041 61.5373L113.999 61.25ZM113.722 56.3133L113.572 58.2633L115.566 58.4167L115.716 56.4667L113.722 56.3133ZM114.569 57.34H114.509V59.34H114.569V57.34ZM115.376 57.8415C114.523 56.3583 112.887 55.06 110.279 55.06V57.06C112.111 57.06 113.115 57.9217 113.642 58.8385L115.376 57.8415ZM110.279 55.06C106.138 55.06 102.649 58.4999 102.649 63.77H104.649C104.649 59.4401 107.4 57.06 110.279 57.06V55.06ZM102.649 63.77C102.649 68.3234 105.547 71.91 109.859 71.91V69.91C106.91 69.91 104.649 67.4966 104.649 63.77H102.649ZM109.859 71.91C112.098 71.91 113.922 70.8848 114.957 69.2957L113.281 68.2043C112.635 69.1952 111.46 69.91 109.859 69.91V71.91ZM114.119 69.75H114.179V67.75H114.119V69.75ZM113.179 68.75V70.01H115.179V68.75H113.179ZM113.179 70.01C113.179 71.3942 112.788 72.2005 112.292 72.6694C111.785 73.1487 111.015 73.42 109.979 73.42V75.42C111.343 75.42 112.673 75.0613 113.665 74.1231C114.669 73.1745 115.179 71.7758 115.179 70.01H113.179ZM109.979 73.42C108.409 73.42 107.02 72.9095 106.221 72.4452L105.216 74.1748C106.277 74.7905 108.008 75.42 109.979 75.42V73.42ZM104.758 73.0312L103.948 75.8212L105.869 76.3788L106.679 73.5888L104.758 73.0312ZM104.382 76.9503C105.864 77.8674 108.055 78.27 110.009 78.27V76.27C108.242 76.27 106.473 75.8926 105.435 75.2497L104.382 76.9503ZM110.009 78.27C112.126 78.27 114.516 77.8327 116.31 76.2498L114.987 74.7502C113.721 75.8673 111.911 76.27 110.009 76.27V78.27ZM116.318 76.2426C118.165 74.5774 118.809 72.0293 118.809 68.87H116.809C116.809 71.8307 116.193 73.6626 114.979 74.7574L116.318 76.2426ZM118.809 68.87V60.59H116.809V68.87H118.809ZM118.809 60.59C118.809 58.604 118.868 57.4246 118.927 56.4505L116.93 56.3295C116.869 57.3354 116.809 58.556 116.809 60.59H118.809ZM117.929 55.39H114.719V57.39H117.929V55.39ZM113.119 64.61C113.119 64.9532 113.067 65.3878 112.994 65.7051L114.943 66.1549C115.05 65.6922 115.119 65.1068 115.119 64.61H113.119ZM113.016 65.6268C112.724 66.5438 111.901 67.15 110.969 67.15V69.15C112.797 69.15 114.373 67.9562 114.922 66.2332L113.016 65.6268ZM110.969 67.15C110.142 67.15 109.543 66.807 109.12 66.2379C108.676 65.6391 108.399 64.7404 108.399 63.65H106.399C106.399 65.0496 106.751 66.4009 107.514 67.4296C108.3 68.488 109.485 69.15 110.969 69.15V67.15ZM108.399 63.65C108.399 62.328 108.739 61.3701 109.211 60.7667C109.668 60.1813 110.28 59.88 110.999 59.88V57.88C109.647 57.88 108.46 58.4787 107.634 59.5358C106.823 60.5749 106.399 62.002 106.399 63.65H108.399ZM110.999 59.88C112.029 59.88 112.747 60.519 113.038 61.5275L114.959 60.9725C114.471 59.281 113.088 57.88 110.999 57.88V59.88ZM113.041 61.5373C113.091 61.7043 113.119 61.9544 113.119 62.24H115.119C115.119 61.8656 115.086 61.3957 114.956 60.9627L113.041 61.5373ZM113.119 62.24V64.61H115.119V62.24H113.119ZM127.087 70.28L126.121 70.0196L125.918 70.7745L126.601 71.1542L127.087 70.28ZM137.467 66.74H138.467L138.467 66.7261L137.467 66.74ZM133.567 62.27L133.909 61.3302L133.901 61.3276L133.567 62.27ZM136.147 59.54L135.651 60.4082L136.768 61.047L137.111 59.8059L136.147 59.54ZM136.867 56.93L137.831 57.1959L138.043 56.4258L137.339 56.0485L136.867 56.93ZM127.477 60.65L128.477 60.6675L128.477 60.6588V60.65H127.477ZM131.497 64.91L131.827 63.9661L131.825 63.9654L131.497 64.91ZM127.807 67.61L128.326 66.7552L127.188 66.0643L126.841 67.3496L127.807 67.61ZM126.601 71.1542C127.852 71.849 129.614 72.3 131.527 72.3V70.3C129.899 70.3 128.482 69.911 127.572 69.4058L126.601 71.1542ZM131.527 72.3C133.617 72.3 135.348 71.7819 136.577 70.7874C137.827 69.7759 138.467 68.3428 138.467 66.74H136.467C136.467 67.7772 136.071 68.6241 135.319 69.2326C134.546 69.8581 133.307 70.3 131.527 70.3V72.3ZM138.467 66.7261C138.449 65.4392 138.065 64.3228 137.246 63.3938C136.45 62.4913 135.31 61.8396 133.909 61.3302L133.225 63.2098C134.464 63.6604 135.258 64.1637 135.745 64.7162C136.209 65.2422 136.455 65.8808 136.467 66.7539L138.467 66.7261ZM133.901 61.3276C132.965 60.9952 132.468 60.7616 132.204 60.5584C132.089 60.4703 132.055 60.4147 132.044 60.3929C132.035 60.3746 132.017 60.3335 132.017 60.23H130.017C130.017 60.5915 130.085 60.9554 130.263 61.3037C130.44 61.6485 130.695 61.9209 130.985 62.1441C131.531 62.5634 132.309 62.8848 133.232 63.2124L133.901 61.3276ZM132.017 60.23C132.017 60.0724 132.067 59.9863 132.158 59.915C132.275 59.8236 132.543 59.7 133.057 59.7V57.7C132.25 57.7 131.499 57.8914 130.926 58.34C130.327 58.8087 130.017 59.4876 130.017 60.23H132.017ZM133.057 59.7C134.121 59.7 135.119 60.1044 135.651 60.4082L136.643 58.6718C135.915 58.2556 134.573 57.7 133.057 57.7V59.7ZM137.111 59.8059L137.831 57.1959L135.903 56.6641L135.183 59.2741L137.111 59.8059ZM137.339 56.0485C136.346 55.5167 134.773 55.06 132.997 55.06V57.06C134.461 57.06 135.707 57.4433 136.395 57.8115L137.339 56.0485ZM132.997 55.06C131.106 55.06 129.481 55.6221 128.312 56.6303C127.136 57.645 126.477 59.0688 126.477 60.65H128.477C128.477 59.6512 128.882 58.78 129.619 58.1447C130.363 57.5029 131.498 57.06 132.997 57.06V55.06ZM126.477 60.6325C126.436 62.9576 128.115 64.7939 131.169 65.8546L131.825 63.9654C129.179 63.0461 128.457 61.7624 128.477 60.6675L126.477 60.6325ZM131.166 65.8539C132.056 66.1651 132.493 66.3988 132.711 66.5907C132.849 66.7123 132.897 66.803 132.897 67.04H134.897C134.897 66.287 134.644 65.6277 134.032 65.0893C133.501 64.6212 132.738 64.2849 131.827 63.9661L131.166 65.8539ZM132.897 67.04C132.897 67.2419 132.837 67.3333 132.737 67.4081C132.593 67.515 132.253 67.66 131.557 67.66V69.66C132.481 69.66 133.31 69.475 133.932 69.0119C134.596 68.5167 134.897 67.7981 134.897 67.04H132.897ZM131.557 67.66C130.442 67.66 129.03 67.1825 128.326 66.7552L127.288 68.4648C128.264 69.0575 130.032 69.66 131.557 69.66V67.66ZM126.841 67.3496L126.121 70.0196L128.052 70.5404L128.772 67.8704L126.841 67.3496ZM147.127 55.06C144.696 55.06 142.539 55.8741 140.987 57.4219C139.433 58.9716 138.567 61.1753 138.567 63.8H140.567C140.567 61.6247 141.276 59.9584 142.399 58.8381C143.524 57.7159 145.147 57.06 147.127 57.06V55.06ZM138.567 63.8C138.567 66.3747 139.447 68.5241 140.971 70.0312C142.492 71.5344 144.584 72.33 146.887 72.33V70.33C145.049 70.33 143.482 69.7006 142.377 68.6088C141.277 67.5209 140.567 65.9053 140.567 63.8H138.567ZM146.887 72.33C148.952 72.33 151.079 71.6645 152.701 70.2015C154.343 68.7213 155.387 66.498 155.387 63.56H153.387C153.387 65.992 152.54 67.6537 151.362 68.716C150.165 69.7955 148.541 70.33 146.887 70.33V72.33ZM155.387 63.56C155.387 61.119 154.583 58.9832 153.108 57.4513C151.63 55.916 149.545 55.06 147.127 55.06V57.06C149.058 57.06 150.604 57.734 151.668 58.8387C152.735 59.9468 153.387 61.561 153.387 63.56H155.387ZM147.037 59.76C147.882 59.76 148.471 60.1694 148.897 60.8695C149.346 61.6078 149.577 62.6359 149.577 63.65H151.577C151.577 62.3841 151.297 60.9672 150.606 59.8305C149.892 58.6556 148.712 57.76 147.037 57.76V59.76ZM149.577 63.65C149.577 64.9646 149.247 66.0002 148.764 66.6776C148.295 67.3366 147.69 67.66 147.007 67.66V69.66C148.424 69.66 149.603 68.9484 150.394 67.8374C151.172 66.7448 151.577 65.2754 151.577 63.65H149.577ZM147.007 67.66C146.24 67.66 145.623 67.3136 145.164 66.6649C144.687 65.9902 144.377 64.9705 144.377 63.71H142.377C142.377 65.2695 142.756 66.7248 143.532 67.8201C144.325 68.9414 145.523 69.66 147.007 69.66V67.66ZM144.377 63.71C144.377 62.6166 144.616 61.5826 145.074 60.8571C145.503 60.1765 146.117 59.76 147.037 59.76V57.76C145.346 57.76 144.13 58.6035 143.382 59.7904C142.662 60.9324 142.377 62.3734 142.377 63.71H144.377ZM164.06 55.06C161.63 55.06 159.472 55.8741 157.92 57.4219C156.366 58.9716 155.5 61.1753 155.5 63.8H157.5C157.5 61.6247 158.209 59.9584 159.333 58.8381C160.458 57.7159 162.081 57.06 164.06 57.06V55.06ZM155.5 63.8C155.5 66.3747 156.38 68.5241 157.905 70.0312C159.425 71.5344 161.518 72.33 163.82 72.33V70.33C161.982 70.33 160.415 69.7006 159.311 68.6088C158.21 67.5209 157.5 65.9053 157.5 63.8H155.5ZM163.82 72.33C165.886 72.33 168.012 71.6645 169.635 70.2015C171.277 68.7213 172.32 66.498 172.32 63.56H170.32C170.32 65.992 169.474 67.6537 168.296 68.716C167.098 69.7955 165.475 70.33 163.82 70.33V72.33ZM172.32 63.56C172.32 61.119 171.517 58.9832 170.042 57.4513C168.563 55.916 166.478 55.06 164.06 55.06V57.06C165.992 57.06 167.537 57.734 168.601 58.8387C169.668 59.9468 170.32 61.561 170.32 63.56H172.32ZM163.97 59.76C164.815 59.76 165.405 60.1694 165.831 60.8695C166.28 61.6078 166.51 62.6359 166.51 63.65H168.51C168.51 62.3841 168.231 60.9672 167.54 59.8305C166.825 58.6556 165.645 57.76 163.97 57.76V59.76ZM166.51 63.65C166.51 64.9646 166.18 66.0002 165.698 66.6776C165.229 67.3366 164.623 67.66 163.94 67.66V69.66C165.357 69.66 166.537 68.9484 167.327 67.8374C168.105 66.7448 168.51 65.2754 168.51 63.65H166.51ZM163.94 67.66C163.173 67.66 162.557 67.3136 162.098 66.6649C161.62 65.9902 161.31 64.9705 161.31 63.71H159.31C159.31 65.2695 159.69 66.7248 160.465 67.8201C161.259 68.9414 162.457 69.66 163.94 69.66V67.66ZM161.31 63.71C161.31 62.6166 161.55 61.5826 162.007 60.8571C162.436 60.1765 163.051 59.76 163.97 59.76V57.76C162.28 57.76 161.064 58.6035 160.316 59.7904C159.595 60.9324 159.31 62.3734 159.31 63.71H161.31ZM174.364 71H173.364V72H174.364V71ZM178.084 71V72H179.084V71H178.084ZM178.234 61.22L179.174 61.5618L179.177 61.5515L178.234 61.22ZM183.904 71H182.904V72H183.904V71ZM187.594 71V72H188.594V71H187.594ZM177.754 58.58V59.58H178.344L178.629 59.0637L177.754 58.58ZM177.664 58.58L176.667 58.6619L176.743 59.58H177.664V58.58ZM177.484 56.39L178.48 56.3081L178.405 55.39H177.484V56.39ZM174.244 56.39V55.39H173.17L173.246 56.4612L174.244 56.39ZM174.364 72H178.084V70H174.364V72ZM179.084 71V62.42H177.084V71H179.084ZM179.084 62.42C179.084 62.011 179.118 61.7142 179.174 61.5617L177.294 60.8783C177.109 61.3858 177.084 61.989 177.084 62.42H179.084ZM179.177 61.5515C179.468 60.7251 180.18 60.06 181.114 60.06V58.06C179.107 58.06 177.78 59.4949 177.29 60.8885L179.177 61.5515ZM181.114 60.06C181.811 60.06 182.187 60.3119 182.434 60.6776C182.722 61.104 182.904 61.7974 182.904 62.75H184.904C184.904 61.6026 184.695 60.451 184.091 59.5574C183.446 58.6031 182.427 58.06 181.114 58.06V60.06ZM182.904 62.75V71H184.904V62.75H182.904ZM183.904 72H187.594V70H183.904V72ZM188.594 71V62.33H186.594V71H188.594ZM188.594 62.33C188.594 59.828 187.875 57.9818 186.666 56.7594C185.463 55.5428 183.89 55.06 182.404 55.06V57.06C183.468 57.06 184.489 57.4022 185.244 58.1656C185.993 58.9232 186.594 60.212 186.594 62.33H188.594ZM182.404 55.06C179.571 55.06 177.665 56.6732 176.879 58.0963L178.629 59.0637C179.103 58.2068 180.377 57.06 182.404 57.06V55.06ZM177.754 57.58H177.664V59.58H177.754V57.58ZM178.66 58.4981L178.48 56.3081L176.487 56.4719L176.667 58.6619L178.66 58.4981ZM177.484 55.39H174.244V57.39H177.484V55.39ZM173.246 56.4612C173.334 57.6865 173.364 59.0692 173.364 60.74H175.364C175.364 59.0508 175.334 57.6135 175.241 56.3188L173.246 56.4612ZM173.364 60.74V71H175.364V60.74H173.364ZM193.362 72.33C194.311 72.33 195.151 71.9729 195.749 71.3354C196.34 70.7045 196.642 69.8577 196.642 68.96H194.642C194.642 69.4123 194.493 69.7505 194.29 69.9671C194.093 70.1771 193.793 70.33 193.362 70.33V72.33ZM196.642 68.96C196.642 68.032 196.332 67.1792 195.728 66.5522C195.121 65.9225 194.282 65.59 193.362 65.59V67.59C193.791 67.59 194.093 67.7375 194.288 67.9403C194.486 68.1458 194.642 68.478 194.642 68.96H196.642ZM193.362 65.59C191.456 65.59 190.082 67.0623 190.082 68.96H192.082C192.082 68.0977 192.628 67.59 193.362 67.59V65.59ZM190.082 68.96C190.082 70.8102 191.409 72.33 193.362 72.33V70.33C192.615 70.33 192.082 69.8098 192.082 68.96H190.082ZM200.452 72.33C201.401 72.33 202.24 71.9729 202.838 71.3354C203.43 70.7045 203.732 69.8577 203.732 68.96H201.732C201.732 69.4123 201.583 69.7505 201.38 69.9671C201.183 70.1771 200.883 70.33 200.452 70.33V72.33ZM203.732 68.96C203.732 68.032 203.422 67.1792 202.818 66.5522C202.211 65.9225 201.372 65.59 200.452 65.59V67.59C200.881 67.59 201.182 67.7375 201.378 67.9403C201.576 68.1458 201.732 68.478 201.732 68.96H203.732ZM200.452 65.59C198.545 65.59 197.172 67.0623 197.172 68.96H199.172C199.172 68.0977 199.718 67.59 200.452 67.59V65.59ZM197.172 68.96C197.172 70.8102 198.499 72.33 200.452 72.33V70.33C199.705 70.33 199.172 69.8098 199.172 68.96H197.172ZM207.541 72.33C208.49 72.33 209.33 71.9729 209.928 71.3354C210.52 70.7045 210.821 69.8577 210.821 68.96H208.821C208.821 69.4123 208.673 69.7505 208.47 69.9671C208.273 70.1771 207.972 70.33 207.541 70.33V72.33ZM210.821 68.96C210.821 68.032 210.512 67.1792 209.908 66.5522C209.301 65.9225 208.462 65.59 207.541 65.59V67.59C207.971 67.59 208.272 67.7375 208.468 67.9403C208.666 68.1458 208.821 68.478 208.821 68.96H210.821ZM207.541 65.59C205.635 65.59 204.261 67.0623 204.261 68.96H206.261C206.261 68.0977 206.808 67.59 207.541 67.59V65.59ZM204.261 68.96C204.261 70.8102 205.588 72.33 207.541 72.33V70.33C206.794 70.33 206.261 69.8098 206.261 68.96H204.261Z" fill="white"/>
<path d="M32.3887 65.82C31.6687 66.12 30.7687 66.39 29.4787 66.39C26.9587 66.39 25.0087 64.68 25.0087 61.68C24.9787 59.01 26.6587 56.94 29.4787 56.94C30.7987 56.94 31.6687 57.24 32.2687 57.51L32.9287 54.75C32.0887 54.36 30.7087 54.06 29.3587 54.06C24.2287 54.06 21.2287 57.48 21.2287 61.86C21.2287 66.39 24.1987 69.3 28.7587 69.3C30.5887 69.3 32.1187 68.91 32.8987 68.55L32.3887 65.82ZM42.0016 54.06C37.5916 54.06 34.4416 57 34.4416 61.8C34.4416 66.48 37.6216 69.33 41.7616 69.33C45.4816 69.33 49.2616 66.93 49.2616 61.56C49.2616 57.12 46.3516 54.06 42.0016 54.06ZM41.9116 56.76C44.4316 56.76 45.4516 59.37 45.4516 61.65C45.4516 64.59 43.9816 66.66 41.8816 66.66C39.6316 66.66 38.2516 64.53 38.2516 61.71C38.2516 59.28 39.3016 56.76 41.9116 56.76ZM52.3052 69H55.9052V60.36C55.9052 59.94 55.9652 59.52 56.1152 59.16C56.4452 58.14 57.3752 57.06 58.7552 57.06C60.4652 57.06 61.2752 58.5 61.2752 60.54V69H64.8752V60.24C64.8752 59.82 64.9652 59.37 65.0552 59.01C65.4452 57.96 66.3752 57.06 67.6352 57.06C69.4052 57.06 70.2452 58.5 70.2452 60.93V69H73.8452V60.39C73.8452 55.71 71.3852 54.06 68.9552 54.06C67.7552 54.06 66.8252 54.36 66.0152 54.93C65.3252 55.35 64.7252 55.95 64.2152 56.76H64.1552C63.5252 55.14 62.0252 54.06 60.1052 54.06C57.6452 54.06 56.3252 55.41 55.6052 56.55H55.5152L55.3652 54.39H52.1852C52.2752 55.65 52.3052 57.06 52.3052 58.74V69ZM81.4549 69V54.39H77.7349V69H81.4549ZM79.5949 48.3C78.3649 48.3 77.5249 49.17 77.5249 50.31C77.5249 51.42 78.3349 52.29 79.5649 52.29C80.8549 52.29 81.6649 51.42 81.6649 50.31C81.6349 49.17 80.8549 48.3 79.5949 48.3ZM85.4107 69H89.1307V60.42C89.1307 60 89.1607 59.55 89.2807 59.22C89.6707 58.11 90.6907 57.06 92.1607 57.06C94.1707 57.06 94.9507 58.65 94.9507 60.75V69H98.6407V60.33C98.6407 55.71 96.0007 54.06 93.4507 54.06C91.0207 54.06 89.4307 55.44 88.8007 56.58H88.7107L88.5307 54.39H85.2907C85.3807 55.65 85.4107 57.06 85.4107 58.74V69ZM112.719 54.39L112.569 56.34H112.509C111.819 55.14 110.499 54.06 108.279 54.06C104.769 54.06 101.649 56.97 101.649 61.77C101.649 65.91 104.229 68.91 107.859 68.91C109.779 68.91 111.279 68.04 112.119 66.75H112.179V68.01C112.179 71.16 110.379 72.42 107.979 72.42C106.209 72.42 104.649 71.85 103.719 71.31L102.909 74.1C104.169 74.88 106.149 75.27 108.009 75.27C110.019 75.27 112.119 74.85 113.649 73.5C115.179 72.12 115.809 69.93 115.809 66.87V58.59C115.809 56.58 115.869 55.38 115.929 54.39H112.719ZM112.119 62.61C112.119 63.03 112.059 63.54 111.969 63.93C111.549 65.25 110.349 66.15 108.969 66.15C106.659 66.15 105.399 64.14 105.399 61.65C105.399 58.68 106.929 56.88 108.999 56.88C110.559 56.88 111.609 57.9 111.999 59.25C112.089 59.55 112.119 59.91 112.119 60.24V62.61ZM125.087 68.28C126.167 68.88 127.757 69.3 129.527 69.3C133.397 69.3 135.467 67.38 135.467 64.74C135.437 62.58 134.207 61.23 131.567 60.27C129.707 59.61 129.017 59.16 129.017 58.23C129.017 57.33 129.737 56.7 131.057 56.7C132.347 56.7 133.517 57.18 134.147 57.54L134.867 54.93C134.027 54.48 132.617 54.06 130.997 54.06C127.607 54.06 125.477 56.07 125.477 58.65C125.447 60.36 126.647 61.92 129.497 62.91C131.297 63.54 131.897 64.05 131.897 65.04C131.897 66 131.177 66.66 129.557 66.66C128.237 66.66 126.647 66.12 125.807 65.61L125.087 68.28ZM145.127 54.06C140.717 54.06 137.567 57 137.567 61.8C137.567 66.48 140.747 69.33 144.887 69.33C148.607 69.33 152.387 66.93 152.387 61.56C152.387 57.12 149.477 54.06 145.127 54.06ZM145.037 56.76C147.557 56.76 148.577 59.37 148.577 61.65C148.577 64.59 147.107 66.66 145.007 66.66C142.757 66.66 141.377 64.53 141.377 61.71C141.377 59.28 142.427 56.76 145.037 56.76ZM162.06 54.06C157.65 54.06 154.5 57 154.5 61.8C154.5 66.48 157.68 69.33 161.82 69.33C165.54 69.33 169.32 66.93 169.32 61.56C169.32 57.12 166.41 54.06 162.06 54.06ZM161.97 56.76C164.49 56.76 165.51 59.37 165.51 61.65C165.51 64.59 164.04 66.66 161.94 66.66C159.69 66.66 158.31 64.53 158.31 61.71C158.31 59.28 159.36 56.76 161.97 56.76ZM172.364 69H176.084V60.42C176.084 60 176.114 59.55 176.234 59.22C176.624 58.11 177.644 57.06 179.114 57.06C181.124 57.06 181.904 58.65 181.904 60.75V69H185.594V60.33C185.594 55.71 182.954 54.06 180.404 54.06C177.974 54.06 176.384 55.44 175.754 56.58H175.664L175.484 54.39H172.244C172.334 55.65 172.364 57.06 172.364 58.74V69ZM191.362 69.33C192.742 69.33 193.642 68.31 193.642 66.96C193.642 65.55 192.712 64.59 191.362 64.59C190.042 64.59 189.082 65.58 189.082 66.96C189.082 68.31 190.012 69.33 191.362 69.33ZM198.452 69.33C199.832 69.33 200.732 68.31 200.732 66.96C200.732 65.55 199.802 64.59 198.452 64.59C197.132 64.59 196.172 65.58 196.172 66.96C196.172 68.31 197.102 69.33 198.452 69.33ZM205.541 69.33C206.921 69.33 207.821 68.31 207.821 66.96C207.821 65.55 206.891 64.59 205.541 64.59C204.221 64.59 203.261 65.58 203.261 66.96C203.261 68.31 204.191 69.33 205.541 69.33Z" fill="#150035"/>
<path d="M43.6266 109.964H43.2266V110.317L43.577 110.361L43.6266 109.964ZM52.1046 108.47L51.836 108.174L51.8353 108.174L52.1046 108.47ZM52.1046 99.182L51.8476 99.4885L51.8519 99.492L52.1046 99.182ZM43.6266 98.03L43.5609 97.6354L43.2266 97.6911V98.03H43.6266ZM45.8406 99.632L45.749 99.2426L45.4406 99.3152V99.632H45.8406ZM51.6546 103.718L51.2546 103.715V103.718H51.6546ZM47.0646 108.362L47.0671 107.962H47.0646V108.362ZM45.8406 108.308H45.4406V108.644L45.7711 108.702L45.8406 108.308ZM43.577 110.361C44.3151 110.453 45.3038 110.526 46.6146 110.526V109.726C45.3335 109.726 44.3782 109.655 43.6762 109.567L43.577 110.361ZM46.6146 110.526C49.0224 110.526 51.0642 109.958 52.3739 108.766L51.8353 108.174C50.733 109.178 48.9229 109.726 46.6146 109.726V110.526ZM52.3732 108.766C53.6215 107.635 54.3946 105.901 54.3946 103.646H53.5946C53.5946 105.711 52.8918 107.217 51.836 108.174L52.3732 108.766ZM54.3946 103.646C54.3946 101.472 53.6326 99.9118 52.3574 98.872L51.8519 99.492C52.9166 100.36 53.5946 101.68 53.5946 103.646H54.3946ZM52.3617 98.8755C51.1464 97.8563 49.4737 97.378 47.1546 97.378V98.178C49.3716 98.178 50.8308 98.6357 51.8476 99.4885L52.3617 98.8755ZM47.1546 97.378C45.8249 97.378 44.56 97.4689 43.5609 97.6354L43.6924 98.4246C44.6372 98.2671 45.8564 98.178 47.1546 98.178V97.378ZM43.2266 98.03V109.964H44.0266V98.03H43.2266ZM45.9322 100.021C46.196 99.9593 46.6656 99.906 47.3526 99.906V99.106C46.6356 99.106 46.0973 99.1607 45.749 99.2426L45.9322 100.021ZM47.3526 99.906C48.6672 99.906 49.6341 100.268 50.2697 100.892C50.9038 101.514 51.2631 102.451 51.2546 103.715L52.0546 103.721C52.0641 102.303 51.6584 101.134 50.8301 100.321C50.0032 99.5092 48.8101 99.106 47.3526 99.106V99.906ZM51.2546 103.718C51.2546 105.185 50.8485 106.234 50.1584 106.917C49.4678 107.599 48.4355 107.971 47.0671 107.962L47.0621 108.762C48.5738 108.771 49.8364 108.36 50.7208 107.485C51.6058 106.611 52.0546 105.329 52.0546 103.718H51.2546ZM47.0646 107.962C46.5989 107.962 46.1732 107.961 45.9101 107.914L45.7711 108.702C46.12 108.763 46.6304 108.762 47.0646 108.762V107.962ZM46.2406 108.308V99.632H45.4406V108.308H46.2406ZM63.2577 106.238V106.638H63.5916L63.6513 106.31L63.2577 106.238ZM62.8437 109.64L62.9938 110.011L63.3045 109.885L63.2351 109.557L62.8437 109.64ZM62.5197 108.11L62.9111 108.027L62.8144 107.571L62.3782 107.736L62.5197 108.11ZM57.3897 106.238V105.838H56.9759L56.99 106.252L57.3897 106.238ZM57.3897 104.69L56.9917 104.65L56.9477 105.09H57.3897V104.69ZM61.2417 104.69V105.09H61.633L61.6416 104.699L61.2417 104.69ZM63.6513 106.31C63.692 106.086 63.7297 105.738 63.7297 105.302H62.9297C62.9297 105.694 62.8955 105.994 62.8642 106.166L63.6513 106.31ZM63.7297 105.302C63.7297 104.284 63.4838 103.128 62.8318 102.214C62.1663 101.282 61.0994 100.636 59.5497 100.636V101.436C60.8441 101.436 61.6672 101.96 62.1807 102.679C62.7077 103.417 62.9297 104.394 62.9297 105.302H63.7297ZM59.5497 100.636C58.0257 100.636 56.8416 101.261 56.0458 102.229C55.2574 103.187 54.8657 104.46 54.8657 105.752H55.6657C55.6657 104.614 56.012 103.529 56.6637 102.737C57.3079 101.954 58.2658 101.436 59.5497 101.436V100.636ZM54.8657 105.752C54.8657 107.177 55.3121 108.394 56.1758 109.255C57.0397 110.116 58.279 110.58 59.7837 110.58V109.78C58.4445 109.78 57.4248 109.371 56.7407 108.688C56.0564 108.006 55.6657 107.009 55.6657 105.752H54.8657ZM59.7837 110.58C61.0919 110.58 62.1872 110.337 62.9938 110.011L62.6937 109.269C61.9883 109.555 60.9956 109.78 59.7837 109.78V110.58ZM63.2351 109.557L62.9111 108.027L62.1284 108.193L62.4524 109.723L63.2351 109.557ZM62.3782 107.736C61.7633 107.969 61.0741 108.106 60.0897 108.106V108.906C61.1574 108.906 61.9442 108.755 62.6613 108.484L62.3782 107.736ZM60.0897 108.106C59.4465 108.106 58.8775 107.949 58.4733 107.646C58.0824 107.353 57.8126 106.901 57.7895 106.224L56.99 106.252C57.0209 107.159 57.3991 107.841 57.9937 108.286C58.575 108.721 59.329 108.906 60.0897 108.906V108.106ZM57.3897 106.638H63.2577V105.838H57.3897V106.638ZM57.7878 104.73C57.8271 104.336 57.9735 103.877 58.2442 103.526C58.5051 103.188 58.8798 102.948 59.4237 102.948V102.148C58.5997 102.148 58.0023 102.529 57.6108 103.037C57.229 103.532 57.0424 104.144 56.9917 104.65L57.7878 104.73ZM59.4237 102.948C60.0161 102.948 60.3507 103.203 60.5541 103.528C60.7724 103.876 60.8497 104.327 60.8418 104.681L61.6416 104.699C61.6518 104.243 61.5581 103.623 61.2319 103.103C60.8908 102.559 60.3074 102.148 59.4237 102.148V102.948ZM61.2417 104.29H57.3897V105.09H61.2417V104.29ZM64.565 109.568L64.1788 109.464L64.0974 109.766L64.3707 109.918L64.565 109.568ZM70.793 107.444H71.193L71.193 107.438L70.793 107.444ZM68.453 104.762L68.5897 104.386L68.5868 104.385L68.453 104.762ZM70.001 103.124L69.8025 103.471L70.2496 103.727L70.3866 103.23L70.001 103.124ZM70.433 101.558L70.8186 101.664L70.9036 101.356L70.6219 101.205L70.433 101.558ZM64.799 103.79L65.199 103.797V103.79H64.799ZM67.211 106.346L67.3431 105.968L67.3422 105.968L67.211 106.346ZM64.997 107.966L65.2046 107.624L64.7494 107.348L64.6108 107.862L64.997 107.966ZM64.3707 109.918C65.087 110.316 66.1099 110.58 67.229 110.58V109.78C66.224 109.78 65.339 109.54 64.7592 109.218L64.3707 109.918ZM67.229 110.58C68.452 110.58 69.4413 110.277 70.1333 109.717C70.8337 109.15 71.193 108.349 71.193 107.444H70.393C70.393 108.123 70.1313 108.69 69.6302 109.095C69.1206 109.507 68.328 109.78 67.229 109.78V110.58ZM71.193 107.438C71.1828 106.708 70.9661 106.086 70.5103 105.569C70.0639 105.062 69.4141 104.686 68.5897 104.386L68.3163 105.138C69.0759 105.414 69.5871 105.731 69.9102 106.097C70.2239 106.453 70.3852 106.884 70.393 107.45L71.193 107.438ZM68.5868 104.385C68.0261 104.186 67.7 104.037 67.5132 103.894C67.4269 103.827 67.3844 103.772 67.3612 103.727C67.3387 103.683 67.323 103.626 67.323 103.538H66.523C66.523 103.729 66.559 103.915 66.649 104.091C66.7383 104.266 66.8691 104.407 67.0257 104.528C67.325 104.758 67.7639 104.942 68.3192 105.139L68.5868 104.385ZM67.323 103.538C67.323 103.385 67.3791 103.274 67.4845 103.192C67.6003 103.101 67.8096 103.02 68.147 103.02V102.22C67.6924 102.22 67.2897 102.328 66.9915 102.561C66.6829 102.803 66.523 103.151 66.523 103.538H67.323ZM68.147 103.02C68.8306 103.02 69.4639 103.278 69.8025 103.471L70.1994 102.777C69.7821 102.538 69.0114 102.22 68.147 102.22V103.02ZM70.3866 103.23L70.8186 101.664L70.0474 101.452L69.6154 103.018L70.3866 103.23ZM70.6219 101.205C70.0568 100.903 69.1454 100.636 68.111 100.636V101.436C69.0206 101.436 69.8012 101.673 70.2441 101.911L70.6219 101.205ZM68.111 100.636C67.0157 100.636 66.0897 100.961 65.4309 101.53C64.7693 102.101 64.399 102.9 64.399 103.79H65.199C65.199 103.132 65.4677 102.554 65.9535 102.135C66.4423 101.714 67.1723 101.436 68.111 101.436V100.636ZM64.3991 103.783C64.3767 105.055 65.2882 106.102 67.0797 106.724L67.3422 105.968C65.7137 105.402 65.1852 104.577 65.1989 103.797L64.3991 103.783ZM67.0789 106.724C67.6145 106.911 67.9095 107.062 68.0717 107.204C68.202 107.319 68.251 107.43 68.251 107.624H69.051C69.051 107.224 68.92 106.885 68.6002 106.604C68.3125 106.35 67.8874 106.159 67.3431 105.968L67.0789 106.724ZM68.251 107.624C68.251 107.801 68.1912 107.918 68.0745 108.005C67.9406 108.105 67.6873 108.196 67.247 108.196V108.996C67.7787 108.996 68.2273 108.889 68.5525 108.647C68.8948 108.392 69.051 108.023 69.051 107.624H68.251ZM67.247 108.196C66.5371 108.196 65.6541 107.897 65.2046 107.624L64.7894 108.308C65.3479 108.647 66.3729 108.996 67.247 108.996V108.196ZM64.6108 107.862L64.1788 109.464L64.9512 109.672L65.3832 108.07L64.6108 107.862ZM72.9889 99.254L72.8949 98.8652L72.5889 98.9392V99.254H72.9889ZM72.9889 101.234V101.634H73.3889V101.234H72.9889ZM71.7289 101.234V100.834H71.3289V101.234H71.7289ZM71.7289 102.89H71.3289V103.29H71.7289V102.89ZM72.9889 102.89H73.3889V102.49H72.9889V102.89ZM73.6729 109.46L73.9672 109.189L73.966 109.188L73.6729 109.46ZM77.1829 109.964L77.3278 110.337L77.5887 110.235L77.5828 109.955L77.1829 109.964ZM77.1469 108.272L77.5468 108.263L77.5359 107.751L77.0416 107.886L77.1469 108.272ZM75.1489 102.89V102.49H74.7489V102.89H75.1489ZM77.2549 102.89V103.29H77.6549V102.89H77.2549ZM77.2549 101.234H77.6549V100.834H77.2549V101.234ZM75.1489 101.234H74.7489V101.634H75.1489V101.234ZM75.1489 98.732H75.5489V98.2238L75.0549 98.3432L75.1489 98.732ZM72.5889 99.254V101.234H73.3889V99.254H72.5889ZM72.9889 100.834H71.7289V101.634H72.9889V100.834ZM71.3289 101.234V102.89H72.1289V101.234H71.3289ZM71.7289 103.29H72.9889V102.49H71.7289V103.29ZM72.5889 102.89V107.012H73.3889V102.89H72.5889ZM72.5889 107.012C72.5889 108.198 72.8081 109.117 73.3797 109.732L73.966 109.188C73.6016 108.795 73.3889 108.13 73.3889 107.012H72.5889ZM73.3785 109.731C73.8863 110.283 74.6889 110.58 75.5809 110.58V109.78C74.8528 109.78 74.2874 109.537 73.9672 109.189L73.3785 109.731ZM75.5809 110.58C76.3045 110.58 76.9373 110.489 77.3278 110.337L77.0379 109.591C76.7804 109.691 76.2612 109.78 75.5809 109.78V110.58ZM77.5828 109.955L77.5468 108.263L76.7469 108.281L76.7829 109.973L77.5828 109.955ZM77.0416 107.886C76.8744 107.932 76.6218 107.98 76.2829 107.98V108.78C76.6999 108.78 77.0233 108.72 77.2521 108.658L77.0416 107.886ZM76.2829 107.98C75.9598 107.98 75.8201 107.882 75.7335 107.75C75.6219 107.579 75.5489 107.273 75.5489 106.76H74.7489C74.7489 107.309 74.8198 107.813 75.0637 108.187C75.3326 108.599 75.7599 108.78 76.2829 108.78V107.98ZM75.5489 106.76V102.89H74.7489V106.76H75.5489ZM75.1489 103.29H77.2549V102.49H75.1489V103.29ZM77.6549 102.89V101.234H76.8549V102.89H77.6549ZM77.2549 100.834H75.1489V101.634H77.2549V100.834ZM75.5489 101.234V98.732H74.7489V101.234H75.5489ZM75.0549 98.3432L72.8949 98.8652L73.0828 99.6428L75.2428 99.1208L75.0549 98.3432ZM78.9214 110H78.5214V110.4H78.9214V110ZM81.1354 110V110.4H81.5354V110H81.1354ZM81.2074 104.78L80.8151 104.702L80.8139 104.708L81.2074 104.78ZM83.8354 103.178L83.757 103.57L84.2354 103.666V103.178H83.8354ZM83.8354 101.09H84.2354V100.762L83.9138 100.698L83.8354 101.09ZM80.9194 102.908V103.308H81.2038L81.2972 103.039L80.9194 102.908ZM80.8474 102.908L80.4478 102.925L80.4642 103.308H80.8474V102.908ZM80.7754 101.234L81.175 101.217L81.1586 100.834H80.7754V101.234ZM78.8494 101.234V100.834H78.4212L78.4503 101.261L78.8494 101.234ZM78.9214 110.4H81.1354V109.6H78.9214V110.4ZM81.5354 110V105.464H80.7354V110H81.5354ZM81.5354 105.464C81.5354 105.248 81.5662 105.042 81.6009 104.852L80.8139 104.708C80.7766 104.914 80.7354 105.176 80.7354 105.464H81.5354ZM81.5996 104.858C81.7645 104.034 82.3372 103.506 83.1874 103.506V102.706C81.9136 102.706 81.0463 103.546 80.8152 104.702L81.5996 104.858ZM83.1874 103.506C83.4181 103.506 83.5858 103.536 83.757 103.57L83.9138 102.786C83.725 102.748 83.4967 102.706 83.1874 102.706V103.506ZM84.2354 103.178V101.09H83.4354V103.178H84.2354ZM83.9138 100.698C83.7147 100.658 83.5618 100.636 83.3134 100.636V101.436C83.497 101.436 83.5961 101.45 83.757 101.482L83.9138 100.698ZM83.3134 100.636C82.1983 100.636 81.0266 101.382 80.5416 102.777L81.2972 103.039C81.6762 101.95 82.5565 101.436 83.3134 101.436V100.636ZM80.9194 102.508H80.8474V103.308H80.9194V102.508ZM81.247 102.891L81.175 101.217L80.3758 101.251L80.4478 102.925L81.247 102.891ZM80.7754 100.834H78.8494V101.634H80.7754V100.834ZM78.4503 101.261C78.5034 102.04 78.5214 102.875 78.5214 104.06H79.3214C79.3214 102.869 79.3034 102.012 79.2485 101.207L78.4503 101.261ZM78.5214 104.06V110H79.3214V104.06H78.5214ZM89.1572 100.636C87.7439 100.636 86.5031 101.109 85.6145 101.995C84.7251 102.882 84.2212 104.15 84.2212 105.68H85.0212C85.0212 104.33 85.4623 103.276 86.1794 102.561C86.8973 101.845 87.9245 101.436 89.1572 101.436V100.636ZM84.2212 105.68C84.2212 107.178 84.7322 108.414 85.6045 109.276C86.4752 110.137 87.6783 110.598 89.0132 110.598V109.798C87.8641 109.798 86.8712 109.404 86.1669 108.708C85.4642 108.013 85.0212 106.99 85.0212 105.68H84.2212ZM89.0132 110.598C90.2113 110.598 91.437 110.212 92.3681 109.372C93.3067 108.526 93.9132 107.248 93.9132 105.536H93.1132C93.1132 107.046 92.5857 108.099 91.8324 108.778C91.0714 109.464 90.0471 109.798 89.0132 109.798V110.598ZM93.9132 105.536C93.9132 104.116 93.4464 102.886 92.6021 102.01C91.7564 101.131 90.5595 100.636 89.1572 100.636V101.436C90.3649 101.436 91.3461 101.859 92.0258 102.564C92.707 103.272 93.1132 104.292 93.1132 105.536H93.9132ZM89.1032 103.056C89.6932 103.056 90.1062 103.35 90.3904 103.818C90.684 104.301 90.8272 104.956 90.8272 105.59H91.6272C91.6272 104.856 91.4644 104.044 91.074 103.402C90.6743 102.745 90.0252 102.256 89.1032 102.256V103.056ZM90.8272 105.59C90.8272 106.41 90.6217 107.075 90.3028 107.523C89.9892 107.963 89.5684 108.196 89.0852 108.196V108.996C89.862 108.996 90.5122 108.608 90.9546 107.986C91.3917 107.372 91.6272 106.534 91.6272 105.59H90.8272ZM89.0852 108.196C88.5535 108.196 88.1254 107.951 87.8165 107.514C87.5003 107.068 87.3072 106.412 87.3072 105.626H86.5072C86.5072 106.532 86.7281 107.361 87.1634 107.977C87.6061 108.602 88.267 108.996 89.0852 108.996V108.196ZM87.3072 105.626C87.3072 104.946 87.4556 104.285 87.7563 103.808C88.0457 103.349 88.4743 103.056 89.1032 103.056V102.256C88.1661 102.256 87.4967 102.719 87.0796 103.381C86.6738 104.024 86.5072 104.848 86.5072 105.626H87.3072ZM94.1547 101.234V100.834H93.5649L93.7831 101.382L94.1547 101.234ZM97.3587 109.28L96.9871 109.428L96.9934 109.444L97.001 109.459L97.3587 109.28ZM97.3407 110.108L96.9909 109.914L96.9852 109.925L97.3407 110.108ZM96.1347 111.494L95.9162 111.159L95.9085 111.164L95.901 111.169L96.1347 111.494ZM94.8387 112.106L94.7461 111.717L94.3454 111.812L94.4525 112.21L94.8387 112.106ZM95.3427 113.978L94.9565 114.082L95.0473 114.419L95.3939 114.375L95.3427 113.978ZM97.6647 112.844L97.4035 112.541L97.3978 112.546L97.6647 112.844ZM100.725 107.21L101.1 107.348L101.1 107.348L100.725 107.21ZM102.921 101.234L103.296 101.372L103.494 100.834H102.921V101.234ZM100.545 101.234V100.834H100.245L100.161 101.122L100.545 101.234ZM99.1767 105.914L98.7928 105.802L98.7917 105.806L99.1767 105.914ZM98.7087 107.642V108.042H99.0105L99.0934 107.752L98.7087 107.642ZM98.6547 107.642L98.2667 107.739L98.3424 108.042H98.6547V107.642ZM98.1687 105.932L98.5482 105.806L98.5478 105.804L98.1687 105.932ZM96.5847 101.234L96.9638 101.106L96.872 100.834H96.5847V101.234ZM93.7831 101.382L96.9871 109.428L97.7304 109.132L94.5264 101.086L93.7831 101.382ZM97.001 109.459C97.0452 109.547 97.0654 109.606 97.0749 109.643C97.0838 109.677 97.0847 109.698 97.0847 109.712H97.8847C97.8847 109.549 97.847 109.362 97.7165 109.101L97.001 109.459ZM97.0847 109.712C97.0847 109.701 97.0873 109.709 97.0725 109.748C97.0578 109.787 97.0325 109.839 96.9911 109.914L97.6904 110.302C97.7782 110.144 97.8847 109.935 97.8847 109.712H97.0847ZM96.9852 109.925C96.7086 110.462 96.2681 110.929 95.9162 111.159L96.3532 111.829C96.8293 111.519 97.3608 110.942 97.6963 110.291L96.9852 109.925ZM95.901 111.169C95.4927 111.463 95.0725 111.639 94.7461 111.717L94.9314 112.495C95.361 112.393 95.8768 112.173 96.3685 111.819L95.901 111.169ZM94.4525 112.21L94.9565 114.082L95.729 113.874L95.225 112.002L94.4525 112.21ZM95.3939 114.375C96.0244 114.293 97.0018 113.975 97.9316 113.142L97.3978 112.546C96.5997 113.261 95.7771 113.519 95.2916 113.581L95.3939 114.375ZM97.9259 113.147C99.0566 112.172 99.8951 110.622 101.1 107.348L100.349 107.072C99.1424 110.35 98.3609 111.716 97.4036 112.541L97.9259 113.147ZM101.1 107.348L103.296 101.372L102.545 101.096L100.349 107.072L101.1 107.348ZM102.921 100.834H100.545V101.634H102.921V100.834ZM100.161 101.122L98.7928 105.802L99.5607 106.026L100.929 101.346L100.161 101.122ZM98.7917 105.806C98.7097 106.097 98.6279 106.406 98.5494 106.702C98.4704 107 98.3949 107.284 98.3241 107.532L99.0934 107.752C99.1666 107.496 99.2441 107.204 99.3226 106.908C99.4016 106.61 99.4818 106.307 99.5618 106.022L98.7917 105.806ZM98.7087 107.242H98.6547V108.042H98.7087V107.242ZM99.0428 107.545C98.9158 107.037 98.7329 106.36 98.5482 105.806L97.7893 106.058C97.9646 106.584 98.1417 107.239 98.2667 107.739L99.0428 107.545ZM98.5478 105.804L96.9638 101.106L96.2057 101.362L97.7897 106.06L98.5478 105.804ZM96.5847 100.834H94.1547V101.634H96.5847V100.834ZM109.617 110H109.217V110.4H109.617V110ZM111.831 110V110.4H112.231V110H111.831ZM111.831 99.722V99.322H111.431V99.722H111.831ZM115.323 99.722V100.122H115.723V99.722H115.323ZM115.323 97.868H115.723V97.468H115.323V97.868ZM106.161 97.868V97.468H105.761V97.868H106.161ZM106.161 99.722H105.761V100.122H106.161V99.722ZM109.617 99.722H110.017V99.322H109.617V99.722ZM109.617 110.4H111.831V109.6H109.617V110.4ZM112.231 110V99.722H111.431V110H112.231ZM111.831 100.122H115.323V99.322H111.831V100.122ZM115.723 99.722V97.868H114.923V99.722H115.723ZM115.323 97.468H106.161V98.268H115.323V97.468ZM105.761 97.868V99.722H106.561V97.868H105.761ZM106.161 100.122H109.617V99.322H106.161V100.122ZM109.217 99.722V110H110.017V99.722H109.217ZM115.765 110H115.365V110.4H115.765V110ZM117.979 110V110.4H118.379V110H117.979ZM118.051 104.78L117.659 104.702L117.658 104.708L118.051 104.78ZM120.679 103.178L120.601 103.57L121.079 103.666V103.178H120.679ZM120.679 101.09H121.079V100.762L120.758 100.698L120.679 101.09ZM117.763 102.908V103.308H118.048L118.141 103.039L117.763 102.908ZM117.691 102.908L117.292 102.925L117.308 103.308H117.691V102.908ZM117.619 101.234L118.019 101.217L118.002 100.834H117.619V101.234ZM115.693 101.234V100.834H115.265L115.294 101.261L115.693 101.234ZM115.765 110.4H117.979V109.6H115.765V110.4ZM118.379 110V105.464H117.579V110H118.379ZM118.379 105.464C118.379 105.248 118.41 105.042 118.445 104.852L117.658 104.708C117.62 104.914 117.579 105.176 117.579 105.464H118.379ZM118.443 104.858C118.608 104.034 119.181 103.506 120.031 103.506V102.706C118.757 102.706 117.89 103.546 117.659 104.702L118.443 104.858ZM120.031 103.506C120.262 103.506 120.43 103.536 120.601 103.57L120.758 102.786C120.569 102.748 120.34 102.706 120.031 102.706V103.506ZM121.079 103.178V101.09H120.279V103.178H121.079ZM120.758 100.698C120.558 100.658 120.406 100.636 120.157 100.636V101.436C120.341 101.436 120.44 101.45 120.601 101.482L120.758 100.698ZM120.157 100.636C119.042 100.636 117.87 101.382 117.385 102.777L118.141 103.039C118.52 101.95 119.4 101.436 120.157 101.436V100.636ZM117.763 102.508H117.691V103.308H117.763V102.508ZM118.091 102.891L118.019 101.217L117.22 101.251L117.292 102.925L118.091 102.891ZM117.619 100.834H115.693V101.634H117.619V100.834ZM115.294 101.261C115.347 102.04 115.365 102.875 115.365 104.06H116.165C116.165 102.869 116.147 102.012 116.092 101.207L115.294 101.261ZM115.365 104.06V110H116.165V104.06H115.365ZM128.953 110V110.4H129.425L129.348 109.934L128.953 110ZM122.041 101.81L121.832 101.469L121.569 101.63L121.658 101.925L122.041 101.81ZM122.473 103.25L122.09 103.365L122.242 103.871L122.688 103.587L122.473 103.25ZM126.613 104.276L126.611 104.676L127.013 104.678V104.276H126.613ZM126.757 109.028V108.628H126.563L126.443 108.78L126.757 109.028ZM126.811 109.028L127.207 108.969L127.156 108.628H126.811V109.028ZM126.955 110L126.559 110.059L126.61 110.4H126.955V110ZM126.595 107.408L126.215 107.281L126.213 107.288L126.595 107.408ZM126.667 105.716H127.067V105.325L126.676 105.316L126.667 105.716ZM129.348 109.934C129.263 109.428 129.227 108.68 129.227 107.894H128.427C128.427 108.692 128.463 109.492 128.558 110.066L129.348 109.934ZM129.227 107.894V104.726H128.427V107.894H129.227ZM129.227 104.726C129.227 103.725 129.016 102.697 128.382 101.914C127.735 101.115 126.703 100.636 125.209 100.636V101.436C126.523 101.436 127.3 101.848 127.76 102.417C128.233 103.002 128.427 103.819 128.427 104.726H129.227ZM125.209 100.636C123.757 100.636 122.549 101.031 121.832 101.469L122.25 102.151C122.829 101.797 123.889 101.436 125.209 101.436V100.636ZM121.658 101.925L122.09 103.365L122.856 103.135L122.424 101.695L121.658 101.925ZM122.688 103.587C123.214 103.253 124.038 103.002 124.831 103.002V102.202C123.896 102.202 122.92 102.491 122.258 102.913L122.688 103.587ZM124.831 103.002C125.519 103.002 125.835 103.21 125.992 103.403C126.162 103.612 126.213 103.888 126.213 104.132H127.013C127.013 103.8 126.947 103.311 126.613 102.899C126.266 102.471 125.691 102.202 124.831 102.202V103.002ZM126.213 104.132V104.276H127.013V104.132H126.213ZM126.615 103.876C124.959 103.867 123.573 104.145 122.587 104.755C121.576 105.379 121.011 106.339 121.011 107.588H121.811C121.811 106.623 122.227 105.918 123.007 105.435C123.812 104.938 125.027 104.667 126.611 104.676L126.615 103.876ZM121.011 107.588C121.011 109.127 122.166 110.598 124.165 110.598V109.798C122.636 109.798 121.811 108.713 121.811 107.588H121.011ZM124.165 110.598C125.415 110.598 126.451 110.061 127.071 109.276L126.443 108.78C125.983 109.363 125.183 109.798 124.165 109.798V110.598ZM126.757 109.428H126.811V108.628H126.757V109.428ZM126.415 109.087L126.559 110.059L127.351 109.941L127.207 108.969L126.415 109.087ZM126.955 110.4H128.953V109.6H126.955V110.4ZM126.267 106.922C126.267 107.039 126.252 107.173 126.215 107.282L126.974 107.534C127.046 107.319 127.067 107.093 127.067 106.922H126.267ZM126.213 107.288C126.066 107.758 125.567 108.214 124.867 108.214V109.014C125.93 109.014 126.728 108.318 126.977 107.528L126.213 107.288ZM124.867 108.214C124.588 108.214 124.378 108.136 124.243 108.012C124.114 107.895 124.007 107.696 124.007 107.354H123.207C123.207 107.876 123.379 108.307 123.704 108.604C124.024 108.894 124.444 109.014 124.867 109.014V108.214ZM124.007 107.354C124.007 107.101 124.076 106.916 124.185 106.771C124.297 106.622 124.469 106.493 124.709 106.389C125.199 106.176 125.894 106.098 126.658 106.116L126.676 105.316C125.874 105.298 125.039 105.373 124.39 105.655C124.061 105.798 123.762 106.002 123.545 106.291C123.325 106.584 123.207 106.941 123.207 107.354H124.007ZM126.267 105.716V106.922H127.067V105.716H126.267ZM130.624 109.568L130.237 109.464L130.156 109.766L130.429 109.918L130.624 109.568ZM136.852 107.444H137.252L137.252 107.438L136.852 107.444ZM134.512 104.762L134.648 104.386L134.645 104.385L134.512 104.762ZM136.06 103.124L135.861 103.471L136.308 103.727L136.445 103.23L136.06 103.124ZM136.492 101.558L136.877 101.664L136.962 101.356L136.68 101.205L136.492 101.558ZM130.858 103.79L131.258 103.797V103.79H130.858ZM133.27 106.346L133.402 105.968L133.401 105.968L133.27 106.346ZM131.056 107.966L131.263 107.624L130.808 107.348L130.669 107.862L131.056 107.966ZM130.429 109.918C131.146 110.316 132.169 110.58 133.288 110.58V109.78C132.283 109.78 131.398 109.54 130.818 109.218L130.429 109.918ZM133.288 110.58C134.511 110.58 135.5 110.277 136.192 109.717C136.892 109.15 137.252 108.349 137.252 107.444H136.452C136.452 108.123 136.19 108.69 135.689 109.095C135.179 109.507 134.387 109.78 133.288 109.78V110.58ZM137.252 107.438C137.241 106.708 137.025 106.086 136.569 105.569C136.122 105.062 135.473 104.686 134.648 104.386L134.375 105.138C135.135 105.414 135.646 105.731 135.969 106.097C136.282 106.453 136.444 106.884 136.452 107.45L137.252 107.438ZM134.645 104.385C134.085 104.186 133.759 104.037 133.572 103.894C133.486 103.827 133.443 103.772 133.42 103.727C133.397 103.683 133.382 103.626 133.382 103.538H132.582C132.582 103.729 132.618 103.915 132.708 104.091C132.797 104.266 132.928 104.407 133.084 104.528C133.384 104.758 133.823 104.942 134.378 105.139L134.645 104.385ZM133.382 103.538C133.382 103.385 133.438 103.274 133.543 103.192C133.659 103.101 133.868 103.02 134.206 103.02V102.22C133.751 102.22 133.348 102.328 133.05 102.561C132.742 102.803 132.582 103.151 132.582 103.538H133.382ZM134.206 103.02C134.889 103.02 135.522 103.278 135.861 103.471L136.258 102.777C135.841 102.538 135.07 102.22 134.206 102.22V103.02ZM136.445 103.23L136.877 101.664L136.106 101.452L135.674 103.018L136.445 103.23ZM136.68 101.205C136.115 100.903 135.204 100.636 134.17 100.636V101.436C135.079 101.436 135.86 101.673 136.303 101.911L136.68 101.205ZM134.17 100.636C133.074 100.636 132.148 100.961 131.49 101.53C130.828 102.101 130.458 102.9 130.458 103.79H131.258C131.258 103.132 131.526 102.554 132.012 102.135C132.501 101.714 133.231 101.436 134.17 101.436V100.636ZM130.458 103.783C130.435 105.055 131.347 106.102 133.138 106.724L133.401 105.968C131.772 105.402 131.244 104.577 131.258 103.797L130.458 103.783ZM133.137 106.724C133.673 106.911 133.968 107.062 134.13 107.204C134.261 107.319 134.31 107.43 134.31 107.624H135.11C135.11 107.224 134.979 106.885 134.659 106.604C134.371 106.35 133.946 106.159 133.402 105.968L133.137 106.724ZM134.31 107.624C134.31 107.801 134.25 107.918 134.133 108.005C133.999 108.105 133.746 108.196 133.306 108.196V108.996C133.837 108.996 134.286 108.889 134.611 108.647C134.953 108.392 135.11 108.023 135.11 107.624H134.31ZM133.306 108.196C132.596 108.196 131.713 107.897 131.263 107.624L130.848 108.308C131.407 108.647 132.431 108.996 133.306 108.996V108.196ZM130.669 107.862L130.237 109.464L131.01 109.672L131.442 108.07L130.669 107.862ZM138.669 110H138.269V110.4H138.669V110ZM140.901 110V110.4H141.301V110H140.901ZM140.991 104.096L141.363 104.245L141.366 104.237L141.369 104.229L140.991 104.096ZM144.393 110H143.993V110.4H144.393V110ZM146.607 110V110.4H147.007V110H146.607ZM142.035 101.432L142.225 101.784L142.237 101.778L142.035 101.432ZM140.937 102.44V102.84H141.154L141.272 102.659L140.937 102.44ZM140.901 102.44H140.501V102.84H140.901V102.44ZM140.901 97.22H141.301V96.82H140.901V97.22ZM138.669 97.22V96.82H138.269V97.22H138.669ZM138.669 110.4H140.901V109.6H138.669V110.4ZM141.301 110V104.762H140.501V110H141.301ZM141.301 104.762C141.301 104.515 141.321 104.348 141.363 104.245L140.62 103.947C140.518 104.204 140.501 104.505 140.501 104.762H141.301ZM141.369 104.229C141.557 103.692 142.037 103.254 142.701 103.254V102.454C141.637 102.454 140.894 103.168 140.614 103.963L141.369 104.229ZM142.701 103.254C143.192 103.254 143.486 103.436 143.675 103.715C143.882 104.019 143.993 104.485 143.993 105.086H144.793C144.793 104.409 144.671 103.759 144.338 103.266C143.987 102.749 143.435 102.454 142.701 102.454V103.254ZM143.993 105.086V110H144.793V105.086H143.993ZM144.393 110.4H146.607V109.6H144.393V110.4ZM147.007 110V104.834H146.207V110H147.007ZM147.007 104.834C147.007 103.356 146.594 102.296 145.925 101.604C145.258 100.913 144.381 100.636 143.547 100.636V101.436C144.207 101.436 144.861 101.654 145.35 102.16C145.838 102.665 146.207 103.504 146.207 104.834H147.007ZM143.547 100.636C142.921 100.636 142.329 100.798 141.834 101.086L142.237 101.778C142.606 101.562 143.058 101.436 143.547 101.436V100.636ZM141.846 101.08C141.317 101.364 140.908 101.753 140.602 102.221L141.272 102.659C141.507 102.299 141.818 102.004 142.225 101.784L141.846 101.08ZM140.937 102.04H140.901V102.84H140.937V102.04ZM141.301 102.44V97.22H140.501V102.44H141.301ZM140.901 96.82H138.669V97.62H140.901V96.82ZM138.269 97.22V110H139.069V97.22H138.269ZM154.821 110V110.4H155.221V110H154.821ZM154.713 100.496L154.586 100.117L154.296 100.213L154.313 100.519L154.713 100.496ZM154.767 100.478L155.134 100.319L154.988 99.9827L154.64 100.099L154.767 100.478ZM156.945 104.672L156.599 104.873L156.601 104.876L156.945 104.672ZM160.113 110L159.769 110.204L159.885 110.4H160.113V110ZM162.399 110V110.4H162.799V110H162.399ZM162.399 97.868H162.799V97.468H162.399V97.868ZM160.347 97.868V97.468H159.947V97.868H160.347ZM160.545 107.138V107.538H160.982L160.943 107.103L160.545 107.138ZM160.509 107.138L160.141 107.294L160.244 107.538H160.509V107.138ZM158.439 103.07L158.782 102.864L158.781 102.864L158.439 103.07ZM155.307 97.868L155.649 97.6617L155.533 97.468H155.307V97.868ZM152.787 97.868V97.468H152.387V97.868H152.787ZM152.787 110H152.387V110.4H152.787V110ZM155.221 110V105.662H154.421V110H155.221ZM155.221 105.662C155.221 103.663 155.203 102.051 155.112 100.473L154.313 100.519C154.403 102.073 154.421 103.665 154.421 105.662H155.221ZM154.839 100.875L154.893 100.857L154.64 100.099L154.586 100.117L154.839 100.875ZM154.4 100.637C155.003 102.026 155.822 103.536 156.599 104.873L157.291 104.471C156.52 103.144 155.719 101.666 155.134 100.319L154.4 100.637ZM156.601 104.876L159.769 110.204L160.457 109.796L157.289 104.468L156.601 104.876ZM160.113 110.4H162.399V109.6H160.113V110.4ZM162.799 110V97.868H161.999V110H162.799ZM162.399 97.468H160.347V98.268H162.399V97.468ZM159.947 97.868V102.098H160.747V97.868H159.947ZM159.947 102.098C159.947 103.96 160.001 105.539 160.146 107.173L160.943 107.103C160.801 105.497 160.747 103.944 160.747 102.098H159.947ZM160.545 106.738H160.509V107.538H160.545V106.738ZM160.877 106.982C160.312 105.652 159.602 104.231 158.782 102.864L158.096 103.276C158.896 104.609 159.589 105.996 160.141 107.294L160.877 106.982ZM158.781 102.864L155.649 97.6617L154.964 98.0743L158.096 103.276L158.781 102.864ZM155.307 97.468H152.787V98.268H155.307V97.468ZM152.387 97.868V110H153.187V97.868H152.387ZM152.787 110.4H154.821V109.6H152.787V110.4ZM164.951 110H164.551V110.4H164.951V110ZM167.165 110V110.4H167.565V110H167.165ZM167.165 104.852V104.452H166.765V104.852H167.165ZM171.629 104.852V105.252H172.029V104.852H171.629ZM171.629 103.034H172.029V102.634H171.629V103.034ZM167.165 103.034H166.765V103.434H167.165V103.034ZM167.165 99.686V99.286H166.765V99.686H167.165ZM171.953 99.686V100.086H172.353V99.686H171.953ZM171.953 97.868H172.353V97.468H171.953V97.868ZM164.951 97.868V97.468H164.551V97.868H164.951ZM164.951 110.4H167.165V109.6H164.951V110.4ZM167.565 110V104.852H166.765V110H167.565ZM167.165 105.252H171.629V104.452H167.165V105.252ZM172.029 104.852V103.034H171.229V104.852H172.029ZM171.629 102.634H167.165V103.434H171.629V102.634ZM167.565 103.034V99.686H166.765V103.034H167.565ZM167.165 100.086H171.953V99.286H167.165V100.086ZM172.353 99.686V97.868H171.553V99.686H172.353ZM171.953 97.468H164.951V98.268H171.953V97.468ZM164.551 97.868V110H165.351V97.868H164.551ZM176.431 110H176.031V110.4H176.431V110ZM178.645 110V110.4H179.045V110H178.645ZM178.645 99.722V99.322H178.245V99.722H178.645ZM182.137 99.722V100.122H182.537V99.722H182.137ZM182.137 97.868H182.537V97.468H182.137V97.868ZM172.975 97.868V97.468H172.575V97.868H172.975ZM172.975 99.722H172.575V100.122H172.975V99.722ZM176.431 99.722H176.831V99.322H176.431V99.722ZM176.431 110.4H178.645V109.6H176.431V110.4ZM179.045 110V99.722H178.245V110H179.045ZM178.645 100.122H182.137V99.322H178.645V100.122ZM182.537 99.722V97.868H181.737V99.722H182.537ZM182.137 97.468H172.975V98.268H182.137V97.468ZM172.575 97.868V99.722H173.375V97.868H172.575ZM172.975 100.122H176.431V99.322H172.975V100.122ZM176.031 99.722V110H176.831V99.722H176.031ZM181.794 109.568L181.407 109.464L181.326 109.766L181.599 109.918L181.794 109.568ZM188.022 107.444H188.422L188.421 107.438L188.022 107.444ZM185.682 104.762L185.818 104.386L185.815 104.385L185.682 104.762ZM187.23 103.124L187.031 103.471L187.478 103.727L187.615 103.23L187.23 103.124ZM187.662 101.558L188.047 101.664L188.132 101.356L187.85 101.205L187.662 101.558ZM182.028 103.79L182.428 103.797V103.79H182.028ZM184.44 106.346L184.572 105.968L184.571 105.968L184.44 106.346ZM182.226 107.966L182.433 107.624L181.978 107.348L181.839 107.862L182.226 107.966ZM181.599 109.918C182.316 110.316 183.338 110.58 184.458 110.58V109.78C183.453 109.78 182.567 109.54 181.988 109.218L181.599 109.918ZM184.458 110.58C185.68 110.58 186.67 110.277 187.362 109.717C188.062 109.15 188.422 108.349 188.422 107.444H187.622C187.622 108.123 187.36 108.69 186.859 109.095C186.349 109.507 185.557 109.78 184.458 109.78V110.58ZM188.421 107.438C188.411 106.708 188.195 106.086 187.739 105.569C187.292 105.062 186.643 104.686 185.818 104.386L185.545 105.138C186.304 105.414 186.816 105.731 187.139 106.097C187.452 106.453 187.614 106.884 187.622 107.45L188.421 107.438ZM185.815 104.385C185.255 104.186 184.929 104.037 184.742 103.894C184.655 103.827 184.613 103.772 184.59 103.727C184.567 103.683 184.552 103.626 184.552 103.538H183.752C183.752 103.729 183.788 103.915 183.878 104.091C183.967 104.266 184.098 104.407 184.254 104.528C184.553 104.758 184.992 104.942 185.548 105.139L185.815 104.385ZM184.552 103.538C184.552 103.385 184.608 103.274 184.713 103.192C184.829 103.101 185.038 103.02 185.376 103.02V102.22C184.921 102.22 184.518 102.328 184.22 102.561C183.911 102.803 183.752 103.151 183.752 103.538H184.552ZM185.376 103.02C186.059 103.02 186.692 103.278 187.031 103.471L187.428 102.777C187.011 102.538 186.24 102.22 185.376 102.22V103.02ZM187.615 103.23L188.047 101.664L187.276 101.452L186.844 103.018L187.615 103.23ZM187.85 101.205C187.285 100.903 186.374 100.636 185.34 100.636V101.436C186.249 101.436 187.03 101.673 187.473 101.911L187.85 101.205ZM185.34 100.636C184.244 100.636 183.318 100.961 182.659 101.53C181.998 102.101 181.628 102.9 181.628 103.79H182.428C182.428 103.132 182.696 102.554 183.182 102.135C183.671 101.714 184.401 101.436 185.34 101.436V100.636ZM181.628 103.783C181.605 105.055 182.517 106.102 184.308 106.724L184.571 105.968C182.942 105.402 182.414 104.577 182.427 103.797L181.628 103.783ZM184.307 106.724C184.843 106.911 185.138 107.062 185.3 107.204C185.43 107.319 185.48 107.43 185.48 107.624H186.28C186.28 107.224 186.149 106.885 185.829 106.604C185.541 106.35 185.116 106.159 184.572 105.968L184.307 106.724ZM185.48 107.624C185.48 107.801 185.42 107.918 185.303 108.005C185.169 108.105 184.916 108.196 184.476 108.196V108.996C185.007 108.996 185.456 108.889 185.781 108.647C186.123 108.392 186.28 108.023 186.28 107.624H185.48ZM184.476 108.196C183.766 108.196 182.883 107.897 182.433 107.624L182.018 108.308C182.576 108.647 183.601 108.996 184.476 108.996V108.196ZM181.839 107.862L181.407 109.464L182.18 109.672L182.612 108.07L181.839 107.862Z" fill="white"/>
<path d="M42.6266 108.964C43.3466 109.054 44.3186 109.126 45.6146 109.126C47.9726 109.126 49.8986 108.568 51.1046 107.47C52.2566 106.426 52.9946 104.806 52.9946 102.646C52.9946 100.576 52.2746 99.136 51.1046 98.182C49.9886 97.246 48.4226 96.778 46.1546 96.778C44.8406 96.778 43.5986 96.868 42.6266 97.03V108.964ZM44.8406 98.632C45.1466 98.56 45.6506 98.506 46.3526 98.506C49.1246 98.506 50.6726 100.036 50.6546 102.718C50.6546 105.796 48.9446 107.38 46.0646 107.362C45.6146 107.362 45.1466 107.362 44.8406 107.308V98.632ZM62.2577 105.238C62.2937 105.04 62.3297 104.716 62.3297 104.302C62.3297 102.376 61.3937 100.036 58.5497 100.036C55.7417 100.036 54.2657 102.322 54.2657 104.752C54.2657 107.434 55.9397 109.18 58.7837 109.18C60.0437 109.18 61.0877 108.946 61.8437 108.64L61.5197 107.11C60.8537 107.362 60.1157 107.506 59.0897 107.506C57.6857 107.506 56.4437 106.822 56.3897 105.238H62.2577ZM56.3897 103.69C56.4797 102.79 57.0557 101.548 58.4237 101.548C59.8997 101.548 60.2597 102.88 60.2417 103.69H56.3897ZM63.565 108.568C64.213 108.928 65.167 109.18 66.229 109.18C68.551 109.18 69.793 108.028 69.793 106.444C69.775 105.148 69.037 104.338 67.453 103.762C66.337 103.366 65.923 103.096 65.923 102.538C65.923 101.998 66.355 101.62 67.147 101.62C67.921 101.62 68.623 101.908 69.001 102.124L69.433 100.558C68.929 100.288 68.083 100.036 67.111 100.036C65.077 100.036 63.799 101.242 63.799 102.79C63.781 103.816 64.501 104.752 66.211 105.346C67.291 105.724 67.651 106.03 67.651 106.624C67.651 107.2 67.219 107.596 66.247 107.596C65.455 107.596 64.501 107.272 63.997 106.966L63.565 108.568ZM71.9889 98.254V100.234H70.7289V101.89H71.9889V106.012C71.9889 107.164 72.2049 107.956 72.6729 108.46C73.0869 108.91 73.7709 109.18 74.5809 109.18C75.2829 109.18 75.8589 109.09 76.1829 108.964L76.1469 107.272C75.9489 107.326 75.6609 107.38 75.2829 107.38C74.4369 107.38 74.1489 106.822 74.1489 105.76V101.89H76.2549V100.234H74.1489V97.732L71.9889 98.254ZM77.9214 109H80.1354V104.464C80.1354 104.212 80.1714 103.978 80.2074 103.78C80.4054 102.79 81.1254 102.106 82.1874 102.106C82.4574 102.106 82.6554 102.142 82.8354 102.178V100.09C82.6554 100.054 82.5294 100.036 82.3134 100.036C81.3774 100.036 80.3514 100.666 79.9194 101.908H79.8474L79.7754 100.234H77.8494C77.9034 101.026 77.9214 101.872 77.9214 103.06V109ZM88.1572 100.036C85.5112 100.036 83.6212 101.8 83.6212 104.68C83.6212 107.488 85.5292 109.198 88.0132 109.198C90.2452 109.198 92.5132 107.758 92.5132 104.536C92.5132 101.872 90.7672 100.036 88.1572 100.036ZM88.1032 101.656C89.6152 101.656 90.2272 103.222 90.2272 104.59C90.2272 106.354 89.3452 107.596 88.0852 107.596C86.7352 107.596 85.9072 106.318 85.9072 104.626C85.9072 103.168 86.5372 101.656 88.1032 101.656ZM93.1547 100.234L96.3587 108.28C96.4667 108.496 96.4847 108.622 96.4847 108.712C96.4847 108.82 96.4307 108.946 96.3407 109.108C96.0347 109.702 95.5487 110.224 95.1347 110.494C94.6847 110.818 94.2167 111.016 93.8387 111.106L94.3427 112.978C94.9007 112.906 95.8007 112.618 96.6647 111.844C97.7087 110.944 98.5187 109.486 99.7247 106.21L101.921 100.234H99.5447L98.1767 104.914C98.0147 105.49 97.8527 106.138 97.7087 106.642H97.6547C97.5287 106.138 97.3487 105.472 97.1687 104.932L95.5847 100.234H93.1547ZM108.617 109H110.831V98.722H114.323V96.868H105.161V98.722H108.617V109ZM114.765 109H116.979V104.464C116.979 104.212 117.015 103.978 117.051 103.78C117.249 102.79 117.969 102.106 119.031 102.106C119.301 102.106 119.499 102.142 119.679 102.178V100.09C119.499 100.054 119.373 100.036 119.157 100.036C118.221 100.036 117.195 100.666 116.763 101.908H116.691L116.619 100.234H114.693C114.747 101.026 114.765 101.872 114.765 103.06V109ZM127.953 109C127.863 108.46 127.827 107.686 127.827 106.894V103.726C127.827 101.818 127.017 100.036 124.209 100.036C122.823 100.036 121.689 100.414 121.041 100.81L121.473 102.25C122.067 101.872 122.967 101.602 123.831 101.602C125.379 101.602 125.613 102.556 125.613 103.132V103.276C122.373 103.258 120.411 104.374 120.411 106.588C120.411 107.92 121.401 109.198 123.165 109.198C124.299 109.198 125.217 108.712 125.757 108.028H125.811L125.955 109H127.953ZM125.667 105.922C125.667 106.066 125.649 106.246 125.595 106.408C125.397 107.038 124.749 107.614 123.867 107.614C123.165 107.614 122.607 107.218 122.607 106.354C122.607 105.022 124.101 104.68 125.667 104.716V105.922ZM129.624 108.568C130.272 108.928 131.226 109.18 132.288 109.18C134.61 109.18 135.852 108.028 135.852 106.444C135.834 105.148 135.096 104.338 133.512 103.762C132.396 103.366 131.982 103.096 131.982 102.538C131.982 101.998 132.414 101.62 133.206 101.62C133.98 101.62 134.682 101.908 135.06 102.124L135.492 100.558C134.988 100.288 134.142 100.036 133.17 100.036C131.136 100.036 129.858 101.242 129.858 102.79C129.84 103.816 130.56 104.752 132.27 105.346C133.35 105.724 133.71 106.03 133.71 106.624C133.71 107.2 133.278 107.596 132.306 107.596C131.514 107.596 130.56 107.272 130.056 106.966L129.624 108.568ZM137.669 109H139.901V103.762C139.901 103.51 139.919 103.276 139.991 103.096C140.225 102.43 140.837 101.854 141.701 101.854C142.925 101.854 143.393 102.808 143.393 104.086V109H145.607V103.834C145.607 101.026 144.041 100.036 142.547 100.036C141.989 100.036 141.467 100.18 141.035 100.432C140.567 100.684 140.207 101.026 139.937 101.44H139.901V96.22H137.669V109ZM153.821 109V104.662C153.821 102.664 153.803 101.062 153.713 99.496L153.767 99.478C154.361 100.846 155.171 102.34 155.945 103.672L159.113 109H161.399V96.868H159.347V101.098C159.347 102.952 159.401 104.518 159.545 106.138H159.509C158.951 104.824 158.249 103.42 157.439 102.07L154.307 96.868H151.787V109H153.821ZM163.951 109H166.165V103.852H170.629V102.034H166.165V98.686H170.953V96.868H163.951V109ZM175.431 109H177.645V98.722H181.137V96.868H171.975V98.722H175.431V109ZM180.794 108.568C181.442 108.928 182.396 109.18 183.458 109.18C185.78 109.18 187.022 108.028 187.022 106.444C187.004 105.148 186.266 104.338 184.682 103.762C183.566 103.366 183.152 103.096 183.152 102.538C183.152 101.998 183.584 101.62 184.376 101.62C185.15 101.62 185.852 101.908 186.23 102.124L186.662 100.558C186.158 100.288 185.312 100.036 184.34 100.036C182.306 100.036 181.028 101.242 181.028 102.79C181.01 103.816 181.73 104.752 183.44 105.346C184.52 105.724 184.88 106.03 184.88 106.624C184.88 107.2 184.448 107.596 183.476 107.596C182.684 107.596 181.73 107.272 181.226 106.966L180.794 108.568Z" fill="#150035"/>
</svg>
