<svg width="31" height="27" viewBox="0 0 31 27" fill="none" xmlns="http://www.w3.org/2000/svg">
<path d="M2.55134 15.1889L2.65476 15.0263L8.89093 5.27062C8.98208 5.12779 9.19634 5.14256 9.26529 5.29771C10.3071 7.63257 11.2061 10.5364 10.7849 12.3442C10.6052 13.088 10.1126 14.0953 9.55837 15.0263C9.48698 15.1618 9.40816 15.2948 9.3244 15.4229C9.28499 15.482 9.21849 15.5165 9.14706 15.5165H2.73358C2.56117 15.5165 2.4602 15.3293 2.55134 15.1889Z" fill="black"/>
<path d="M30.3482 17.0017V18.546C30.3482 18.6346 30.2941 18.7134 30.2152 18.7479C29.7325 18.9548 28.0799 19.7134 27.3927 20.669C25.6391 23.1098 24.2993 26.5998 21.3043 26.5998H8.80982C4.38149 26.5998 0.792969 22.999 0.792969 18.5558V18.413C0.792969 18.2947 0.889002 18.1987 1.00723 18.1987H7.97246C8.11035 18.1987 8.21132 18.3268 8.19905 18.4622C8.14976 18.9154 8.23352 19.3784 8.44779 19.7996C8.86155 20.6395 9.71866 21.1641 10.6447 21.1641H14.0929V18.4721H10.6841C10.5093 18.4721 10.4059 18.2701 10.5068 18.1273C10.5437 18.0706 10.5856 18.0115 10.6299 17.945C10.9526 17.4869 11.4132 16.7751 11.8713 15.9648C12.1841 15.418 12.487 14.8343 12.7308 14.2481C12.7801 14.1422 12.8195 14.0338 12.8589 13.9279C12.9254 13.7407 12.9944 13.5659 13.0436 13.391C13.0929 13.2432 13.1323 13.0881 13.1717 12.9427C13.2875 12.4452 13.3367 11.9182 13.3367 11.3714C13.3367 11.1571 13.3269 10.933 13.3072 10.7187C13.2973 10.4848 13.2678 10.2507 13.2382 10.0168C13.2185 9.80989 13.1816 9.60545 13.1422 9.39119C13.0929 9.07839 13.0239 8.7681 12.9451 8.45525L12.918 8.33707C12.8589 8.12276 12.8097 7.91837 12.7407 7.7041C12.5461 7.03168 12.322 6.37656 12.0855 5.7633C11.9993 5.51945 11.9008 5.28548 11.8023 5.05151C11.657 4.69931 11.5092 4.37913 11.3738 4.07617C11.3048 3.93823 11.2457 3.81262 11.1866 3.68456C11.1201 3.53924 11.0511 3.39392 10.9821 3.25603C10.9329 3.15012 10.8762 3.05159 10.8368 2.95306L10.4157 2.17478C10.3566 2.06887 10.4551 1.94325 10.5708 1.97528L13.2062 2.68951H13.2136C13.2185 2.68951 13.221 2.692 13.2234 2.692L13.5707 2.78804L13.9525 2.89644L14.0929 2.9358V1.3694C14.0929 0.613261 14.6987 0 15.4475 0C15.8218 0 16.1617 0.152704 16.4056 0.401441C16.6494 0.650227 16.8021 0.990107 16.8021 1.3694V3.69443L17.0829 3.77321C17.105 3.78064 17.1272 3.79047 17.1469 3.80523C17.2159 3.85697 17.3144 3.93329 17.44 4.02693C17.5385 4.1057 17.6444 4.20179 17.7725 4.30031C18.0261 4.5047 18.3291 4.76825 18.6616 5.07122C18.7503 5.14754 18.8365 5.22637 18.9153 5.30519C19.3439 5.70418 19.8241 6.17213 20.2822 6.68935C20.4103 6.83467 20.5359 6.98244 20.664 7.13759C20.792 7.29523 20.9275 7.45038 21.0457 7.60558C21.2009 7.81246 21.3684 8.02672 21.5137 8.25087C21.5826 8.35678 21.6615 8.46513 21.728 8.57104C21.9151 8.85425 22.0802 9.14739 22.2378 9.44047C22.3043 9.57592 22.3733 9.72368 22.4324 9.869C22.6072 10.2606 22.7452 10.6596 22.8338 11.0586C22.8609 11.1448 22.8806 11.2384 22.8905 11.3222V11.3419C22.92 11.4601 22.9299 11.5857 22.9397 11.7137C22.9791 12.1226 22.9594 12.5314 22.8708 12.9427C22.8338 13.1176 22.7846 13.2826 22.7255 13.4575C22.6663 13.625 22.6072 13.7999 22.5309 13.9649C22.3831 14.3072 22.2082 14.6496 22.0013 14.9698C21.9348 15.088 21.856 15.2136 21.7772 15.3318C21.691 15.4574 21.6024 15.5756 21.5235 15.6914C21.4152 15.8392 21.2994 15.9943 21.1812 16.1323C21.0753 16.2776 20.9669 16.4229 20.8487 16.551C20.6837 16.7455 20.526 16.9303 20.361 17.1076C20.2625 17.2234 20.1566 17.3416 20.0482 17.4475C19.9424 17.5657 19.834 17.6716 19.7354 17.7701C19.5704 17.9351 19.4325 18.0632 19.3167 18.1691L19.0458 18.4179C19.0064 18.4524 18.9547 18.4721 18.9005 18.4721H16.8021V21.1641H19.4423C20.0335 21.1641 20.595 20.9547 21.0482 20.5705C21.2034 20.435 21.8807 19.8489 22.6811 18.9647C22.7082 18.9351 22.7427 18.9129 22.7821 18.9031L30.0749 16.7948C30.2104 16.7554 30.3482 16.8588 30.3482 17.0017Z" fill="black"/>
</svg>
