<svg width="1454" height="67" viewBox="0 0 1454 67" fill="none" xmlns="http://www.w3.org/2000/svg">
<rect width="1728" height="1117" transform="translate(-134 -75)" fill="#FF5C5C"/>
<path d="M262.403 34.8284C261.486 40.3254 255.069 42.9365 253.923 43.3946C255.069 43.8069 261.486 46.418 262.403 51.915C263.686 46.647 269.966 43.9443 271.112 43.532C269.966 43.0739 263.503 40.4628 262.541 34.9658C262.541 34.7367 262.449 34.7367 262.403 34.8284Z" fill="white"/>
<path d="M287.109 34.8284C286.192 40.3254 279.775 42.9365 278.629 43.3946C279.775 43.8069 286.192 46.418 287.109 51.915C288.163 46.647 294.626 43.9443 295.772 43.532C294.581 43.0739 288.118 40.4628 287.201 34.9658C287.201 34.7367 287.109 34.7367 287.109 34.8284Z" fill="white"/>
<path d="M311.769 34.8284C310.853 40.3254 304.435 42.9365 303.29 43.3946C304.435 43.8069 310.853 46.418 311.769 51.915C312.732 46.418 319.195 43.8069 320.341 43.3946C319.195 42.9365 312.732 40.3254 311.769 34.8284C311.815 34.7367 311.907 34.7367 311.769 34.8284Z" fill="white"/>
<path d="M336.475 34.8284C335.513 40.3254 329.096 42.9365 327.95 43.3946C329.096 43.8069 335.513 46.418 336.475 51.915C337.438 46.418 343.901 43.8069 345.047 43.3946C343.901 42.9365 337.438 40.3254 336.475 34.8284C336.475 34.7367 336.567 34.7367 336.475 34.8284Z" fill="white"/>
<path d="M361.136 34.8284C360.219 40.3254 353.802 42.9365 352.656 43.3946C353.802 43.8069 360.219 46.418 361.136 51.915C362.052 46.418 368.561 43.8069 369.707 43.3946C368.561 42.9365 362.052 40.3254 361.136 34.8284Z" fill="white"/>
<path d="M385.796 34.8284C384.879 40.3254 378.462 42.9365 377.316 43.3946C378.462 43.8069 384.879 46.418 385.796 51.915C386.758 46.418 393.222 43.8069 394.367 43.3946C393.222 42.9365 386.758 40.3254 385.796 34.8284C385.842 34.7367 385.933 34.7367 385.796 34.8284Z" fill="white"/>
<path d="M410.364 34.8284C409.402 40.3254 402.985 42.9365 401.885 43.3946C402.985 43.8069 409.402 46.418 410.364 51.915C411.281 46.418 417.744 43.8069 418.89 43.3946C417.744 42.9365 411.281 40.3254 410.364 34.8284C410.364 34.7367 410.594 34.7367 410.364 34.8284Z" fill="white"/>
<path d="M435.162 34.8284C434.246 40.3254 427.828 42.9365 426.682 43.3946C427.828 43.8069 434.246 46.418 435.162 51.915C436.079 46.418 442.588 43.8069 443.734 43.3946C442.588 42.9365 436.079 40.3254 435.162 34.8284C435.208 34.7367 435.3 34.7367 435.162 34.8284Z" fill="white"/>
<path d="M459.868 34.8284C458.906 40.3254 452.489 42.9365 451.343 43.3946C452.489 43.8069 458.906 46.418 459.868 51.915C460.831 46.418 467.294 43.8069 468.44 43.3946C467.294 42.9365 460.831 40.3254 459.868 34.8284C459.868 34.7367 459.96 34.7367 459.868 34.8284Z" fill="white"/>
<path d="M484.529 34.8284C483.612 40.3254 477.195 42.9365 476.049 43.3946C477.195 43.8069 483.612 46.418 484.529 51.915C485.445 46.418 491.908 43.8069 493.1 43.3946C491.954 42.9365 485.445 40.3254 484.529 34.8284Z" fill="white"/>
<path d="M15.6632 34.8284C14.7006 40.3254 8.28343 42.9365 7 43.3946C8.14592 43.8069 14.5631 46.418 15.5257 51.915C16.7174 46.647 23.1804 43.9443 24.3263 43.532C23.1804 43.0739 16.7174 40.4628 15.7548 34.9658C15.7548 34.7367 15.6632 34.7367 15.6632 34.8284Z" fill="white"/>
<path d="M40.3234 34.8284C39.4067 40.3254 32.9895 42.9365 31.8436 43.3946C32.9895 43.8069 39.4067 46.418 40.3234 51.915C41.3776 46.647 47.8406 43.9443 49.0324 43.532C47.8406 43.0739 41.3776 40.4628 40.4609 34.9658C40.4151 34.7367 40.3234 34.7367 40.3234 34.8284Z" fill="white"/>
<path d="M64.9837 34.8284C64.0669 40.3254 57.6498 42.9365 56.5038 43.3946C57.6498 43.8069 64.0669 46.418 64.9837 51.915C65.9462 46.418 72.4092 43.8069 73.5552 43.3946C72.4092 42.9365 65.9462 40.3254 64.9837 34.8284C65.1212 34.7367 65.0295 34.7367 64.9837 34.8284Z" fill="white"/>
<path d="M89.5064 34.8284C88.5438 40.3254 82.1266 42.9365 80.9807 43.3946C82.1266 43.8069 88.5438 46.418 89.5064 51.915C90.4231 46.418 96.8861 43.8069 98.032 43.3946C96.8861 42.9365 90.4231 40.3254 89.5064 34.8284C89.5064 34.7367 89.7814 34.7367 89.5064 34.8284Z" fill="white"/>
<path d="M114.35 34.8284C113.433 40.3254 107.016 42.9365 105.87 43.3946C107.016 43.8069 113.433 46.418 114.35 51.915C115.267 46.418 121.776 43.8069 122.921 43.3946C121.776 42.9365 115.267 40.3254 114.35 34.8284Z" fill="white"/>
<path d="M139.056 34.8284C138.093 40.3254 131.676 42.9365 130.76 43.3946C131.905 43.8069 138.323 46.418 139.285 51.915C139.927 46.647 146.573 43.9443 147.719 43.532C146.573 43.0739 140.11 40.4628 139.148 34.9658C139.148 34.7367 139.056 34.7367 139.056 34.8284Z" fill="white"/>
<path d="M163.716 34.8284C162.8 40.3254 156.382 42.9365 155.236 43.3946C156.382 43.8069 162.8 46.418 163.716 51.915C164.633 46.418 171.096 43.8069 172.288 43.3946C171.096 42.9365 164.633 40.3254 163.716 34.8284C163.716 34.7367 163.808 34.7367 163.716 34.8284Z" fill="white"/>
<path d="M188.377 34.8284C187.46 40.3254 181.043 42.9365 179.897 43.3946C181.043 43.8069 187.46 46.418 188.377 51.915C189.339 46.418 195.802 43.8069 196.948 43.3946C195.802 42.9365 189.339 40.3254 188.377 34.8284C188.422 34.7367 188.514 34.7367 188.377 34.8284Z" fill="white"/>
<path d="M213.266 34.8284C212.303 40.3254 205.886 42.9365 204.74 43.3946C205.886 43.8069 212.303 46.418 213.266 51.915C214.183 46.418 220.646 43.8069 221.792 43.3946C220.646 42.9365 214.183 40.3254 213.266 34.8284C213.266 34.7367 213.266 34.7367 213.266 34.8284Z" fill="white"/>
<path d="M237.743 34.8284C236.826 40.3254 230.409 42.9365 229.263 43.3946C230.409 43.8069 236.826 46.418 237.743 51.915C238.797 46.647 245.352 43.9443 246.452 43.532C245.306 43.0739 238.797 40.4628 237.88 34.9658L237.743 34.8284Z" fill="white"/>
<path d="M262.403 10C261.486 15.497 255.069 18.154 253.923 18.5662C255.069 18.9785 261.486 21.5896 262.403 27.0867C263.686 21.8187 269.966 19.1617 271.112 18.7495C269.966 18.1998 263.686 15.5429 262.541 10H262.403Z" fill="white"/>
<path d="M287.109 10C286.192 15.497 279.775 18.154 278.629 18.5662C279.775 18.9785 286.192 21.5896 287.109 27.0867C288.163 21.8187 294.626 19.1617 295.772 18.7495C294.581 18.3372 288.118 15.6803 287.201 10.1832L287.109 10Z" fill="white"/>
<path d="M311.769 10C310.853 15.497 304.435 18.154 303.29 18.5662C304.435 18.9785 310.853 21.5896 311.769 27.0867C312.732 21.6354 319.195 18.9785 320.341 18.5662C319.195 18.154 312.732 15.497 311.769 10V10Z" fill="white"/>
<path d="M336.475 10C335.513 15.497 329.096 18.154 327.95 18.5662C329.096 18.9785 335.513 21.5896 336.475 27.0867C337.438 21.6354 343.901 18.9785 345.047 18.5662C343.901 18.154 337.438 15.497 336.475 10V10Z" fill="white"/>
<path d="M361.136 10C360.219 15.497 353.802 18.154 352.656 18.5662C353.802 18.9785 360.219 21.5896 361.136 27.0867C362.052 21.6354 368.561 18.9785 369.707 18.5662C368.561 18.154 362.052 15.497 361.136 10V10Z" fill="white"/>
<path d="M385.796 10C384.879 15.497 378.462 18.154 377.316 18.5662C378.462 18.9785 384.879 21.5896 385.796 27.0867C386.758 21.6354 393.222 18.9785 394.367 18.5662C393.222 18.154 386.758 15.497 385.796 10V10Z" fill="white"/>
<path d="M410.364 10C409.402 15.497 402.985 18.154 401.885 18.5662C402.985 18.9785 409.402 21.5896 410.364 27.0867C411.281 21.6354 417.744 18.9785 418.89 18.5662C417.744 18.154 411.281 15.497 410.364 10V10Z" fill="white"/>
<path d="M435.162 10C434.246 15.497 427.828 18.154 426.682 18.5662C427.828 18.9785 434.246 21.5896 435.162 27.0867C436.079 21.6354 442.588 18.9785 443.734 18.5662C442.588 18.154 436.079 15.497 435.162 10V10Z" fill="white"/>
<path d="M459.868 10C458.906 15.497 452.489 18.154 451.343 18.5662C452.489 18.9785 458.906 21.5896 459.868 27.0867C460.785 21.8187 467.386 19.1617 468.531 18.7495C467.386 18.1998 460.785 15.5429 459.96 10H459.868Z" fill="white"/>
<path d="M484.529 10C483.612 15.497 477.195 18.154 476.049 18.5662C477.195 18.9785 483.612 21.5896 484.529 27.0867C485.445 21.6354 491.908 18.9785 493.1 18.5662C491.954 18.154 485.445 15.497 484.529 10V10Z" fill="white"/>
<path d="M509.189 34.8284C508.272 40.3254 501.855 42.9365 500.709 43.3946C501.855 43.8069 508.272 46.418 509.189 51.915C510.151 46.418 516.614 43.8069 517.76 43.3946C516.614 42.9365 510.151 40.3254 509.189 34.8284C509.235 34.7367 509.326 34.7367 509.189 34.8284Z" fill="white"/>
<path d="M534.124 34.8284C533.161 40.3254 526.744 42.9365 525.598 43.3946C526.744 43.8069 533.161 46.418 534.124 51.915C535.041 46.418 541.504 43.8069 542.65 43.3946C541.504 42.9365 535.041 40.3254 534.124 34.8284C534.124 34.7367 534.124 34.7367 534.124 34.8284Z" fill="white"/>
<path d="M509.189 10C508.272 15.497 501.855 18.154 500.709 18.5662C501.855 18.9785 508.272 21.5896 509.189 27.0867C510.151 21.6354 516.614 18.9785 517.76 18.5662C516.614 18.154 510.151 15.497 509.189 10V10Z" fill="white"/>
<path d="M534.124 10C533.161 15.497 526.744 18.154 525.598 18.5662C526.744 18.9785 533.161 21.5896 534.124 27.0867C535.041 21.6354 541.504 18.9785 542.65 18.5662C541.504 18.154 535.041 15.497 534.124 10V10Z" fill="white"/>
<path d="M558.555 10C557.638 15.497 551.221 18.154 550.075 18.5662C551.221 18.9785 557.638 21.5896 558.555 27.0867C559.472 21.6354 565.981 18.9785 567.127 18.5662C565.981 18.154 559.472 15.497 558.555 10V10Z" fill="white"/>
<path d="M583.261 10C582.299 15.497 575.881 18.154 574.736 18.5662C575.881 18.9785 582.299 21.5896 583.261 27.0867C584.224 21.6354 590.687 18.9785 591.833 18.5662C590.687 18.154 584.224 15.497 583.261 10V10Z" fill="white"/>
<path d="M15.6632 10C14.7006 15.5429 8.28343 18.1998 7 18.612C8.14592 19.0243 14.5631 21.6354 15.5257 27.1325C16.7174 21.8187 23.1804 19.1617 24.3263 18.7495C23.1804 18.1998 16.7174 15.5429 15.7548 10H15.6632Z" fill="white"/>
<path d="M40.3234 10C39.4067 15.497 32.9895 18.154 31.8436 18.5662C32.9895 18.9785 39.4067 21.5896 40.3234 27.0867C41.3776 21.8187 47.8406 19.1617 49.0324 18.7495C47.8406 18.1998 41.3776 15.5429 40.4609 10H40.3234Z" fill="white"/>
<path d="M64.9837 10C64.0669 15.497 57.6498 18.154 56.5038 18.5662C57.6498 18.9785 64.0669 21.5896 64.9837 27.0867C66.0837 21.8187 72.5468 19.1617 73.6927 18.7495C72.5468 18.3372 66.0838 15.6803 65.1212 10.1832L64.9837 10Z" fill="white"/>
<path d="M89.5064 10C88.5438 15.497 82.1266 18.154 80.9807 18.5662C82.1266 18.9785 88.5438 21.5896 89.5064 27.0867C90.4231 21.6354 96.8861 18.9785 98.032 18.5662C96.8861 18.154 90.4231 15.497 89.5064 10V10Z" fill="white"/>
<path d="M114.35 10C113.433 15.497 107.016 18.154 105.87 18.5662C107.016 18.9785 113.433 21.5896 114.35 27.0867C115.267 21.6354 121.776 18.9785 122.921 18.5662C121.776 18.154 115.267 15.497 114.35 10V10Z" fill="white"/>
<path d="M139.056 10C138.093 15.5429 131.676 18.1998 130.76 18.612C131.905 19.0243 138.323 21.6354 139.285 27.1325C139.927 21.8187 146.573 19.1617 147.719 18.7495C146.573 18.1998 139.927 15.5429 139.148 10H139.056Z" fill="white"/>
<path d="M163.716 10C162.8 15.497 156.382 18.154 155.236 18.5662C156.382 18.9785 162.8 21.5896 163.716 27.0867C164.633 21.6354 171.096 18.9785 172.288 18.5662C171.096 18.154 164.633 15.497 163.716 10V10Z" fill="white"/>
<path d="M188.377 10C187.46 15.497 181.043 18.154 179.897 18.5662C181.043 18.9785 187.46 21.5896 188.377 27.0867C189.339 21.6354 195.802 18.9785 196.948 18.5662C195.802 18.154 189.339 15.497 188.377 10V10Z" fill="white"/>
<path d="M213.266 10C212.303 15.497 205.886 18.154 204.74 18.5662C205.886 18.9785 212.303 21.5896 213.266 27.0867C214.183 21.6354 220.646 18.9785 221.792 18.5662C220.6 18.1998 214.137 15.5429 213.266 10Z" fill="white"/>
<path d="M237.743 10C236.826 15.497 230.409 18.154 229.263 18.5662C230.409 18.9785 236.826 21.5896 237.743 27.0867C238.797 21.8187 245.352 19.1617 246.452 18.7495C245.352 18.1998 238.797 15.5429 237.88 10H237.743Z" fill="white"/>
<path d="M1408.94 34.8284C1408.02 40.3254 1401.6 42.9365 1400.46 43.3946C1401.6 43.8069 1408.02 46.418 1408.94 51.915C1409.85 46.418 1416.36 43.8069 1417.51 43.3946C1416.36 42.9365 1409.85 40.3254 1408.94 34.8284Z" fill="white"/>
<path d="M1433.6 34.8284C1432.68 40.3254 1426.26 42.9365 1425.12 43.3946C1426.26 43.8069 1432.68 46.418 1433.6 51.915C1434.56 46.418 1441.02 43.8069 1442.17 43.3946C1441.02 42.9365 1434.56 40.3254 1433.6 34.8284C1433.64 34.7367 1433.74 34.7367 1433.6 34.8284Z" fill="white"/>
<path d="M1359.57 10C1358.65 15.497 1352.24 18.154 1351.09 18.5662C1352.24 18.9785 1358.65 21.5896 1359.57 27.0867C1360.53 21.6354 1367 18.9785 1368.14 18.5662C1367 18.154 1360.53 15.497 1359.57 10V10Z" fill="white"/>
<path d="M1384.28 10C1383.32 15.497 1376.9 18.154 1375.75 18.5662C1376.9 18.9785 1383.32 21.5896 1384.28 27.0867C1385.24 21.6354 1391.7 18.9785 1392.85 18.5662C1391.7 18.154 1385.24 15.497 1384.28 10V10Z" fill="white"/>
<path d="M1408.94 10C1408.02 15.497 1401.6 18.154 1400.46 18.5662C1401.6 18.9785 1408.02 21.5896 1408.94 27.0867C1409.85 21.6354 1416.36 18.9785 1417.51 18.5662C1416.36 18.154 1409.85 15.497 1408.94 10V10Z" fill="white"/>
<path d="M1433.6 10C1432.68 15.497 1426.26 18.154 1425.12 18.5662C1426.26 18.9785 1432.68 21.5896 1433.6 27.0867C1434.56 21.6354 1441.02 18.9785 1442.17 18.5662C1441.02 18.154 1434.56 15.497 1433.6 10V10Z" fill="white"/>
</svg>
