<svg width="1463" height="92" viewBox="0 0 1463 92" fill="none" xmlns="http://www.w3.org/2000/svg">
<rect width="1728" height="1117" transform="translate(-125 -977)" fill="#FF5C5C"/>
<path d="M271.311 60.8218C270.395 66.3188 263.977 68.9757 262.832 69.388C263.977 69.8003 270.395 72.4114 271.311 77.9084C272.228 72.4114 278.737 69.8003 279.883 69.388C278.737 68.9757 272.228 66.3188 271.311 60.8218Z" fill="white"/>
<path d="M296.017 60.8218C295.055 66.3188 288.638 68.9757 287.492 69.388C288.638 69.8003 295.055 72.4114 296.017 77.9084C296.98 72.4114 303.443 69.8003 304.589 69.388C303.443 68.9757 296.98 66.3188 296.017 60.8218Z" fill="white"/>
<path d="M320.678 60.8218C319.761 66.3188 313.344 68.9757 312.198 69.388C313.344 69.8003 319.761 72.4114 320.678 77.9084C321.594 72.4114 328.057 69.8003 329.249 69.388C328.057 68.9757 321.594 66.3188 320.678 60.8218Z" fill="white"/>
<path d="M345.338 60.8218C344.421 66.3188 338.004 68.9757 336.858 69.388C338.004 69.8003 344.421 72.4114 345.338 77.9084C346.301 72.4114 352.764 69.8003 353.909 69.388C352.764 68.9757 346.301 66.3188 345.338 60.8218Z" fill="white"/>
<path d="M370.044 60.8218C369.081 66.3188 362.664 68.9757 361.518 69.388C362.664 69.8003 369.081 72.4114 370.044 77.9084C370.961 72.4114 377.424 69.8003 378.57 69.388C377.424 68.9757 370.961 66.3188 370.044 60.8218Z" fill="white"/>
<path d="M394.704 60.8218C393.788 66.3188 387.37 68.9757 386.224 69.388C387.37 69.8003 393.788 72.4114 394.704 77.9084C395.621 72.4114 402.13 69.8003 403.276 69.388C402.13 68.9757 395.621 66.3188 394.704 60.8218Z" fill="white"/>
<path d="M419.364 60.8218C418.402 66.3188 411.985 68.9757 410.839 69.388C411.985 69.8003 418.402 72.4114 419.364 77.9084C420.327 72.4114 426.79 69.8003 427.936 69.388C426.79 68.9757 420.327 66.3188 419.364 60.8218Z" fill="white"/>
<path d="M444.071 60.8218C443.154 66.3188 436.737 68.9757 435.591 69.388C436.737 69.8003 443.154 72.4114 444.071 77.9084C444.987 72.4114 451.45 69.8003 452.642 69.388C451.45 68.9757 444.987 66.3188 444.071 60.8218Z" fill="white"/>
<path d="M468.731 60.8218C467.814 66.3188 461.397 68.9757 460.251 69.388C461.397 69.8003 467.814 72.4114 468.731 77.9084C469.693 72.4114 476.156 69.8003 477.302 69.388C476.156 68.9757 469.693 66.3188 468.731 60.8218Z" fill="white"/>
<path d="M493.437 60.8218C492.474 66.3188 486.057 68.9757 484.911 69.388C486.057 69.8003 492.474 72.4114 493.437 77.9084C494.399 72.4114 500.862 69.8003 502.008 69.388C500.862 68.9757 494.399 66.3188 493.437 60.8218Z" fill="white"/>
<path d="M24.5257 60.8218C23.6089 66.3188 17.1918 68.9757 16.0458 69.388C17.1918 69.8003 23.6089 72.4114 24.5257 77.9084C25.4882 72.4114 31.9512 69.8003 33.0972 69.388C31.9512 68.9757 25.4882 66.3188 24.5257 60.8218V60.8218Z" fill="white"/>
<path d="M49.2317 60.8218C48.2691 66.3188 41.852 68.9757 40.7061 69.388C41.852 69.8003 48.2691 72.4114 49.2317 77.9084C50.1943 72.4114 56.6573 69.8003 57.8032 69.388C56.6573 68.9757 50.1943 66.3188 49.2317 60.8218V60.8218Z" fill="white"/>
<path d="M73.892 60.8218C72.9753 66.3188 66.5581 68.9757 65.4122 69.388C66.5581 69.8003 72.9753 72.4114 73.892 77.9084C74.8087 72.4114 81.3176 69.8003 82.4635 69.388C81.3176 68.9757 74.8087 66.3188 73.892 60.8218V60.8218Z" fill="white"/>
<path d="M98.5064 60.8218C97.5896 66.3188 91.1725 68.9757 90.0266 69.388C91.1725 69.8003 97.5896 72.4114 98.5064 77.9084C99.4689 72.4114 105.932 69.8003 107.078 69.388C105.932 68.9757 99.4689 66.3188 98.5064 60.8218Z" fill="white"/>
<path d="M123.258 60.8218C122.296 66.3188 115.879 68.9757 114.778 69.388C115.879 69.8003 122.296 72.4114 123.258 77.9084C124.175 72.4114 130.638 69.8003 131.784 69.388C130.638 68.9757 124.175 66.3188 123.258 60.8218Z" fill="white"/>
<path d="M147.919 60.8218C147.002 66.3188 140.585 68.9757 139.439 69.388C140.585 69.8003 147.002 72.4114 147.919 77.9084C148.835 72.4114 155.344 69.8003 156.49 69.388C155.344 68.9757 148.835 66.3188 147.919 60.8218Z" fill="white"/>
<path d="M172.625 60.8218C171.662 66.3188 165.245 68.9757 164.099 69.388C165.245 69.8003 171.662 72.4114 172.625 77.9084C173.587 72.4114 180.05 69.8003 181.196 69.388C180.05 68.9757 173.587 66.3188 172.625 60.8218Z" fill="white"/>
<path d="M197.285 60.8218C196.368 66.3188 189.951 68.9757 188.805 69.388C189.951 69.8003 196.368 72.4114 197.285 77.9084C198.202 72.4114 204.665 69.8003 205.856 69.388C204.665 68.9757 198.202 66.3188 197.285 60.8218Z" fill="white"/>
<path d="M221.945 60.8218C221.028 66.3188 214.611 68.9757 213.465 69.388C214.611 69.8003 221.028 72.4114 221.945 77.9084C222.908 72.4114 229.371 69.8003 230.517 69.388C229.371 68.9757 222.908 66.3188 221.945 60.8218Z" fill="white"/>
<path d="M246.651 60.8218C245.689 66.3188 239.271 68.9757 238.125 69.388C239.271 69.8003 245.689 72.4114 246.651 77.9084C247.568 72.4114 254.031 69.8003 255.177 69.388C254.031 68.9757 247.568 66.3188 246.651 60.8218Z" fill="white"/>
<path d="M271.311 35.9934C270.395 41.4446 263.977 44.1016 262.832 44.5138C263.977 44.9261 270.395 47.583 271.311 53.08C272.228 47.583 278.737 44.9261 279.883 44.5138C278.737 44.1016 272.228 41.4446 271.311 35.9934Z" fill="white"/>
<path d="M296.017 35.9934C295.055 41.4446 288.638 44.1015 287.492 44.5138C288.638 44.9261 295.055 47.583 296.017 53.08C296.98 47.583 303.443 44.9261 304.589 44.5138C303.443 44.1015 296.98 41.4446 296.017 35.9934C296.017 35.9018 296.109 35.9018 296.017 35.9934Z" fill="white"/>
<path d="M320.678 35.9934C319.761 41.4446 313.344 44.1015 312.198 44.5138C313.344 44.9261 319.761 47.583 320.678 53.08C321.594 47.583 328.057 44.9261 329.249 44.5138C328.057 44.1015 321.594 41.4446 320.678 35.9934C320.678 35.9018 320.769 35.9018 320.678 35.9934Z" fill="white"/>
<path d="M345.338 35.9934C344.421 41.4446 338.004 44.1015 336.858 44.5138C338.004 44.9261 344.421 47.583 345.338 53.08C346.301 47.583 352.764 44.9261 353.909 44.5138C352.764 44.1015 346.301 41.4446 345.338 35.9934C345.384 35.9018 345.475 35.9018 345.338 35.9934Z" fill="white"/>
<path d="M370.044 35.9934C369.081 41.4446 362.664 44.1015 361.518 44.5138C362.664 44.9261 369.081 47.583 370.044 53.08C370.961 47.583 377.424 44.9261 378.57 44.5138C377.424 44.1015 370.961 41.4446 370.044 35.9934C370.044 35.9018 370.136 35.9018 370.044 35.9934Z" fill="white"/>
<path d="M394.704 35.9934C393.788 41.4446 387.37 44.1016 386.224 44.5138C387.37 44.9261 393.788 47.583 394.704 53.08C395.621 47.583 402.13 44.9261 403.276 44.5138C402.13 44.1016 395.621 41.4446 394.704 35.9934Z" fill="white"/>
<path d="M419.364 35.9934C418.402 41.4446 411.985 44.1015 410.839 44.5138C411.985 44.9261 418.402 47.583 419.364 53.08C420.327 47.583 426.79 44.9261 427.936 44.5138C426.79 44.1015 420.327 41.4446 419.364 35.9934C419.364 35.9018 419.364 35.9018 419.364 35.9934Z" fill="white"/>
<path d="M444.071 35.9934C443.154 41.4446 436.737 44.1015 435.591 44.5138C436.737 44.9261 443.154 47.583 444.071 53.08C444.987 47.583 451.45 44.9261 452.642 44.5138C451.45 44.1015 444.987 41.4446 444.071 35.9934C444.071 35.9018 444.162 35.9018 444.071 35.9934Z" fill="white"/>
<path d="M468.731 35.9934C467.814 41.4446 461.397 44.1015 460.251 44.5138C461.397 44.9261 467.814 47.583 468.731 53.08C469.693 47.583 476.156 44.9261 477.302 44.5138C476.156 44.1015 469.693 41.4446 468.731 35.9934C468.777 35.9018 468.868 35.9018 468.731 35.9934Z" fill="white"/>
<path d="M493.437 35.9934C492.474 41.4446 486.057 44.1015 484.911 44.5138C486.057 44.9261 492.474 47.583 493.437 53.08C494.399 47.583 500.862 44.9261 502.008 44.5138C500.862 44.1015 494.399 41.4446 493.437 35.9934C493.437 35.9018 493.529 35.9018 493.437 35.9934Z" fill="white"/>
<path d="M24.5257 35.9934C23.6089 41.4446 17.1918 44.1015 16.0458 44.5138C17.1918 44.9261 23.6089 47.583 24.5257 53.08C25.4882 47.583 31.9512 44.9261 33.0972 44.5138C31.9512 44.1015 25.4882 41.4446 24.5257 35.9934C24.6632 35.9018 24.5715 35.9018 24.5257 35.9934Z" fill="white"/>
<path d="M49.2317 35.9934C48.2691 41.4446 41.852 44.1015 40.7061 44.5138C41.852 44.9261 48.2691 47.583 49.2317 53.08C50.1943 47.583 56.6573 44.9261 57.8032 44.5138C56.6573 44.1015 50.1943 41.4446 49.2317 35.9934C49.3234 35.9018 49.2317 35.9018 49.2317 35.9934Z" fill="white"/>
<path d="M73.892 35.9934C72.9753 41.4446 66.5581 44.1016 65.4122 44.5138C66.5581 44.9261 72.9753 47.583 73.892 53.08C74.8087 47.583 81.3176 44.9261 82.4635 44.5138C81.3176 44.1016 74.8087 41.4446 73.892 35.9934V35.9934Z" fill="white"/>
<path d="M98.5064 35.9934C97.5896 41.4446 91.1725 44.1015 90.0266 44.5138C91.1725 44.9261 97.5896 47.583 98.5064 53.08C99.4689 47.583 105.932 44.9261 107.078 44.5138C105.932 44.1015 99.4689 41.4446 98.5064 35.9934C98.5064 35.9018 98.5064 35.9018 98.5064 35.9934Z" fill="white"/>
<path d="M123.258 35.9934C122.296 41.4446 115.879 44.1015 114.778 44.5138C115.879 44.9261 122.296 47.583 123.258 53.08C124.175 47.583 130.638 44.9261 131.784 44.5138C130.638 44.1015 124.175 41.4446 123.258 35.9934C123.258 35.9018 123.35 35.9018 123.258 35.9934Z" fill="white"/>
<path d="M147.919 35.9934C147.002 41.4446 140.585 44.1015 139.439 44.5138C140.585 44.9261 147.002 47.583 147.919 53.08C148.835 47.583 155.344 44.9261 156.49 44.5138C155.344 44.1015 148.835 41.4446 147.919 35.9934C147.964 35.9018 148.056 35.9018 147.919 35.9934Z" fill="white"/>
<path d="M172.625 35.9934C171.662 41.4446 165.245 44.1015 164.099 44.5138C165.245 44.9261 171.662 47.583 172.625 53.08C173.587 47.583 180.05 44.9261 181.196 44.5138C180.05 44.1015 173.587 41.4446 172.625 35.9934C172.625 35.9018 172.716 35.9018 172.625 35.9934Z" fill="white"/>
<path d="M197.285 35.9934C196.368 41.4446 189.951 44.1016 188.805 44.5138C189.951 44.9261 196.368 47.583 197.285 53.08C198.202 47.583 204.665 44.9261 205.856 44.5138C204.665 44.1016 198.202 41.4446 197.285 35.9934Z" fill="white"/>
<path d="M221.945 35.9934C221.028 41.4446 214.611 44.1015 213.465 44.5138C214.611 44.9261 221.028 47.583 221.945 53.08C222.908 47.583 229.371 44.9261 230.517 44.5138C229.371 44.1015 222.908 41.4446 221.945 35.9934C221.991 35.9018 222.266 35.9018 221.945 35.9934Z" fill="white"/>
<path d="M246.651 35.9934C245.689 41.4446 239.271 44.1015 238.125 44.5138C239.271 44.9261 245.689 47.583 246.651 53.08C247.568 47.583 254.031 44.9261 255.177 44.5138C254.031 44.1015 247.568 41.4446 246.651 35.9934C246.651 35.9018 246.743 35.9018 246.651 35.9934Z" fill="white"/>
<path d="M271.311 11.2109C270.395 16.7079 263.977 19.319 262.832 19.7771C263.977 20.1894 270.395 22.8005 271.311 28.2975C272.228 22.8005 278.737 20.1894 279.883 19.7771C278.737 19.319 272.228 16.7079 271.311 11.2109Z" fill="white"/>
<path d="M296.017 11.2109C295.055 16.7079 288.638 19.319 287.492 19.7771C288.638 20.1894 295.055 22.8005 296.017 28.2975C296.98 22.8005 303.443 20.1894 304.589 19.7771C303.443 19.319 296.98 16.7079 296.017 11.2109C296.017 11.1192 296.109 11.1192 296.017 11.2109Z" fill="white"/>
<path d="M320.678 11.2109C319.761 16.7079 313.344 19.319 312.198 19.7771C313.344 20.1894 319.761 22.8005 320.678 28.2975C321.594 22.8005 328.057 20.1894 329.249 19.7771C328.057 19.319 321.594 16.7079 320.678 11.2109C320.678 11.1192 320.769 11.1192 320.678 11.2109Z" fill="white"/>
<path d="M345.338 11.2109C344.421 16.7079 338.004 19.319 336.858 19.7771C338.004 20.1894 344.421 22.8005 345.338 28.2975C346.301 22.8005 352.764 20.1894 353.909 19.7771C352.764 19.319 346.301 16.7079 345.338 11.2109C345.384 11.1192 345.475 11.1192 345.338 11.2109Z" fill="white"/>
<path d="M370.044 11.2109C369.081 16.7079 362.664 19.319 361.518 19.7771C362.664 20.1894 369.081 22.8005 370.044 28.2975C370.961 22.8005 377.424 20.1894 378.57 19.7771C377.424 19.319 370.961 16.7079 370.044 11.2109C370.044 11.1192 370.136 11.1192 370.044 11.2109Z" fill="white"/>
<path d="M394.704 11.2109C393.788 16.7079 387.37 19.319 386.224 19.7771C387.37 20.1894 393.788 22.8005 394.704 28.2975C395.621 22.8005 402.13 20.1894 403.276 19.7771C402.13 19.319 395.621 16.7079 394.704 11.2109Z" fill="white"/>
<path d="M419.364 11.2109C418.402 16.7079 411.985 19.319 410.839 19.7771C411.985 20.1894 418.402 22.8005 419.364 28.2975C420.327 22.8005 426.79 20.1894 427.936 19.7771C426.79 19.319 420.327 16.7079 419.364 11.2109C419.364 11.1192 419.364 11.1192 419.364 11.2109Z" fill="white"/>
<path d="M444.071 11.2109C443.154 16.7079 436.737 19.319 435.591 19.7771C436.737 20.1894 443.154 22.8005 444.071 28.2975C444.987 22.8005 451.45 20.1894 452.642 19.7771C451.45 19.319 444.987 16.7079 444.071 11.2109C444.071 11.1192 444.162 11.1192 444.071 11.2109Z" fill="white"/>
<path d="M468.731 11.2109C467.814 16.7079 461.397 19.319 460.251 19.7771C461.397 20.1894 467.814 22.8005 468.731 28.2975C469.693 22.8005 476.156 20.1894 477.302 19.7771C476.156 19.319 469.693 16.7079 468.731 11.2109C468.777 11.1192 468.868 11.1192 468.731 11.2109Z" fill="white"/>
<path d="M493.437 11.2109C492.474 16.7079 486.057 19.319 484.911 19.7771C486.057 20.1894 492.474 22.8005 493.437 28.2975C494.399 22.8005 500.862 20.1894 502.008 19.7771C500.862 19.319 494.399 16.7079 493.437 11.2109C493.437 11.1192 493.529 11.1192 493.437 11.2109Z" fill="white"/>
<path d="M518.097 60.8218C517.18 66.3188 510.763 68.9757 509.617 69.388C510.763 69.8003 517.18 72.4114 518.097 77.9084C519.014 72.4114 525.523 69.8003 526.669 69.388C525.523 68.9757 519.014 66.3188 518.097 60.8218Z" fill="white"/>
<path d="M542.803 60.8218C541.841 66.3188 535.423 68.9757 534.278 69.388C535.423 69.8003 541.841 72.4114 542.803 77.9084C543.766 72.4114 550.229 69.8003 551.375 69.388C550.229 68.9757 543.766 66.3188 542.803 60.8218Z" fill="white"/>
<path d="M567.463 60.8218C566.501 66.3188 560.084 68.9757 558.984 69.388C560.084 69.8003 566.501 72.4114 567.463 77.9084C568.38 72.4114 574.843 69.8003 575.989 69.388C574.843 68.9757 568.38 66.3188 567.463 60.8218Z" fill="white"/>
<path d="M592.124 60.8218C591.207 66.3188 584.79 68.9757 583.644 69.388C584.79 69.8003 591.207 72.4114 592.124 77.9084C593.086 72.4114 599.549 69.8003 600.695 69.388C599.549 68.9757 593.086 66.3188 592.124 60.8218Z" fill="white"/>
<path d="M518.097 35.9934C517.18 41.4446 510.763 44.1016 509.617 44.5138C510.763 44.9261 517.18 47.583 518.097 53.08C519.014 47.583 525.523 44.9261 526.669 44.5138C525.523 44.1016 519.014 41.4446 518.097 35.9934Z" fill="white"/>
<path d="M542.803 35.9934C541.841 41.4446 535.423 44.1015 534.278 44.5138C535.423 44.9261 541.841 47.583 542.803 53.08C543.766 47.583 550.229 44.9261 551.375 44.5138C550.229 44.1015 543.766 41.4446 542.803 35.9934C542.803 35.9018 543.124 35.9018 542.803 35.9934Z" fill="white"/>
<path d="M567.463 35.9934C566.501 41.4446 560.084 44.1015 558.984 44.5138C560.084 44.9261 566.501 47.583 567.463 53.08C568.38 47.583 574.843 44.9261 575.989 44.5138C574.843 44.1015 568.38 41.4446 567.463 35.9934C567.463 35.9018 567.555 35.9018 567.463 35.9934Z" fill="white"/>
<path d="M592.124 35.9934C591.207 41.4446 584.79 44.1015 583.644 44.5138C584.79 44.9261 591.207 47.583 592.124 53.08C593.086 47.583 599.549 44.9261 600.695 44.5138C599.549 44.1015 593.086 41.4446 592.124 35.9934C592.169 35.9018 592.261 35.9018 592.124 35.9934Z" fill="white"/>
<path d="M518.097 11.2109C517.18 16.7079 510.763 19.319 509.617 19.7771C510.763 20.1894 517.18 22.8005 518.097 28.2975C519.014 22.8005 525.523 20.1894 526.669 19.7771C525.523 19.319 519.014 16.7079 518.097 11.2109Z" fill="white"/>
<path d="M542.803 11.2109C541.841 16.7079 535.423 19.319 534.278 19.7771C535.423 20.1894 541.841 22.8005 542.803 28.2975C543.766 22.8005 550.229 20.1894 551.375 19.7771C550.229 19.319 543.766 16.7079 542.803 11.2109C542.803 11.1192 543.124 11.1192 542.803 11.2109Z" fill="white"/>
<path d="M24.5257 11.2109C23.6089 16.7079 17.1918 19.319 16.0458 19.7771C17.1918 20.1894 23.6089 22.8005 24.5257 28.2975C25.4882 22.8005 31.9512 20.1894 33.0972 19.7771C31.9512 19.319 25.4882 16.7079 24.5257 11.2109C24.6632 11.1192 24.5715 11.1192 24.5257 11.2109Z" fill="white"/>
<path d="M49.2317 11.2109C48.2691 16.7079 41.852 19.319 40.7061 19.7771C41.852 20.1894 48.2691 22.8005 49.2317 28.2975C50.1943 22.8005 56.6573 20.1894 57.8032 19.7771C56.6573 19.319 50.1943 16.7079 49.2317 11.2109C49.3234 11.1192 49.2317 11.1192 49.2317 11.2109Z" fill="white"/>
<path d="M73.892 11.2109C72.9753 16.7079 66.5581 19.319 65.4122 19.7771C66.5581 20.1894 72.9753 22.8005 73.892 28.2975C74.8087 22.8005 81.3176 20.1894 82.4635 19.7771C81.3176 19.319 74.8087 16.7079 73.892 11.2109V11.2109Z" fill="white"/>
<path d="M98.5064 11.2109C97.5896 16.7079 91.1725 19.319 90.0266 19.7771C91.1725 20.1894 97.5896 22.8005 98.5064 28.2975C99.4689 22.8005 105.932 20.1894 107.078 19.7771C105.932 19.319 99.4689 16.7079 98.5064 11.2109C98.5064 11.1192 98.5064 11.1192 98.5064 11.2109Z" fill="white"/>
<path d="M123.258 11.2109C122.296 16.7079 115.879 19.319 114.778 19.7771C115.879 20.1894 122.296 22.8005 123.258 28.2975C124.175 22.8005 130.638 20.1894 131.784 19.7771C130.638 19.319 124.175 16.7079 123.258 11.2109C123.258 11.1192 123.35 11.1192 123.258 11.2109Z" fill="white"/>
<path d="M147.919 11.2109C147.002 16.7079 140.585 19.319 139.439 19.7771C140.585 20.1894 147.002 22.8005 147.919 28.2975C148.835 22.8005 155.344 20.1894 156.49 19.7771C155.344 19.319 148.835 16.7079 147.919 11.2109C147.964 11.1192 148.056 11.1192 147.919 11.2109Z" fill="white"/>
<path d="M172.625 11.2109C171.662 16.7079 165.245 19.319 164.099 19.7771C165.245 20.1894 171.662 22.8005 172.625 28.2975C173.587 22.8005 180.05 20.1894 181.196 19.7771C180.05 19.319 173.587 16.7079 172.625 11.2109C172.625 11.1192 172.716 11.1192 172.625 11.2109Z" fill="white"/>
<path d="M197.285 11.2109C196.368 16.7079 189.951 19.319 188.805 19.7771C189.951 20.1894 196.368 22.8005 197.285 28.2975C198.202 22.8005 204.665 20.1894 205.856 19.7771C204.665 19.319 198.202 16.7079 197.285 11.2109Z" fill="white"/>
<path d="M221.945 11.2109C221.028 16.7079 214.611 19.319 213.465 19.7771C214.611 20.1894 221.028 22.8005 221.945 28.2975C222.908 22.8005 229.371 20.1894 230.517 19.7771C229.371 19.319 222.908 16.7079 221.945 11.2109C221.991 11.1192 222.266 11.1192 221.945 11.2109Z" fill="white"/>
<path d="M246.651 11.2109C245.689 16.7079 239.271 19.319 238.125 19.7771C239.271 20.1894 245.689 22.8005 246.651 28.2975C247.568 22.8005 254.031 20.1894 255.177 19.7771C254.031 19.319 247.568 16.7079 246.651 11.2109C246.651 11.1192 246.743 11.1192 246.651 11.2109Z" fill="white"/>
<path d="M1417.85 11.2109C1416.88 16.7079 1410.47 19.319 1409.32 19.7771C1410.47 20.1894 1416.88 22.8005 1417.85 28.2975C1418.76 22.8005 1425.23 20.1894 1426.37 19.7771C1425.23 19.319 1418.76 16.7079 1417.85 11.2109C1417.85 11.1192 1417.94 11.1192 1417.85 11.2109Z" fill="white"/>
<path d="M1442.51 11.2109C1441.59 16.7079 1435.17 19.319 1434.03 19.7771C1435.17 20.1894 1441.59 22.8005 1442.51 28.2975C1443.42 22.8005 1449.93 20.1894 1451.08 19.7771C1449.93 19.319 1443.42 16.7079 1442.51 11.2109Z" fill="white"/>
<path d="M1368.48 35.9934C1367.56 41.4446 1361.15 44.1015 1360 44.5138C1361.15 44.9261 1367.56 47.583 1368.48 53.08C1369.4 47.583 1375.86 44.9261 1377.05 44.5138C1375.86 44.1015 1369.4 41.4446 1368.48 35.9934C1368.48 35.9018 1368.57 35.9018 1368.48 35.9934Z" fill="white"/>
<path d="M1393.14 35.9934C1392.22 41.4446 1385.81 44.1015 1384.66 44.5138C1385.81 44.9261 1392.22 47.583 1393.14 53.08C1394.1 47.583 1400.57 44.9261 1401.71 44.5138C1400.57 44.1015 1394.1 41.4446 1393.14 35.9934C1393.19 35.9018 1393.28 35.9018 1393.14 35.9934Z" fill="white"/>
<path d="M1417.85 35.9934C1416.88 41.4446 1410.47 44.1015 1409.32 44.5138C1410.47 44.9261 1416.88 47.583 1417.85 53.08C1418.76 47.583 1425.23 44.9261 1426.37 44.5138C1425.23 44.1015 1418.76 41.4446 1417.85 35.9934C1417.85 35.9018 1417.94 35.9018 1417.85 35.9934Z" fill="white"/>
<path d="M1442.51 35.9934C1441.59 41.4446 1435.17 44.1016 1434.03 44.5138C1435.17 44.9261 1441.59 47.583 1442.51 53.08C1443.42 47.583 1449.93 44.9261 1451.08 44.5138C1449.93 44.1016 1443.42 41.4446 1442.51 35.9934Z" fill="white"/>
<path d="M1368.48 60.8218C1367.56 66.3188 1361.15 68.9757 1360 69.388C1361.15 69.8003 1367.56 72.4114 1368.48 77.9084C1369.4 72.4114 1375.86 69.8003 1377.05 69.388C1375.86 68.9757 1369.4 66.3188 1368.48 60.8218Z" fill="white"/>
<path d="M1393.14 60.8218C1392.22 66.3188 1385.81 68.9757 1384.66 69.388C1385.81 69.8003 1392.22 72.4114 1393.14 77.9084C1394.1 72.4114 1400.57 69.8003 1401.71 69.388C1400.57 68.9757 1394.1 66.3188 1393.14 60.8218Z" fill="white"/>
<path d="M1417.85 60.8218C1416.88 66.3188 1410.47 68.9757 1409.32 69.388C1410.47 69.8003 1416.88 72.4114 1417.85 77.9084C1418.76 72.4114 1425.23 69.8003 1426.37 69.388C1425.23 68.9757 1418.76 66.3188 1417.85 60.8218Z" fill="white"/>
<path d="M1442.51 60.8218C1441.59 66.3188 1435.17 68.9757 1434.03 69.388C1435.17 69.8003 1441.59 72.4114 1442.51 77.9084C1443.42 72.4114 1449.93 69.8003 1451.08 69.388C1449.93 68.9757 1443.42 66.3188 1442.51 60.8218Z" fill="white"/>
</svg>
