<svg width="438" height="686" viewBox="0 0 438 686" fill="none" xmlns="http://www.w3.org/2000/svg">
<path d="M425.566 188.923H11.6565C11.1328 188.926 10.6154 189.038 10.1381 189.254C9.66082 189.469 9.23425 189.783 8.88606 190.174C8.53787 190.565 8.27588 191.024 8.11713 191.523C7.95838 192.022 7.90639 192.549 7.96458 193.069L66.4545 590.597C67.3671 603.366 76.8666 616.591 94.9943 627.038L155.268 661.82C190.154 681.927 242.92 684.165 273.16 666.712L350.317 622.146C364.877 613.855 371.307 602.371 370.478 590.597L428.967 193.069C429.025 192.572 428.981 192.069 428.84 191.589C428.699 191.109 428.463 190.662 428.146 190.276C427.828 189.889 427.436 189.57 426.993 189.338C426.55 189.105 426.065 188.964 425.566 188.923V188.923Z" fill="#FF5C5C"/>
<path d="M222.013 685.824C197.517 685.988 173.386 679.894 151.908 668.122L91.5928 633.298C74.751 623.597 63.9656 611.201 60.5641 597.852L60.1907 595.614C60.0504 595.013 59.9534 594.404 59.9003 593.79L59.527 591.758L0.912655 194.23C0.698608 192.679 0.817281 191.101 1.26072 189.6C1.70417 188.099 2.4622 186.709 3.48453 185.524C4.51939 184.347 5.79669 183.408 7.22873 182.771C8.66077 182.134 10.2137 181.815 11.781 181.834H425.69C427.259 181.809 428.813 182.126 430.246 182.764C431.679 183.401 432.956 184.343 433.987 185.524C435.006 186.703 435.762 188.085 436.206 189.579C436.649 191.073 436.769 192.644 436.559 194.188L377.82 591.841C378.193 606.392 369.855 619.327 354.051 628.447L276.852 673.055C259.973 681.947 241.087 686.345 222.013 685.824V685.824ZM72.6769 583.633H73.1746L73.7554 590.224C74.5436 601.045 83.6282 612.279 98.6447 621.027L158.918 655.809C191.772 674.755 241.468 676.952 269.676 660.701L346.874 616.135C354.922 611.492 364.338 603.408 363.467 591.261L362.928 583.633H364.587L421.625 196.012H15.5144L72.6769 583.633Z" fill="#150035"/>
<path d="M422.455 188.965H215.5V678.486C235.951 678.983 255.696 675.252 270.174 666.878L347.372 622.353C361.891 614.062 368.362 602.578 367.491 590.763L425.981 193.235C426.057 192.718 426.023 192.192 425.883 191.69C425.743 191.187 425.499 190.719 425.167 190.317C424.834 189.915 424.421 189.586 423.954 189.353C423.487 189.121 422.976 188.988 422.455 188.965V188.965Z" fill="#150035"/>
<path d="M401.797 232.743L294.565 294.596C252.627 318.807 179.369 315.739 130.918 287.797L47.2067 239.5C-1.24447 211.558 -6.72011 169.273 35.4258 145.103L142.657 83.2084C184.596 58.9977 257.895 62.024 306.346 90.0073L390.016 138.263C438.467 166.288 443.735 208.739 401.797 232.743Z" fill="white"/>
<path d="M223.506 317.895C190.03 317.895 154.77 309.604 127.35 293.933L43.6393 245.636C15.9292 229.675 0 207.952 0 186.104C0 167.532 11.3247 150.783 31.8584 138.926L139.09 77.073C182.936 51.7843 259.388 54.7692 309.872 83.8304L393.583 132.169C421.293 148.13 437.222 169.853 437.222 191.701C437.222 210.273 425.898 226.98 405.323 238.879L298.133 300.732C278.263 312.381 251.465 317.895 223.506 317.895ZM213.716 73.8808C188.371 73.8808 164.187 78.98 146.225 89.3441L38.9933 151.239C23.0227 160.484 14.104 172.838 14.104 186.104C14.104 202.687 27.3782 219.974 50.6083 233.365L134.319 281.662C180.738 308.443 250.967 311.469 290.915 288.461L398.229 226.566C414.2 217.363 423.119 204.967 423.119 191.701C423.119 175.118 409.803 157.831 386.614 144.44L302.779 96.143C275.46 81.2961 244.812 73.6353 213.716 73.8808V73.8808Z" fill="#150035"/>
<path d="M345.713 219.311L271.335 262.219C242.297 278.801 191.357 276.936 157.757 257.534L99.6817 223.995C66.0396 204.635 62.3477 175.284 91.3853 158.494L165.763 115.586C194.8 98.7961 245.741 100.869 279.341 120.271L337.416 153.809C371.183 173.211 374.792 202.521 345.713 219.311Z" fill="#FF5C5C"/>
<path d="M221.888 280.791C198.229 280.954 174.923 275.06 154.189 263.67L96.1142 230.173C76.2027 218.689 64.7536 202.936 64.7536 186.975C64.7536 173.294 73.0501 160.981 87.9422 152.358L162.361 109.243C193.888 91.0853 246.902 93.1166 283.033 113.969L341.108 147.466C361.019 158.95 372.469 174.745 372.469 190.706C372.469 204.345 364.172 216.658 349.28 225.281L274.861 268.396C258.562 277.006 240.318 281.275 221.888 280.791ZM215.21 111.233C199.354 110.789 183.647 114.399 169.579 121.722L95.0771 164.63C87.7348 168.775 78.9821 176.196 78.9821 186.975C78.9821 197.753 87.8178 208.988 103.208 217.86L161.283 251.357C192.892 269.598 240.68 271.712 267.768 256.083L342.145 213.175C349.487 209.03 358.24 201.609 358.24 190.872C358.24 180.134 349.404 168.817 334.015 159.903L275.94 126.406C257.314 116.275 236.414 111.053 215.21 111.233V111.233Z" fill="#150035"/>
<path d="M227.986 105.098C205.047 103.025 182.107 106.3 165.763 115.628L91.5927 158.535C62.5552 175.118 66.1226 204.677 99.8891 224.037L157.964 257.576C179.488 269.158 203.782 274.608 228.194 273.329L227.986 105.098Z" fill="#150035"/>
<path d="M161.366 151.156L228.484 65.1333C233.392 58.8437 240.351 54.4738 248.151 52.7845C255.951 51.0952 264.096 52.1936 271.169 55.8885L309.001 75.5389C316.284 79.3099 321.967 85.5723 325.013 93.183C328.059 100.794 328.265 109.246 325.594 116.996L292.408 214.129C291.202 217.695 290.585 221.433 290.583 225.198V231.333C290.586 237.333 289.008 243.227 286.008 248.423C283.007 253.619 278.691 257.934 273.492 260.933L259.305 269.225C253.823 272.391 247.567 273.97 241.238 273.787C234.909 273.604 228.755 271.666 223.465 268.188L165.39 229.965C159.909 226.389 155.569 221.317 152.886 215.35C150.202 209.384 149.287 202.773 150.249 196.302L154.397 167.283C155.285 161.395 157.686 155.838 161.366 151.156V151.156Z" fill="white"/>
<path d="M242.298 278.926C234.597 278.924 227.068 276.661 220.644 272.417L162.569 234.235C156.299 230.105 151.331 224.282 148.24 217.443C145.148 210.604 144.061 203.029 145.105 195.598L149.253 166.578C150.229 159.758 152.975 153.312 157.218 147.881L224.336 61.8582C230.032 54.5868 238.098 49.5395 247.131 47.5931C256.164 45.6467 265.594 46.9243 273.783 51.2039L311.449 70.8544C319.864 75.1612 326.438 82.3624 329.96 91.131C333.481 99.8996 333.714 109.645 330.613 118.571L297.428 215.746C296.425 218.754 295.907 221.903 295.893 225.073V231.209C295.892 238.14 294.068 244.949 290.602 250.952C287.136 256.955 282.151 261.942 276.147 265.411L261.96 273.702C255.976 277.131 249.196 278.933 242.298 278.926V278.926ZM165.556 154.555C162.456 158.518 160.441 163.219 159.707 168.195L155.558 197.214C154.801 202.631 155.591 208.152 157.837 213.14C160.082 218.127 163.693 222.379 168.252 225.405L226.327 263.587C230.783 266.54 235.978 268.187 241.323 268.341C246.668 268.495 251.949 267.15 256.568 264.457L270.754 256.166C275.116 253.631 278.741 250.003 281.272 245.641C283.803 241.28 285.154 236.334 285.19 231.292V225.073C285.188 220.73 285.902 216.416 287.306 212.305L320.492 115.172C322.775 108.664 322.64 101.553 320.112 95.1368C317.583 88.7206 312.83 83.4273 306.719 80.2236L268.888 60.5731C262.906 57.4983 256.041 56.5944 249.467 58.0159C242.892 59.4374 237.015 63.0961 232.84 68.3669L165.556 154.555Z" fill="#150035"/>
<path d="M146.972 53.3182L102.668 131.257C101.39 133.51 100.582 136 100.293 138.574C100.005 141.149 100.242 143.755 100.99 146.235C101.739 148.715 102.983 151.018 104.647 153.004C106.312 154.99 108.362 156.618 110.675 157.789L180.531 193.359C184.386 195.306 188.786 195.895 193.017 195.029C197.249 194.164 201.064 191.895 203.844 188.591L242.298 142.989C245.316 139.387 246.911 134.805 246.781 130.108C246.651 125.411 244.806 120.924 241.592 117.493L177.585 49.67C175.53 47.4871 172.992 45.8165 170.173 44.7928C167.355 43.769 164.335 43.4205 161.357 43.7754C158.38 44.1302 155.527 45.1785 153.028 46.8359C150.53 48.4933 148.455 50.7136 146.972 53.3182V53.3182Z" fill="white"/>
<path d="M189.242 200.738C185.364 200.753 181.539 199.843 178.083 198.085L108.186 162.515C105.234 161.014 102.618 158.93 100.496 156.39C98.3742 153.849 96.7901 150.904 95.84 147.734C94.8898 144.563 94.5934 141.233 94.9685 137.945C95.3436 134.657 96.3826 131.479 98.0225 128.604L142.284 50.7064C144.182 47.3814 146.833 44.547 150.024 42.4305C153.216 40.314 156.859 38.9743 160.662 38.5189C164.465 38.0634 168.322 38.5049 171.924 39.8078C175.526 41.1108 178.772 43.239 181.402 46.0218L245.409 113.886C249.534 118.26 251.906 123.997 252.074 130.005C252.242 136.013 250.195 141.874 246.321 146.471L207.909 192.074C205.615 194.788 202.757 196.97 199.533 198.466C196.309 199.963 192.797 200.738 189.242 200.738ZM163.689 48.9652H161.988C159.836 49.2224 157.776 49.9835 155.974 51.1865C154.172 52.3895 152.679 54.0005 151.618 55.8885L107.314 133.869C106.4 135.497 105.823 137.292 105.618 139.148C105.414 141.004 105.586 142.882 106.124 144.67C106.662 146.458 107.556 148.119 108.751 149.554C109.946 150.989 111.419 152.168 113.08 153.022L182.854 188.592C185.632 190.027 188.818 190.468 191.882 189.842C194.947 189.216 197.704 187.561 199.695 185.151L238.108 139.548C240.306 136.956 241.47 133.646 241.378 130.25C241.286 126.854 239.945 123.611 237.61 121.141L173.686 53.3182C172.412 51.9408 170.865 50.8428 169.144 50.0935C167.424 49.3443 165.566 48.9601 163.689 48.9652V48.9652Z" fill="#150035"/>
<path d="M289.007 44.8609L234.458 7.54982C232.885 6.4705 231.11 5.72018 229.24 5.344C227.37 4.96781 225.443 4.97353 223.576 5.36081C221.708 5.74808 219.938 6.50892 218.372 7.59754C216.806 8.68617 215.476 10.0801 214.463 11.6955L184.057 60.8217C182.368 63.5311 181.649 66.7331 182.019 69.9036C182.388 73.0742 183.823 76.0257 186.089 78.275L217.242 109.243C219.702 111.689 222.976 113.147 226.441 113.338C229.905 113.529 233.32 112.44 236.034 110.28L289.878 67.7865C291.646 66.4088 293.061 64.6308 294.007 62.599C294.953 60.5672 295.401 58.3399 295.316 56.1008C295.231 53.8616 294.615 51.6747 293.518 49.7204C292.421 47.7662 290.874 46.1006 289.007 44.8609V44.8609Z" fill="#FF5C5C"/>
<path d="M227.239 118.82C222.127 118.879 217.196 116.928 213.509 113.389L182.314 82.3794C179.189 79.2902 177.211 75.229 176.706 70.8655C176.201 66.5019 177.199 62.0966 179.535 58.3759L209.941 9.20822C211.322 6.97332 213.143 5.0419 215.293 3.53102C217.443 2.02015 219.877 0.961283 222.449 0.418604C225.02 -0.124074 227.675 -0.139263 230.253 0.373952C232.831 0.887167 235.277 1.9181 237.444 3.40427L292.035 40.7153C294.549 42.4264 296.625 44.7038 298.097 47.3641C299.569 50.0243 300.394 52.9929 300.507 56.0305C300.62 59.0682 300.017 62.0898 298.747 64.852C297.478 67.6141 295.576 70.0393 293.196 71.9323L239.269 114.799C235.829 117.459 231.589 118.876 227.239 118.82V118.82ZM226.493 10.4105C225.879 10.4202 225.268 10.4896 224.668 10.6177C223.485 10.8782 222.369 11.3812 221.391 12.0948C220.413 12.8084 219.593 13.7171 218.985 14.7634L188.578 63.6409C187.533 65.3302 187.091 67.3236 187.324 69.296C187.558 71.2685 188.453 73.1037 189.864 74.5026L221.017 105.512C222.55 107.034 224.59 107.938 226.747 108.053C228.905 108.168 231.029 107.485 232.715 106.134L286.642 63.2678C287.722 62.4187 288.586 61.3262 289.162 60.0797C289.739 58.8333 290.013 57.4681 289.961 56.0958C289.908 54.7141 289.532 53.364 288.862 52.1543C288.191 50.9446 287.247 49.909 286.103 49.1311L231.554 11.82C230.045 10.8577 228.283 10.3669 226.493 10.4105V10.4105Z" fill="#150035"/>
<path d="M214.753 213.839L212.721 163.137C212.67 161.667 212.32 160.223 211.693 158.893C211.065 157.563 210.173 156.375 209.07 155.401C207.968 154.428 206.678 153.689 205.28 153.229C203.882 152.77 202.405 152.601 200.94 152.731L156.595 156.504C154.145 156.706 151.837 157.736 150.05 159.424C148.263 161.112 147.104 163.357 146.764 165.79L141.911 199.246C141.526 201.883 142.125 204.569 143.594 206.794C145.062 209.018 147.298 210.626 149.875 211.31L201.106 224.866C202.758 225.305 204.491 225.348 206.164 224.992C207.836 224.636 209.401 223.89 210.731 222.815C212.061 221.741 213.118 220.368 213.817 218.808C214.516 217.248 214.837 215.546 214.753 213.839V213.839Z" fill="#FF5C5C"/>
<path d="M203.927 230.504C202.527 230.488 201.135 230.307 199.778 229.965L148.548 216.409C144.703 215.392 141.368 212.995 139.18 209.676C136.991 206.357 136.103 202.349 136.684 198.417L141.371 164.961C141.877 161.335 143.602 157.988 146.263 155.471C148.924 152.955 152.363 151.418 156.015 151.115L200.359 147.342C202.555 147.163 204.764 147.439 206.848 148.152C208.932 148.866 210.847 150.001 212.472 151.488C214.109 152.937 215.437 154.7 216.377 156.673C217.318 158.646 217.852 160.788 217.948 162.971L220.188 213.631C220.277 215.808 219.926 217.981 219.156 220.019C218.386 222.057 217.213 223.92 215.707 225.495C214.201 227.07 212.392 228.325 210.389 229.186C208.387 230.046 206.231 230.495 204.051 230.504H203.927ZM201.852 157.913H201.396L157.052 161.686C155.802 161.787 154.624 162.31 153.712 163.169C152.8 164.028 152.207 165.172 152.032 166.412L147.179 199.909C146.985 201.264 147.302 202.642 148.069 203.776C148.836 204.91 149.997 205.719 151.327 206.045L202.516 219.601C203.363 219.82 204.249 219.84 205.106 219.66C205.962 219.48 206.765 219.106 207.452 218.565C208.129 218.02 208.666 217.323 209.019 216.53C209.373 215.737 209.533 214.871 209.485 214.004L207.411 163.137C207.424 162.351 207.263 161.573 206.94 160.856C206.618 160.14 206.141 159.503 205.544 158.991C204.481 158.204 203.172 157.822 201.852 157.913Z" fill="#150035"/>
<path d="M74.3447 250.397L60.2384 251.906L101.336 635.594L115.442 634.085L74.3447 250.397Z" fill="#150035"/>
<path d="M371.531 261.489L331.79 620.094L342.386 621.267L382.127 262.662L371.531 261.489Z" fill="#FF5C5C"/>
<path d="M60.1906 548.146L192.934 620.695L60.1906 548.146Z" fill="white"/>
<path d="M63.6202 541.904L56.7982 554.382L189.598 626.893L196.419 614.414L63.6202 541.904Z" fill="#150035"/>
<path d="M410.549 268.951L244.048 369.686L249.569 378.8L416.07 278.065L410.549 268.951Z" fill="#FF5C5C"/>
</svg>
