<svg width="31" height="26" viewBox="0 0 31 26" fill="none" xmlns="http://www.w3.org/2000/svg">
<path d="M31 3.95771C29.8598 4.4598 28.6351 4.79922 27.3474 4.95179C28.6616 4.17088 29.6683 2.93342 30.1437 1.46063C28.8953 2.19639 27.5291 2.71437 26.1044 2.99206C24.9449 1.76568 23.2916 1 21.4624 1C17.9514 1 15.1039 3.82445 15.1039 7.31056C15.1039 7.80451 15.16 8.28639 15.2678 8.74906C9.98242 8.48547 5.29661 5.97315 2.16014 2.15568C1.61247 3.08802 1.29899 4.17202 1.29899 5.3286C1.29899 7.5177 2.42183 9.44916 4.12796 10.5806C3.11796 10.5495 2.13013 10.279 1.24703 9.7916V9.87134C1.24703 12.9292 3.43878 15.4789 6.34819 16.0587C5.81374 16.2041 5.25285 16.28 4.6726 16.28C4.26234 16.28 3.86431 16.2414 3.47547 16.1689C4.28475 18.6752 6.63336 20.4995 9.41538 20.5511C7.2389 22.2441 4.49644 23.2533 1.51783 23.2533C1.0048 23.2533 0.497763 23.223 0 23.1634C2.81477 24.9544 6.15685 26 9.74831 26C21.4451 26 27.8421 16.3841 27.8421 8.04504C27.8421 7.77127 27.836 7.49954 27.8227 7.22878C29.0691 6.33421 30.145 5.22657 31 3.95771Z" fill="white"/>
<path d="M31 2.95771C29.8598 3.4598 28.6351 3.79922 27.3474 3.95179C28.6616 3.17088 29.6683 1.93342 30.1437 0.460628C28.8953 1.19639 27.5291 1.71437 26.1044 1.99206C24.9449 0.765678 23.2916 0 21.4624 0C17.9514 0 15.1039 2.82445 15.1039 6.31056C15.1039 6.80451 15.16 7.28639 15.2678 7.74906C9.98242 7.48547 5.29661 4.97315 2.16014 1.15568C1.61247 2.08802 1.29899 3.17202 1.29899 4.3286C1.29899 6.5177 2.42183 8.44916 4.12796 9.58057C3.11796 9.54952 2.13013 9.27899 1.24703 8.7916V8.87134C1.24703 11.9292 3.43878 14.4789 6.34819 15.0587C5.81374 15.2041 5.25285 15.28 4.6726 15.28C4.26234 15.28 3.86431 15.2414 3.47547 15.1689C4.28475 17.6752 6.63336 19.4995 9.41538 19.5511C7.2389 21.2441 4.49644 22.2533 1.51783 22.2533C1.0048 22.2533 0.497763 22.223 0 22.1634C2.81477 23.9544 6.15685 25 9.74831 25C21.4451 25 27.8421 15.3841 27.8421 7.04504C27.8421 6.77127 27.836 6.49954 27.8227 6.22878C29.0691 5.33421 30.145 4.22657 31 2.95771Z" fill="#150035"/>
</svg>
