<svg width="31" height="25" viewBox="0 0 31 25" fill="none" xmlns="http://www.w3.org/2000/svg">
<path d="M31 2.95771C29.8598 3.4598 28.6351 3.79922 27.3474 3.95179C28.6616 3.17088 29.6683 1.93342 30.1437 0.460628C28.8953 1.19639 27.5291 1.71437 26.1044 1.99206C24.9449 0.765678 23.2916 0 21.4624 0C17.9514 0 15.1039 2.82445 15.1039 6.31056C15.1039 6.80451 15.16 7.28639 15.2678 7.74906C9.98242 7.48547 5.29661 4.97315 2.16014 1.15568C1.61247 2.08802 1.29899 3.17202 1.29899 4.3286C1.29899 6.5177 2.42183 8.44916 4.12796 9.58057C3.11796 9.54952 2.13013 9.27899 1.24703 8.7916V8.87134C1.24703 11.9292 3.43878 14.4789 6.34819 15.0587C5.81374 15.2041 5.25285 15.28 4.6726 15.28C4.26234 15.28 3.86431 15.2414 3.47547 15.1689C4.28475 17.6752 6.63336 19.4995 9.41538 19.5511C7.2389 21.2441 4.49644 22.2533 1.51783 22.2533C1.0048 22.2533 0.497763 22.223 0 22.1634C2.81477 23.9544 6.15685 25 9.74831 25C21.4451 25 27.8421 15.3841 27.8421 7.04504C27.8421 6.77127 27.836 6.49954 27.8227 6.22878C29.0691 5.33421 30.145 4.22657 31 2.95771Z" fill="black"/>
</svg>
